%TF.GenerationSoftware,KiCad,Pcbnew,9.0.7-9.0.7~ubuntu24.04.1*%
%TF.CreationDate,2026-01-31T19:28:56-06:00*%
%TF.ProjectId,homer_thalamus,686f6d65-725f-4746-9861-6c616d75732e,rev?*%
%TF.SameCoordinates,Original*%
%TF.FileFunction,Copper,L3,Inr*%
%TF.FilePolarity,Positive*%
%FSLAX46Y46*%
G04 Gerber Fmt 4.6, Leading zero omitted, Abs format (unit mm)*
G04 Created by KiCad (PCBNEW 9.0.7-9.0.7~ubuntu24.04.1) date 2026-01-31 19:28:56*
%MOMM*%
%LPD*%
G01*
G04 APERTURE LIST*
G04 Aperture macros list*
%AMRoundRect*
0 Rectangle with rounded corners*
0 $1 Rounding radius*
0 $2 $3 $4 $5 $6 $7 $8 $9 X,Y pos of 4 corners*
0 Add a 4 corners polygon primitive as box body*
4,1,4,$2,$3,$4,$5,$6,$7,$8,$9,$2,$3,0*
0 Add four circle primitives for the rounded corners*
1,1,$1+$1,$2,$3*
1,1,$1+$1,$4,$5*
1,1,$1+$1,$6,$7*
1,1,$1+$1,$8,$9*
0 Add four rect primitives between the rounded corners*
20,1,$1+$1,$2,$3,$4,$5,0*
20,1,$1+$1,$4,$5,$6,$7,0*
20,1,$1+$1,$6,$7,$8,$9,0*
20,1,$1+$1,$8,$9,$2,$3,0*%
G04 Aperture macros list end*
%TA.AperFunction,ComponentPad*%
%ADD10C,1.530000*%
%TD*%
%TA.AperFunction,ComponentPad*%
%ADD11RoundRect,0.250000X-0.600000X-0.750000X0.600000X-0.750000X0.600000X0.750000X-0.600000X0.750000X0*%
%TD*%
%TA.AperFunction,ComponentPad*%
%ADD12O,1.700000X2.000000*%
%TD*%
%TA.AperFunction,ComponentPad*%
%ADD13RoundRect,0.200000X-0.600000X0.600000X-0.600000X-0.600000X0.600000X-0.600000X0.600000X0.600000X0*%
%TD*%
%TA.AperFunction,ComponentPad*%
%ADD14C,1.700000*%
%TD*%
%TA.AperFunction,ComponentPad*%
%ADD15R,1.700000X1.700000*%
%TD*%
%TA.AperFunction,ComponentPad*%
%ADD16C,1.600000*%
%TD*%
%TA.AperFunction,ComponentPad*%
%ADD17C,2.000000*%
%TD*%
%TA.AperFunction,ComponentPad*%
%ADD18R,1.800000X1.800000*%
%TD*%
%TA.AperFunction,ComponentPad*%
%ADD19C,1.800000*%
%TD*%
%TA.AperFunction,ComponentPad*%
%ADD20O,1.700000X1.700000*%
%TD*%
%TA.AperFunction,ViaPad*%
%ADD21C,0.600000*%
%TD*%
G04 APERTURE END LIST*
D10*
%TO.N,VBUS*%
%TO.C,U3*%
X73810000Y-68190000D03*
%TO.N,/TRIG*%
X73810000Y-70730000D03*
%TO.N,Net-(U3-ECHO)*%
X73810000Y-73270000D03*
%TO.N,GND*%
X73810000Y-75810000D03*
%TD*%
D11*
%TO.N,GND*%
%TO.C,J2*%
X75200000Y-95700000D03*
D12*
%TO.N,VMOT*%
X77700000Y-95700000D03*
%TD*%
D13*
%TO.N,/GP0*%
%TO.C,A1*%
X163130000Y-63110000D03*
D14*
%TO.N,/GP1*%
X160590000Y-63110000D03*
D15*
%TO.N,GND*%
X158050000Y-63110000D03*
D14*
%TO.N,/GP2*%
X155510000Y-63110000D03*
%TO.N,/GP3*%
X152970000Y-63110000D03*
%TO.N,/GP4*%
X150430000Y-63110000D03*
%TO.N,/GP5*%
X147890000Y-63110000D03*
D15*
%TO.N,GND*%
X145350000Y-63110000D03*
D14*
%TO.N,/GP6*%
X142810000Y-63110000D03*
%TO.N,/GP7*%
X140270000Y-63110000D03*
%TO.N,/I2C0_SDA*%
X137730000Y-63110000D03*
%TO.N,/I2C0_SCL*%
X135190000Y-63110000D03*
D15*
%TO.N,GND*%
X132650000Y-63110000D03*
D14*
%TO.N,/SW_PD*%
X130110000Y-63110000D03*
%TO.N,/ENCB_R*%
X127570000Y-63110000D03*
%TO.N,/ENCA_R*%
X125030000Y-63110000D03*
%TO.N,/~{SLP}_R*%
X122490000Y-63110000D03*
D15*
%TO.N,GND*%
X119950000Y-63110000D03*
D14*
%TO.N,/EN_R*%
X117410000Y-63110000D03*
%TO.N,/PH_R*%
X114870000Y-63110000D03*
%TO.N,/PH_L*%
X114870000Y-80890000D03*
%TO.N,/EN_L*%
X117410000Y-80890000D03*
D15*
%TO.N,GND*%
X119950000Y-80890000D03*
D14*
%TO.N,/~{SLP}_L*%
X122490000Y-80890000D03*
%TO.N,/ENCB_L*%
X125030000Y-80890000D03*
%TO.N,/ENCA_L*%
X127570000Y-80890000D03*
%TO.N,/ECHO*%
X130110000Y-80890000D03*
D15*
%TO.N,GND*%
X132650000Y-80890000D03*
D14*
%TO.N,/TRIG*%
X135190000Y-80890000D03*
%TO.N,unconnected-(A1-RUN-Pad30)*%
X137730000Y-80890000D03*
%TO.N,/BLUE*%
X140270000Y-80890000D03*
%TO.N,/GREEN*%
X142810000Y-80890000D03*
D15*
%TO.N,GND*%
X145350000Y-80890000D03*
D14*
%TO.N,/RED*%
X147890000Y-80890000D03*
%TO.N,unconnected-(A1-ADC_VREF-Pad35)*%
X150430000Y-80890000D03*
%TO.N,3V3(OUT)*%
X152970000Y-80890000D03*
%TO.N,unconnected-(A1-3V3_EN-Pad37)*%
X155510000Y-80890000D03*
D15*
%TO.N,GND*%
X158050000Y-80890000D03*
D14*
%TO.N,unconnected-(A1-VSYS-Pad39)*%
X160590000Y-80890000D03*
%TO.N,VBUS*%
X163130000Y-80890000D03*
%TD*%
D16*
%TO.N,Net-(D1-GA)*%
%TO.C,R3*%
X140386000Y-92761000D03*
%TO.N,/GREEN*%
X140386000Y-85141000D03*
%TD*%
D17*
%TO.N,/SW_PD*%
%TO.C,SW1*%
X127155000Y-92579000D03*
X133655000Y-92579000D03*
%TO.N,3V3(OUT)*%
X127155000Y-97079000D03*
X133655000Y-97079000D03*
%TD*%
D16*
%TO.N,Net-(U3-ECHO)*%
%TO.C,R6*%
X116780000Y-90775400D03*
%TO.N,/ECHO*%
X124400000Y-90775400D03*
%TD*%
%TO.N,Net-(D1-RA)*%
%TO.C,R2*%
X143561000Y-92761000D03*
%TO.N,/RED*%
X143561000Y-85141000D03*
%TD*%
D14*
%TO.N,unconnected-(U1-VM-Pad1)*%
%TO.C,U1*%
X108370000Y-69081000D03*
D15*
%TO.N,GND*%
X108370000Y-66541000D03*
D14*
%TO.N,/EN_R*%
X108370000Y-64001000D03*
%TO.N,/PH_R*%
X108370000Y-61461000D03*
%TO.N,GND*%
X108370000Y-58921000D03*
%TO.N,/~{SLP}_R*%
X108370000Y-56381000D03*
%TO.N,unconnected-(U1-VREF-Pad7)*%
X108370000Y-53841000D03*
%TO.N,unconnected-(U1-CS-Pad8)*%
X95670000Y-53841000D03*
%TO.N,unconnected-(U1-~{FAULT}-Pad9)*%
X95670000Y-56381000D03*
%TO.N,unconnected-(U1-IMODE-Pad10)*%
X95670000Y-58921000D03*
%TO.N,/OUT2_R*%
X95670000Y-61461000D03*
%TO.N,/OUT1_R*%
X95670000Y-64001000D03*
D15*
%TO.N,GND*%
X95670000Y-66541000D03*
D14*
%TO.N,VMOT*%
X95670000Y-69081000D03*
%TD*%
D16*
%TO.N,GND*%
%TO.C,R5*%
X124400000Y-93925000D03*
%TO.N,Net-(U3-ECHO)*%
X116780000Y-93925000D03*
%TD*%
%TO.N,Net-(D1-BA)*%
%TO.C,R4*%
X137211000Y-92761000D03*
%TO.N,/BLUE*%
X137211000Y-85141000D03*
%TD*%
%TO.N,/SW_PD*%
%TO.C,R1*%
X124400000Y-97100000D03*
%TO.N,GND*%
X116780000Y-97100000D03*
%TD*%
D18*
%TO.N,Net-(D1-RA)*%
%TO.C,D1*%
X134036000Y-87300000D03*
D19*
%TO.N,GND*%
X131877000Y-87300000D03*
%TO.N,Net-(D1-GA)*%
X129718000Y-87300000D03*
%TO.N,Net-(D1-BA)*%
X127559000Y-87300000D03*
%TD*%
D14*
%TO.N,unconnected-(U2-VM-Pad1)*%
%TO.C,U2*%
X108370000Y-90184000D03*
D15*
%TO.N,GND*%
X108370000Y-87644000D03*
D14*
%TO.N,/EN_L*%
X108370000Y-85104000D03*
%TO.N,/PH_L*%
X108370000Y-82564000D03*
%TO.N,GND*%
X108370000Y-80024000D03*
%TO.N,/~{SLP}_L*%
X108370000Y-77484000D03*
%TO.N,unconnected-(U2-VREF-Pad7)*%
X108370000Y-74944000D03*
%TO.N,unconnected-(U2-CS-Pad8)*%
X95670000Y-74944000D03*
%TO.N,unconnected-(U2-~{FAULT}-Pad9)*%
X95670000Y-77484000D03*
%TO.N,unconnected-(U2-IMODE-Pad10)*%
X95670000Y-80024000D03*
%TO.N,/OUT2_L*%
X95670000Y-82564000D03*
%TO.N,/OUT1_L*%
X95670000Y-85104000D03*
D15*
%TO.N,GND*%
X95670000Y-87644000D03*
D14*
%TO.N,VMOT*%
X95670000Y-90184000D03*
%TD*%
D15*
%TO.N,VBUS*%
%TO.C,J6*%
X163130000Y-85970000D03*
D14*
X163130000Y-88510000D03*
%TO.N,GND*%
X160590000Y-85970000D03*
X160590000Y-88510000D03*
%TD*%
%TO.N,3V3(OUT)*%
%TO.C,U4*%
X90720000Y-80730000D03*
%TO.N,GND*%
X90720000Y-78190000D03*
%TO.N,/I2C0_SCL*%
X90720000Y-75650000D03*
%TO.N,/I2C0_SDA*%
X90720000Y-73110000D03*
%TO.N,unconnected-(U4-XDA-Pad5)*%
X90720000Y-70570000D03*
%TO.N,unconnected-(U4-XCL-Pad6)*%
X90720000Y-68030000D03*
%TO.N,unconnected-(U4-ADO-Pad7)*%
X90720000Y-65490000D03*
%TO.N,unconnected-(U4-INT-Pad8)*%
X90720000Y-62950000D03*
%TD*%
D15*
%TO.N,/OUT2_L*%
%TO.C,J4*%
X82970000Y-97804000D03*
D14*
%TO.N,/OUT1_L*%
X85510000Y-97804000D03*
%TO.N,GND*%
X88050000Y-97804000D03*
%TO.N,VBUS*%
X90590000Y-97804000D03*
%TO.N,/ENCA_L*%
X93130000Y-97804000D03*
%TO.N,/ENCB_L*%
X95670000Y-97804000D03*
%TD*%
D15*
%TO.N,/OUT1_R*%
%TO.C,J3*%
X82970000Y-46221000D03*
D14*
%TO.N,/OUT2_R*%
X85510000Y-46221000D03*
%TO.N,GND*%
X88050000Y-46221000D03*
%TO.N,VBUS*%
X90590000Y-46221000D03*
%TO.N,/ENCA_R*%
X93130000Y-46221000D03*
%TO.N,/ENCB_R*%
X95670000Y-46221000D03*
%TD*%
D16*
%TO.N,/SW_PD*%
%TO.C,C1*%
X130110000Y-58699600D03*
%TO.N,GND*%
X135110000Y-58699600D03*
%TD*%
D15*
%TO.N,/GP7*%
%TO.C,J5*%
X140270000Y-53841000D03*
D14*
%TO.N,/GP6*%
X142810000Y-53841000D03*
%TO.N,GND*%
X145350000Y-53841000D03*
%TO.N,/GP5*%
X147890000Y-53841000D03*
%TO.N,/GP4*%
X150430000Y-53841000D03*
%TO.N,/GP3*%
X152970000Y-53841000D03*
%TO.N,/GP2*%
X155510000Y-53841000D03*
%TO.N,GND*%
X158050000Y-53841000D03*
%TO.N,/GP1*%
X160590000Y-53841000D03*
%TO.N,/GP0*%
X163130000Y-53841000D03*
%TD*%
D15*
%TO.N,+3V3*%
%TO.C,J1*%
X108370000Y-48770000D03*
D20*
%TO.N,+5V*%
X108370000Y-46230000D03*
%TO.N,/GPIO2{slash}SDA1*%
X110910000Y-48770000D03*
%TO.N,+5V*%
X110910000Y-46230000D03*
%TO.N,/GPIO3{slash}SCL1*%
X113450000Y-48770000D03*
%TO.N,GND*%
X113450000Y-46230000D03*
%TO.N,/GPIO4{slash}GPCLK0*%
X115990000Y-48770000D03*
%TO.N,/GPIO14{slash}TXD0*%
X115990000Y-46230000D03*
%TO.N,GND*%
X118530000Y-48770000D03*
%TO.N,/GPIO15{slash}RXD0*%
X118530000Y-46230000D03*
%TO.N,/GPIO17*%
X121070000Y-48770000D03*
%TO.N,/GPIO18{slash}PCM.CLK*%
X121070000Y-46230000D03*
%TO.N,/GPIO27*%
X123610000Y-48770000D03*
%TO.N,GND*%
X123610000Y-46230000D03*
%TO.N,/GPIO22*%
X126150000Y-48770000D03*
%TO.N,/GPIO23*%
X126150000Y-46230000D03*
%TO.N,+3V3*%
X128690000Y-48770000D03*
%TO.N,/GPIO24*%
X128690000Y-46230000D03*
%TO.N,/GPIO10{slash}SPI0.MOSI*%
X131230000Y-48770000D03*
%TO.N,GND*%
X131230000Y-46230000D03*
%TO.N,/GPIO9{slash}SPI0.MISO*%
X133770000Y-48770000D03*
%TO.N,/GPIO25*%
X133770000Y-46230000D03*
%TO.N,/GPIO11{slash}SPI0.SCLK*%
X136310000Y-48770000D03*
%TO.N,/GPIO8{slash}SPI0.CE0*%
X136310000Y-46230000D03*
%TO.N,GND*%
X138850000Y-48770000D03*
%TO.N,/GPIO7{slash}SPI0.CE1*%
X138850000Y-46230000D03*
%TO.N,/ID_SDA*%
X141390000Y-48770000D03*
%TO.N,/ID_SCL*%
X141390000Y-46230000D03*
%TO.N,/GPIO5*%
X143930000Y-48770000D03*
%TO.N,GND*%
X143930000Y-46230000D03*
%TO.N,/GPIO6*%
X146470000Y-48770000D03*
%TO.N,/GPIO12{slash}PWM0*%
X146470000Y-46230000D03*
%TO.N,/GPIO13{slash}PWM1*%
X149010000Y-48770000D03*
%TO.N,GND*%
X149010000Y-46230000D03*
%TO.N,/GPIO19{slash}PCM.FS*%
X151550000Y-48770000D03*
%TO.N,/GPIO16*%
X151550000Y-46230000D03*
%TO.N,/GPIO26*%
X154090000Y-48770000D03*
%TO.N,/GPIO20{slash}PCM.DIN*%
X154090000Y-46230000D03*
%TO.N,GND*%
X156630000Y-48770000D03*
%TO.N,/GPIO21{slash}PCM.DOUT*%
X156630000Y-46230000D03*
%TD*%
D21*
%TO.N,VBUS*%
X102100000Y-71057944D03*
%TO.N,/I2C0_SDA*%
X131700000Y-71900000D03*
%TO.N,/I2C0_SCL*%
X130300000Y-72427000D03*
%TO.N,Net-(U3-ECHO)*%
X111700000Y-89000000D03*
%TD*%
M02*
