M48
; DRILL file {KiCad 9.0.6-9.0.6~ubuntu24.04.1} date 2025-12-22T14:00:27-0600
; FORMAT={-:-/ absolute / metric / decimal}
; #@! TF.CreationDate,2025-12-22T14:00:27-06:00
; #@! TF.GenerationSoftware,Kicad,Pcbnew,9.0.6-9.0.6~ubuntu24.04.1
; #@! TF.FileFunction,Plated,1,4,PTH
FMAT,2
METRIC
; #@! TA.AperFunction,Plated,PTH,ViaDrill
T1C0.300
; #@! TA.AperFunction,Plated,PTH,ComponentDrill
T2C0.800
; #@! TA.AperFunction,Plated,PTH,ComponentDrill
T3C0.900
; #@! TA.AperFunction,Plated,PTH,ComponentDrill
T4C1.000
; #@! TA.AperFunction,Plated,PTH,ComponentDrill
T5C1.020
; #@! TA.AperFunction,Plated,PTH,ComponentDrill
T6C1.100
%
G90
G05
T1
X102.1Y-71.058
X111.7Y-89.0
X130.3Y-72.427
X131.7Y-71.9
T2
X116.78Y-90.775
X116.78Y-93.925
X116.78Y-97.1
X124.4Y-90.775
X124.4Y-93.925
X124.4Y-97.1
X130.11Y-58.7
X135.11Y-58.7
X137.211Y-85.141
X137.211Y-92.761
X140.386Y-85.141
X140.386Y-92.761
X143.561Y-85.141
X143.561Y-92.761
T3
X127.559Y-87.3
X129.718Y-87.3
X131.877Y-87.3
X134.036Y-87.3
T4
X75.2Y-95.7
X77.7Y-95.7
X82.97Y-46.221
X82.97Y-97.804
X85.51Y-46.221
X85.51Y-97.804
X88.05Y-46.221
X88.05Y-97.804
X90.59Y-46.221
X90.59Y-97.804
X90.72Y-62.95
X90.72Y-65.49
X90.72Y-68.03
X90.72Y-70.57
X90.72Y-73.11
X90.72Y-75.65
X90.72Y-78.19
X90.72Y-80.73
X93.13Y-46.221
X93.13Y-97.804
X95.67Y-46.221
X95.67Y-53.841
X95.67Y-56.381
X95.67Y-58.921
X95.67Y-61.461
X95.67Y-64.001
X95.67Y-66.541
X95.67Y-69.081
X95.67Y-74.944
X95.67Y-77.484
X95.67Y-80.024
X95.67Y-82.564
X95.67Y-85.104
X95.67Y-87.644
X95.67Y-90.184
X95.67Y-97.804
X108.37Y-46.23
X108.37Y-48.77
X108.37Y-53.841
X108.37Y-56.381
X108.37Y-58.921
X108.37Y-61.461
X108.37Y-64.001
X108.37Y-66.541
X108.37Y-69.081
X108.37Y-74.944
X108.37Y-77.484
X108.37Y-80.024
X108.37Y-82.564
X108.37Y-85.104
X108.37Y-87.644
X108.37Y-90.184
X110.91Y-46.23
X110.91Y-48.77
X113.45Y-46.23
X113.45Y-48.77
X114.87Y-63.11
X114.87Y-80.89
X115.99Y-46.23
X115.99Y-48.77
X117.41Y-63.11
X117.41Y-80.89
X118.53Y-46.23
X118.53Y-48.77
X119.95Y-63.11
X119.95Y-80.89
X121.07Y-46.23
X121.07Y-48.77
X122.49Y-63.11
X122.49Y-80.89
X123.61Y-46.23
X123.61Y-48.77
X125.03Y-63.11
X125.03Y-80.89
X126.15Y-46.23
X126.15Y-48.77
X127.57Y-63.11
X127.57Y-80.89
X128.69Y-46.23
X128.69Y-48.77
X130.11Y-63.11
X130.11Y-80.89
X131.23Y-46.23
X131.23Y-48.77
X132.65Y-63.11
X132.65Y-80.89
X133.77Y-46.23
X133.77Y-48.77
X135.19Y-63.11
X135.19Y-80.89
X136.31Y-46.23
X136.31Y-48.77
X137.73Y-63.11
X137.73Y-80.89
X138.85Y-46.23
X138.85Y-48.77
X140.27Y-53.841
X140.27Y-63.11
X140.27Y-80.89
X141.39Y-46.23
X141.39Y-48.77
X142.81Y-53.841
X142.81Y-63.11
X142.81Y-80.89
X143.93Y-46.23
X143.93Y-48.77
X145.35Y-53.841
X145.35Y-63.11
X145.35Y-80.89
X146.47Y-46.23
X146.47Y-48.77
X147.89Y-53.841
X147.89Y-63.11
X147.89Y-80.89
X149.01Y-46.23
X149.01Y-48.77
X150.43Y-53.841
X150.43Y-63.11
X150.43Y-80.89
X151.55Y-46.23
X151.55Y-48.77
X152.97Y-53.841
X152.97Y-63.11
X152.97Y-80.89
X154.09Y-46.23
X154.09Y-48.77
X155.51Y-53.841
X155.51Y-63.11
X155.51Y-80.89
X156.63Y-46.23
X156.63Y-48.77
X158.05Y-53.841
X158.05Y-63.11
X158.05Y-80.89
X160.59Y-53.841
X160.59Y-63.11
X160.59Y-80.89
X160.59Y-85.97
X160.59Y-88.51
X163.13Y-53.841
X163.13Y-63.11
X163.13Y-80.89
X163.13Y-85.97
X163.13Y-88.51
T5
X73.81Y-68.19
X73.81Y-70.73
X73.81Y-73.27
X73.81Y-75.81
T6
X127.155Y-92.579
X127.155Y-97.079
X133.655Y-92.579
X133.655Y-97.079
M30
