%TF.GenerationSoftware,KiCad,Pcbnew,9.0.6-9.0.6~ubuntu24.04.1*%
%TF.CreationDate,2025-12-22T13:59:23-06:00*%
%TF.ProjectId,homer_thalamus,686f6d65-725f-4746-9861-6c616d75732e,rev?*%
%TF.SameCoordinates,Original*%
%TF.FileFunction,Soldermask,Bot*%
%TF.FilePolarity,Negative*%
%FSLAX46Y46*%
G04 Gerber Fmt 4.6, Leading zero omitted, Abs format (unit mm)*
G04 Created by KiCad (PCBNEW 9.0.6-9.0.6~ubuntu24.04.1) date 2025-12-22 13:59:23*
%MOMM*%
%LPD*%
G01*
G04 APERTURE LIST*
G04 APERTURE END LIST*
G36*
X83820000Y-98654000D02*
G01*
X82120000Y-98654000D01*
X82120000Y-96954000D01*
X83820000Y-96954000D01*
X83820000Y-98654000D01*
G37*
G36*
X85756742Y-96990601D02*
G01*
X85910687Y-97054367D01*
X86049234Y-97146941D01*
X86167059Y-97264766D01*
X86259633Y-97403313D01*
X86323399Y-97557258D01*
X86355907Y-97720685D01*
X86355907Y-97887315D01*
X86323399Y-98050742D01*
X86259633Y-98204687D01*
X86167059Y-98343234D01*
X86049234Y-98461059D01*
X85910687Y-98553633D01*
X85756742Y-98617399D01*
X85593315Y-98649907D01*
X85426685Y-98649907D01*
X85263258Y-98617399D01*
X85109313Y-98553633D01*
X84970766Y-98461059D01*
X84852941Y-98343234D01*
X84760367Y-98204687D01*
X84696601Y-98050742D01*
X84664093Y-97887315D01*
X84664093Y-97720685D01*
X84696601Y-97557258D01*
X84760367Y-97403313D01*
X84852941Y-97264766D01*
X84970766Y-97146941D01*
X85109313Y-97054367D01*
X85263258Y-96990601D01*
X85426685Y-96958093D01*
X85593315Y-96958093D01*
X85756742Y-96990601D01*
G37*
G36*
X88296742Y-96990601D02*
G01*
X88450687Y-97054367D01*
X88589234Y-97146941D01*
X88707059Y-97264766D01*
X88799633Y-97403313D01*
X88863399Y-97557258D01*
X88895907Y-97720685D01*
X88895907Y-97887315D01*
X88863399Y-98050742D01*
X88799633Y-98204687D01*
X88707059Y-98343234D01*
X88589234Y-98461059D01*
X88450687Y-98553633D01*
X88296742Y-98617399D01*
X88133315Y-98649907D01*
X87966685Y-98649907D01*
X87803258Y-98617399D01*
X87649313Y-98553633D01*
X87510766Y-98461059D01*
X87392941Y-98343234D01*
X87300367Y-98204687D01*
X87236601Y-98050742D01*
X87204093Y-97887315D01*
X87204093Y-97720685D01*
X87236601Y-97557258D01*
X87300367Y-97403313D01*
X87392941Y-97264766D01*
X87510766Y-97146941D01*
X87649313Y-97054367D01*
X87803258Y-96990601D01*
X87966685Y-96958093D01*
X88133315Y-96958093D01*
X88296742Y-96990601D01*
G37*
G36*
X90836742Y-96990601D02*
G01*
X90990687Y-97054367D01*
X91129234Y-97146941D01*
X91247059Y-97264766D01*
X91339633Y-97403313D01*
X91403399Y-97557258D01*
X91435907Y-97720685D01*
X91435907Y-97887315D01*
X91403399Y-98050742D01*
X91339633Y-98204687D01*
X91247059Y-98343234D01*
X91129234Y-98461059D01*
X90990687Y-98553633D01*
X90836742Y-98617399D01*
X90673315Y-98649907D01*
X90506685Y-98649907D01*
X90343258Y-98617399D01*
X90189313Y-98553633D01*
X90050766Y-98461059D01*
X89932941Y-98343234D01*
X89840367Y-98204687D01*
X89776601Y-98050742D01*
X89744093Y-97887315D01*
X89744093Y-97720685D01*
X89776601Y-97557258D01*
X89840367Y-97403313D01*
X89932941Y-97264766D01*
X90050766Y-97146941D01*
X90189313Y-97054367D01*
X90343258Y-96990601D01*
X90506685Y-96958093D01*
X90673315Y-96958093D01*
X90836742Y-96990601D01*
G37*
G36*
X93376742Y-96990601D02*
G01*
X93530687Y-97054367D01*
X93669234Y-97146941D01*
X93787059Y-97264766D01*
X93879633Y-97403313D01*
X93943399Y-97557258D01*
X93975907Y-97720685D01*
X93975907Y-97887315D01*
X93943399Y-98050742D01*
X93879633Y-98204687D01*
X93787059Y-98343234D01*
X93669234Y-98461059D01*
X93530687Y-98553633D01*
X93376742Y-98617399D01*
X93213315Y-98649907D01*
X93046685Y-98649907D01*
X92883258Y-98617399D01*
X92729313Y-98553633D01*
X92590766Y-98461059D01*
X92472941Y-98343234D01*
X92380367Y-98204687D01*
X92316601Y-98050742D01*
X92284093Y-97887315D01*
X92284093Y-97720685D01*
X92316601Y-97557258D01*
X92380367Y-97403313D01*
X92472941Y-97264766D01*
X92590766Y-97146941D01*
X92729313Y-97054367D01*
X92883258Y-96990601D01*
X93046685Y-96958093D01*
X93213315Y-96958093D01*
X93376742Y-96990601D01*
G37*
G36*
X95916742Y-96990601D02*
G01*
X96070687Y-97054367D01*
X96209234Y-97146941D01*
X96327059Y-97264766D01*
X96419633Y-97403313D01*
X96483399Y-97557258D01*
X96515907Y-97720685D01*
X96515907Y-97887315D01*
X96483399Y-98050742D01*
X96419633Y-98204687D01*
X96327059Y-98343234D01*
X96209234Y-98461059D01*
X96070687Y-98553633D01*
X95916742Y-98617399D01*
X95753315Y-98649907D01*
X95586685Y-98649907D01*
X95423258Y-98617399D01*
X95269313Y-98553633D01*
X95130766Y-98461059D01*
X95012941Y-98343234D01*
X94920367Y-98204687D01*
X94856601Y-98050742D01*
X94824093Y-97887315D01*
X94824093Y-97720685D01*
X94856601Y-97557258D01*
X94920367Y-97403313D01*
X95012941Y-97264766D01*
X95130766Y-97146941D01*
X95269313Y-97054367D01*
X95423258Y-96990601D01*
X95586685Y-96958093D01*
X95753315Y-96958093D01*
X95916742Y-96990601D01*
G37*
G36*
X127445285Y-96122060D02*
G01*
X127626397Y-96197079D01*
X127789393Y-96305990D01*
X127928010Y-96444607D01*
X128036921Y-96607603D01*
X128111940Y-96788715D01*
X128150185Y-96980983D01*
X128150185Y-97177017D01*
X128111940Y-97369285D01*
X128036921Y-97550397D01*
X127928010Y-97713393D01*
X127789393Y-97852010D01*
X127626397Y-97960921D01*
X127445285Y-98035940D01*
X127253017Y-98074185D01*
X127056983Y-98074185D01*
X126864715Y-98035940D01*
X126683603Y-97960921D01*
X126520607Y-97852010D01*
X126381990Y-97713393D01*
X126273079Y-97550397D01*
X126198060Y-97369285D01*
X126159815Y-97177017D01*
X126159815Y-96980983D01*
X126198060Y-96788715D01*
X126273079Y-96607603D01*
X126381990Y-96444607D01*
X126520607Y-96305990D01*
X126683603Y-96197079D01*
X126864715Y-96122060D01*
X127056983Y-96083815D01*
X127253017Y-96083815D01*
X127445285Y-96122060D01*
G37*
G36*
X133945285Y-96122060D02*
G01*
X134126397Y-96197079D01*
X134289393Y-96305990D01*
X134428010Y-96444607D01*
X134536921Y-96607603D01*
X134611940Y-96788715D01*
X134650185Y-96980983D01*
X134650185Y-97177017D01*
X134611940Y-97369285D01*
X134536921Y-97550397D01*
X134428010Y-97713393D01*
X134289393Y-97852010D01*
X134126397Y-97960921D01*
X133945285Y-98035940D01*
X133753017Y-98074185D01*
X133556983Y-98074185D01*
X133364715Y-98035940D01*
X133183603Y-97960921D01*
X133020607Y-97852010D01*
X132881990Y-97713393D01*
X132773079Y-97550397D01*
X132698060Y-97369285D01*
X132659815Y-97177017D01*
X132659815Y-96980983D01*
X132698060Y-96788715D01*
X132773079Y-96607603D01*
X132881990Y-96444607D01*
X133020607Y-96305990D01*
X133183603Y-96197079D01*
X133364715Y-96122060D01*
X133556983Y-96083815D01*
X133753017Y-96083815D01*
X133945285Y-96122060D01*
G37*
G36*
X117012228Y-96334448D02*
G01*
X117157117Y-96394463D01*
X117287515Y-96481592D01*
X117398408Y-96592485D01*
X117485537Y-96722883D01*
X117545552Y-96867772D01*
X117576148Y-97021586D01*
X117576148Y-97178414D01*
X117545552Y-97332228D01*
X117485537Y-97477117D01*
X117398408Y-97607515D01*
X117287515Y-97718408D01*
X117157117Y-97805537D01*
X117012228Y-97865552D01*
X116858414Y-97896148D01*
X116701586Y-97896148D01*
X116547772Y-97865552D01*
X116402883Y-97805537D01*
X116272485Y-97718408D01*
X116161592Y-97607515D01*
X116074463Y-97477117D01*
X116014448Y-97332228D01*
X115983852Y-97178414D01*
X115983852Y-97021586D01*
X116014448Y-96867772D01*
X116074463Y-96722883D01*
X116161592Y-96592485D01*
X116272485Y-96481592D01*
X116402883Y-96394463D01*
X116547772Y-96334448D01*
X116701586Y-96303852D01*
X116858414Y-96303852D01*
X117012228Y-96334448D01*
G37*
G36*
X124632228Y-96334448D02*
G01*
X124777117Y-96394463D01*
X124907515Y-96481592D01*
X125018408Y-96592485D01*
X125105537Y-96722883D01*
X125165552Y-96867772D01*
X125196148Y-97021586D01*
X125196148Y-97178414D01*
X125165552Y-97332228D01*
X125105537Y-97477117D01*
X125018408Y-97607515D01*
X124907515Y-97718408D01*
X124777117Y-97805537D01*
X124632228Y-97865552D01*
X124478414Y-97896148D01*
X124321586Y-97896148D01*
X124167772Y-97865552D01*
X124022883Y-97805537D01*
X123892485Y-97718408D01*
X123781592Y-97607515D01*
X123694463Y-97477117D01*
X123634448Y-97332228D01*
X123603852Y-97178414D01*
X123603852Y-97021586D01*
X123634448Y-96867772D01*
X123694463Y-96722883D01*
X123781592Y-96592485D01*
X123892485Y-96481592D01*
X124022883Y-96394463D01*
X124167772Y-96334448D01*
X124321586Y-96303852D01*
X124478414Y-96303852D01*
X124632228Y-96334448D01*
G37*
G36*
X103815151Y-95187301D02*
G01*
X104016623Y-95252763D01*
X104205373Y-95348936D01*
X104376755Y-95473452D01*
X104526548Y-95623245D01*
X104651064Y-95794627D01*
X104747237Y-95983377D01*
X104812699Y-96184849D01*
X104845838Y-96394080D01*
X104845838Y-96605920D01*
X104812699Y-96815151D01*
X104747237Y-97016623D01*
X104651064Y-97205373D01*
X104526548Y-97376755D01*
X104376755Y-97526548D01*
X104205373Y-97651064D01*
X104016623Y-97747237D01*
X103815151Y-97812699D01*
X103605920Y-97845838D01*
X103394080Y-97845838D01*
X103184849Y-97812699D01*
X102983377Y-97747237D01*
X102794627Y-97651064D01*
X102623245Y-97526548D01*
X102473452Y-97376755D01*
X102348936Y-97205373D01*
X102252763Y-97016623D01*
X102187301Y-96815151D01*
X102154162Y-96605920D01*
X102154162Y-96394080D01*
X102187301Y-96184849D01*
X102252763Y-95983377D01*
X102348936Y-95794627D01*
X102473452Y-95623245D01*
X102623245Y-95473452D01*
X102794627Y-95348936D01*
X102983377Y-95252763D01*
X103184849Y-95187301D01*
X103394080Y-95154162D01*
X103605920Y-95154162D01*
X103815151Y-95187301D01*
G37*
G36*
X161815151Y-95187301D02*
G01*
X162016623Y-95252763D01*
X162205373Y-95348936D01*
X162376755Y-95473452D01*
X162526548Y-95623245D01*
X162651064Y-95794627D01*
X162747237Y-95983377D01*
X162812699Y-96184849D01*
X162845838Y-96394080D01*
X162845838Y-96605920D01*
X162812699Y-96815151D01*
X162747237Y-97016623D01*
X162651064Y-97205373D01*
X162526548Y-97376755D01*
X162376755Y-97526548D01*
X162205373Y-97651064D01*
X162016623Y-97747237D01*
X161815151Y-97812699D01*
X161605920Y-97845838D01*
X161394080Y-97845838D01*
X161184849Y-97812699D01*
X160983377Y-97747237D01*
X160794627Y-97651064D01*
X160623245Y-97526548D01*
X160473452Y-97376755D01*
X160348936Y-97205373D01*
X160252763Y-97016623D01*
X160187301Y-96815151D01*
X160154162Y-96605920D01*
X160154162Y-96394080D01*
X160187301Y-96184849D01*
X160252763Y-95983377D01*
X160348936Y-95794627D01*
X160473452Y-95623245D01*
X160623245Y-95473452D01*
X160794627Y-95348936D01*
X160983377Y-95252763D01*
X161184849Y-95187301D01*
X161394080Y-95154162D01*
X161605920Y-95154162D01*
X161815151Y-95187301D01*
G37*
G36*
X75804850Y-94700964D02*
G01*
X75855040Y-94706787D01*
X75872189Y-94714359D01*
X75895671Y-94719030D01*
X75920810Y-94735827D01*
X75940696Y-94744608D01*
X75954277Y-94758189D01*
X75976777Y-94773223D01*
X75991810Y-94795722D01*
X76005391Y-94809303D01*
X76014170Y-94829186D01*
X76030970Y-94854329D01*
X76035641Y-94877812D01*
X76043212Y-94894959D01*
X76049033Y-94945139D01*
X76050000Y-94950000D01*
X76050000Y-96450000D01*
X76049032Y-96454863D01*
X76043212Y-96505040D01*
X76035641Y-96522185D01*
X76030970Y-96545671D01*
X76014169Y-96570815D01*
X76005391Y-96590696D01*
X75991812Y-96604274D01*
X75976777Y-96626777D01*
X75954274Y-96641812D01*
X75940696Y-96655391D01*
X75920815Y-96664169D01*
X75895671Y-96680970D01*
X75872185Y-96685641D01*
X75855040Y-96693212D01*
X75804861Y-96699032D01*
X75800000Y-96700000D01*
X74600000Y-96700000D01*
X74595138Y-96699032D01*
X74544959Y-96693212D01*
X74527812Y-96685641D01*
X74504329Y-96680970D01*
X74479186Y-96664170D01*
X74459303Y-96655391D01*
X74445722Y-96641810D01*
X74423223Y-96626777D01*
X74408189Y-96604277D01*
X74394608Y-96590696D01*
X74385827Y-96570810D01*
X74369030Y-96545671D01*
X74364359Y-96522189D01*
X74356787Y-96505040D01*
X74350964Y-96454849D01*
X74350000Y-96450000D01*
X74350000Y-94950000D01*
X74350964Y-94945150D01*
X74356787Y-94894959D01*
X74364359Y-94877808D01*
X74369030Y-94854329D01*
X74385826Y-94829191D01*
X74394608Y-94809303D01*
X74408191Y-94795719D01*
X74423223Y-94773223D01*
X74445719Y-94758191D01*
X74459303Y-94744608D01*
X74479191Y-94735826D01*
X74504329Y-94719030D01*
X74527808Y-94714359D01*
X74544959Y-94706787D01*
X74595151Y-94700964D01*
X74600000Y-94700000D01*
X75800000Y-94700000D01*
X75804850Y-94700964D01*
G37*
G36*
X77946742Y-94736601D02*
G01*
X78100687Y-94800367D01*
X78239234Y-94892941D01*
X78357059Y-95010766D01*
X78449633Y-95149313D01*
X78513399Y-95303258D01*
X78545907Y-95466685D01*
X78550000Y-95550000D01*
X78550000Y-95850000D01*
X78545907Y-95933315D01*
X78513399Y-96096742D01*
X78449633Y-96250687D01*
X78357059Y-96389234D01*
X78239234Y-96507059D01*
X78100687Y-96599633D01*
X77946742Y-96663399D01*
X77783315Y-96695907D01*
X77616685Y-96695907D01*
X77453258Y-96663399D01*
X77299313Y-96599633D01*
X77160766Y-96507059D01*
X77042941Y-96389234D01*
X76950367Y-96250687D01*
X76886601Y-96096742D01*
X76854093Y-95933315D01*
X76850000Y-95850000D01*
X76850000Y-95550000D01*
X76854093Y-95466685D01*
X76886601Y-95303258D01*
X76950367Y-95149313D01*
X77042941Y-95010766D01*
X77160766Y-94892941D01*
X77299313Y-94800367D01*
X77453258Y-94736601D01*
X77616685Y-94704093D01*
X77783315Y-94704093D01*
X77946742Y-94736601D01*
G37*
G36*
X117012228Y-93159448D02*
G01*
X117157117Y-93219463D01*
X117287515Y-93306592D01*
X117398408Y-93417485D01*
X117485537Y-93547883D01*
X117545552Y-93692772D01*
X117576148Y-93846586D01*
X117576148Y-94003414D01*
X117545552Y-94157228D01*
X117485537Y-94302117D01*
X117398408Y-94432515D01*
X117287515Y-94543408D01*
X117157117Y-94630537D01*
X117012228Y-94690552D01*
X116858414Y-94721148D01*
X116701586Y-94721148D01*
X116547772Y-94690552D01*
X116402883Y-94630537D01*
X116272485Y-94543408D01*
X116161592Y-94432515D01*
X116074463Y-94302117D01*
X116014448Y-94157228D01*
X115983852Y-94003414D01*
X115983852Y-93846586D01*
X116014448Y-93692772D01*
X116074463Y-93547883D01*
X116161592Y-93417485D01*
X116272485Y-93306592D01*
X116402883Y-93219463D01*
X116547772Y-93159448D01*
X116701586Y-93128852D01*
X116858414Y-93128852D01*
X117012228Y-93159448D01*
G37*
G36*
X124632228Y-93159448D02*
G01*
X124777117Y-93219463D01*
X124907515Y-93306592D01*
X125018408Y-93417485D01*
X125105537Y-93547883D01*
X125165552Y-93692772D01*
X125196148Y-93846586D01*
X125196148Y-94003414D01*
X125165552Y-94157228D01*
X125105537Y-94302117D01*
X125018408Y-94432515D01*
X124907515Y-94543408D01*
X124777117Y-94630537D01*
X124632228Y-94690552D01*
X124478414Y-94721148D01*
X124321586Y-94721148D01*
X124167772Y-94690552D01*
X124022883Y-94630537D01*
X123892485Y-94543408D01*
X123781592Y-94432515D01*
X123694463Y-94302117D01*
X123634448Y-94157228D01*
X123603852Y-94003414D01*
X123603852Y-93846586D01*
X123634448Y-93692772D01*
X123694463Y-93547883D01*
X123781592Y-93417485D01*
X123892485Y-93306592D01*
X124022883Y-93219463D01*
X124167772Y-93159448D01*
X124321586Y-93128852D01*
X124478414Y-93128852D01*
X124632228Y-93159448D01*
G37*
G36*
X127445285Y-91622060D02*
G01*
X127626397Y-91697079D01*
X127789393Y-91805990D01*
X127928010Y-91944607D01*
X128036921Y-92107603D01*
X128111940Y-92288715D01*
X128150185Y-92480983D01*
X128150185Y-92677017D01*
X128111940Y-92869285D01*
X128036921Y-93050397D01*
X127928010Y-93213393D01*
X127789393Y-93352010D01*
X127626397Y-93460921D01*
X127445285Y-93535940D01*
X127253017Y-93574185D01*
X127056983Y-93574185D01*
X126864715Y-93535940D01*
X126683603Y-93460921D01*
X126520607Y-93352010D01*
X126381990Y-93213393D01*
X126273079Y-93050397D01*
X126198060Y-92869285D01*
X126159815Y-92677017D01*
X126159815Y-92480983D01*
X126198060Y-92288715D01*
X126273079Y-92107603D01*
X126381990Y-91944607D01*
X126520607Y-91805990D01*
X126683603Y-91697079D01*
X126864715Y-91622060D01*
X127056983Y-91583815D01*
X127253017Y-91583815D01*
X127445285Y-91622060D01*
G37*
G36*
X133945285Y-91622060D02*
G01*
X134126397Y-91697079D01*
X134289393Y-91805990D01*
X134428010Y-91944607D01*
X134536921Y-92107603D01*
X134611940Y-92288715D01*
X134650185Y-92480983D01*
X134650185Y-92677017D01*
X134611940Y-92869285D01*
X134536921Y-93050397D01*
X134428010Y-93213393D01*
X134289393Y-93352010D01*
X134126397Y-93460921D01*
X133945285Y-93535940D01*
X133753017Y-93574185D01*
X133556983Y-93574185D01*
X133364715Y-93535940D01*
X133183603Y-93460921D01*
X133020607Y-93352010D01*
X132881990Y-93213393D01*
X132773079Y-93050397D01*
X132698060Y-92869285D01*
X132659815Y-92677017D01*
X132659815Y-92480983D01*
X132698060Y-92288715D01*
X132773079Y-92107603D01*
X132881990Y-91944607D01*
X133020607Y-91805990D01*
X133183603Y-91697079D01*
X133364715Y-91622060D01*
X133556983Y-91583815D01*
X133753017Y-91583815D01*
X133945285Y-91622060D01*
G37*
G36*
X137443228Y-91995448D02*
G01*
X137588117Y-92055463D01*
X137718515Y-92142592D01*
X137829408Y-92253485D01*
X137916537Y-92383883D01*
X137976552Y-92528772D01*
X138007148Y-92682586D01*
X138007148Y-92839414D01*
X137976552Y-92993228D01*
X137916537Y-93138117D01*
X137829408Y-93268515D01*
X137718515Y-93379408D01*
X137588117Y-93466537D01*
X137443228Y-93526552D01*
X137289414Y-93557148D01*
X137132586Y-93557148D01*
X136978772Y-93526552D01*
X136833883Y-93466537D01*
X136703485Y-93379408D01*
X136592592Y-93268515D01*
X136505463Y-93138117D01*
X136445448Y-92993228D01*
X136414852Y-92839414D01*
X136414852Y-92682586D01*
X136445448Y-92528772D01*
X136505463Y-92383883D01*
X136592592Y-92253485D01*
X136703485Y-92142592D01*
X136833883Y-92055463D01*
X136978772Y-91995448D01*
X137132586Y-91964852D01*
X137289414Y-91964852D01*
X137443228Y-91995448D01*
G37*
G36*
X140618228Y-91995448D02*
G01*
X140763117Y-92055463D01*
X140893515Y-92142592D01*
X141004408Y-92253485D01*
X141091537Y-92383883D01*
X141151552Y-92528772D01*
X141182148Y-92682586D01*
X141182148Y-92839414D01*
X141151552Y-92993228D01*
X141091537Y-93138117D01*
X141004408Y-93268515D01*
X140893515Y-93379408D01*
X140763117Y-93466537D01*
X140618228Y-93526552D01*
X140464414Y-93557148D01*
X140307586Y-93557148D01*
X140153772Y-93526552D01*
X140008883Y-93466537D01*
X139878485Y-93379408D01*
X139767592Y-93268515D01*
X139680463Y-93138117D01*
X139620448Y-92993228D01*
X139589852Y-92839414D01*
X139589852Y-92682586D01*
X139620448Y-92528772D01*
X139680463Y-92383883D01*
X139767592Y-92253485D01*
X139878485Y-92142592D01*
X140008883Y-92055463D01*
X140153772Y-91995448D01*
X140307586Y-91964852D01*
X140464414Y-91964852D01*
X140618228Y-91995448D01*
G37*
G36*
X143793228Y-91995448D02*
G01*
X143938117Y-92055463D01*
X144068515Y-92142592D01*
X144179408Y-92253485D01*
X144266537Y-92383883D01*
X144326552Y-92528772D01*
X144357148Y-92682586D01*
X144357148Y-92839414D01*
X144326552Y-92993228D01*
X144266537Y-93138117D01*
X144179408Y-93268515D01*
X144068515Y-93379408D01*
X143938117Y-93466537D01*
X143793228Y-93526552D01*
X143639414Y-93557148D01*
X143482586Y-93557148D01*
X143328772Y-93526552D01*
X143183883Y-93466537D01*
X143053485Y-93379408D01*
X142942592Y-93268515D01*
X142855463Y-93138117D01*
X142795448Y-92993228D01*
X142764852Y-92839414D01*
X142764852Y-92682586D01*
X142795448Y-92528772D01*
X142855463Y-92383883D01*
X142942592Y-92253485D01*
X143053485Y-92142592D01*
X143183883Y-92055463D01*
X143328772Y-91995448D01*
X143482586Y-91964852D01*
X143639414Y-91964852D01*
X143793228Y-91995448D01*
G37*
G36*
X117012228Y-90009848D02*
G01*
X117157117Y-90069863D01*
X117287515Y-90156992D01*
X117398408Y-90267885D01*
X117485537Y-90398283D01*
X117545552Y-90543172D01*
X117576148Y-90696986D01*
X117576148Y-90853814D01*
X117545552Y-91007628D01*
X117485537Y-91152517D01*
X117398408Y-91282915D01*
X117287515Y-91393808D01*
X117157117Y-91480937D01*
X117012228Y-91540952D01*
X116858414Y-91571548D01*
X116701586Y-91571548D01*
X116547772Y-91540952D01*
X116402883Y-91480937D01*
X116272485Y-91393808D01*
X116161592Y-91282915D01*
X116074463Y-91152517D01*
X116014448Y-91007628D01*
X115983852Y-90853814D01*
X115983852Y-90696986D01*
X116014448Y-90543172D01*
X116074463Y-90398283D01*
X116161592Y-90267885D01*
X116272485Y-90156992D01*
X116402883Y-90069863D01*
X116547772Y-90009848D01*
X116701586Y-89979252D01*
X116858414Y-89979252D01*
X117012228Y-90009848D01*
G37*
G36*
X124632228Y-90009848D02*
G01*
X124777117Y-90069863D01*
X124907515Y-90156992D01*
X125018408Y-90267885D01*
X125105537Y-90398283D01*
X125165552Y-90543172D01*
X125196148Y-90696986D01*
X125196148Y-90853814D01*
X125165552Y-91007628D01*
X125105537Y-91152517D01*
X125018408Y-91282915D01*
X124907515Y-91393808D01*
X124777117Y-91480937D01*
X124632228Y-91540952D01*
X124478414Y-91571548D01*
X124321586Y-91571548D01*
X124167772Y-91540952D01*
X124022883Y-91480937D01*
X123892485Y-91393808D01*
X123781592Y-91282915D01*
X123694463Y-91152517D01*
X123634448Y-91007628D01*
X123603852Y-90853814D01*
X123603852Y-90696986D01*
X123634448Y-90543172D01*
X123694463Y-90398283D01*
X123781592Y-90267885D01*
X123892485Y-90156992D01*
X124022883Y-90069863D01*
X124167772Y-90009848D01*
X124321586Y-89979252D01*
X124478414Y-89979252D01*
X124632228Y-90009848D01*
G37*
G36*
X95916742Y-89370601D02*
G01*
X96070687Y-89434367D01*
X96209234Y-89526941D01*
X96327059Y-89644766D01*
X96419633Y-89783313D01*
X96483399Y-89937258D01*
X96515907Y-90100685D01*
X96515907Y-90267315D01*
X96483399Y-90430742D01*
X96419633Y-90584687D01*
X96327059Y-90723234D01*
X96209234Y-90841059D01*
X96070687Y-90933633D01*
X95916742Y-90997399D01*
X95753315Y-91029907D01*
X95586685Y-91029907D01*
X95423258Y-90997399D01*
X95269313Y-90933633D01*
X95130766Y-90841059D01*
X95012941Y-90723234D01*
X94920367Y-90584687D01*
X94856601Y-90430742D01*
X94824093Y-90267315D01*
X94824093Y-90100685D01*
X94856601Y-89937258D01*
X94920367Y-89783313D01*
X95012941Y-89644766D01*
X95130766Y-89526941D01*
X95269313Y-89434367D01*
X95423258Y-89370601D01*
X95586685Y-89338093D01*
X95753315Y-89338093D01*
X95916742Y-89370601D01*
G37*
G36*
X108616742Y-89370601D02*
G01*
X108770687Y-89434367D01*
X108909234Y-89526941D01*
X109027059Y-89644766D01*
X109119633Y-89783313D01*
X109183399Y-89937258D01*
X109215907Y-90100685D01*
X109215907Y-90267315D01*
X109183399Y-90430742D01*
X109119633Y-90584687D01*
X109027059Y-90723234D01*
X108909234Y-90841059D01*
X108770687Y-90933633D01*
X108616742Y-90997399D01*
X108453315Y-91029907D01*
X108286685Y-91029907D01*
X108123258Y-90997399D01*
X107969313Y-90933633D01*
X107830766Y-90841059D01*
X107712941Y-90723234D01*
X107620367Y-90584687D01*
X107556601Y-90430742D01*
X107524093Y-90267315D01*
X107524093Y-90100685D01*
X107556601Y-89937258D01*
X107620367Y-89783313D01*
X107712941Y-89644766D01*
X107830766Y-89526941D01*
X107969313Y-89434367D01*
X108123258Y-89370601D01*
X108286685Y-89338093D01*
X108453315Y-89338093D01*
X108616742Y-89370601D01*
G37*
G36*
X160836742Y-87696601D02*
G01*
X160990687Y-87760367D01*
X161129234Y-87852941D01*
X161247059Y-87970766D01*
X161339633Y-88109313D01*
X161403399Y-88263258D01*
X161435907Y-88426685D01*
X161435907Y-88593315D01*
X161403399Y-88756742D01*
X161339633Y-88910687D01*
X161247059Y-89049234D01*
X161129234Y-89167059D01*
X160990687Y-89259633D01*
X160836742Y-89323399D01*
X160673315Y-89355907D01*
X160506685Y-89355907D01*
X160343258Y-89323399D01*
X160189313Y-89259633D01*
X160050766Y-89167059D01*
X159932941Y-89049234D01*
X159840367Y-88910687D01*
X159776601Y-88756742D01*
X159744093Y-88593315D01*
X159744093Y-88426685D01*
X159776601Y-88263258D01*
X159840367Y-88109313D01*
X159932941Y-87970766D01*
X160050766Y-87852941D01*
X160189313Y-87760367D01*
X160343258Y-87696601D01*
X160506685Y-87664093D01*
X160673315Y-87664093D01*
X160836742Y-87696601D01*
G37*
G36*
X163376742Y-87696601D02*
G01*
X163530687Y-87760367D01*
X163669234Y-87852941D01*
X163787059Y-87970766D01*
X163879633Y-88109313D01*
X163943399Y-88263258D01*
X163975907Y-88426685D01*
X163975907Y-88593315D01*
X163943399Y-88756742D01*
X163879633Y-88910687D01*
X163787059Y-89049234D01*
X163669234Y-89167059D01*
X163530687Y-89259633D01*
X163376742Y-89323399D01*
X163213315Y-89355907D01*
X163046685Y-89355907D01*
X162883258Y-89323399D01*
X162729313Y-89259633D01*
X162590766Y-89167059D01*
X162472941Y-89049234D01*
X162380367Y-88910687D01*
X162316601Y-88756742D01*
X162284093Y-88593315D01*
X162284093Y-88426685D01*
X162316601Y-88263258D01*
X162380367Y-88109313D01*
X162472941Y-87970766D01*
X162590766Y-87852941D01*
X162729313Y-87760367D01*
X162883258Y-87696601D01*
X163046685Y-87664093D01*
X163213315Y-87664093D01*
X163376742Y-87696601D01*
G37*
G36*
X96520000Y-88494000D02*
G01*
X94820000Y-88494000D01*
X94820000Y-86794000D01*
X96520000Y-86794000D01*
X96520000Y-88494000D01*
G37*
G36*
X109220000Y-88494000D02*
G01*
X107520000Y-88494000D01*
X107520000Y-86794000D01*
X109220000Y-86794000D01*
X109220000Y-88494000D01*
G37*
G36*
X134936000Y-88200000D02*
G01*
X133136000Y-88200000D01*
X133136000Y-86400000D01*
X134936000Y-86400000D01*
X134936000Y-88200000D01*
G37*
G36*
X127820256Y-86438754D02*
G01*
X127983257Y-86506271D01*
X128129954Y-86604291D01*
X128254709Y-86729046D01*
X128352729Y-86875743D01*
X128420246Y-87038744D01*
X128454666Y-87211785D01*
X128454666Y-87388215D01*
X128420246Y-87561256D01*
X128352729Y-87724257D01*
X128254709Y-87870954D01*
X128129954Y-87995709D01*
X127983257Y-88093729D01*
X127820256Y-88161246D01*
X127647215Y-88195666D01*
X127470785Y-88195666D01*
X127297744Y-88161246D01*
X127134743Y-88093729D01*
X126988046Y-87995709D01*
X126863291Y-87870954D01*
X126765271Y-87724257D01*
X126697754Y-87561256D01*
X126663334Y-87388215D01*
X126663334Y-87211785D01*
X126697754Y-87038744D01*
X126765271Y-86875743D01*
X126863291Y-86729046D01*
X126988046Y-86604291D01*
X127134743Y-86506271D01*
X127297744Y-86438754D01*
X127470785Y-86404334D01*
X127647215Y-86404334D01*
X127820256Y-86438754D01*
G37*
G36*
X129979256Y-86438754D02*
G01*
X130142257Y-86506271D01*
X130288954Y-86604291D01*
X130413709Y-86729046D01*
X130511729Y-86875743D01*
X130579246Y-87038744D01*
X130613666Y-87211785D01*
X130613666Y-87388215D01*
X130579246Y-87561256D01*
X130511729Y-87724257D01*
X130413709Y-87870954D01*
X130288954Y-87995709D01*
X130142257Y-88093729D01*
X129979256Y-88161246D01*
X129806215Y-88195666D01*
X129629785Y-88195666D01*
X129456744Y-88161246D01*
X129293743Y-88093729D01*
X129147046Y-87995709D01*
X129022291Y-87870954D01*
X128924271Y-87724257D01*
X128856754Y-87561256D01*
X128822334Y-87388215D01*
X128822334Y-87211785D01*
X128856754Y-87038744D01*
X128924271Y-86875743D01*
X129022291Y-86729046D01*
X129147046Y-86604291D01*
X129293743Y-86506271D01*
X129456744Y-86438754D01*
X129629785Y-86404334D01*
X129806215Y-86404334D01*
X129979256Y-86438754D01*
G37*
G36*
X132138256Y-86438754D02*
G01*
X132301257Y-86506271D01*
X132447954Y-86604291D01*
X132572709Y-86729046D01*
X132670729Y-86875743D01*
X132738246Y-87038744D01*
X132772666Y-87211785D01*
X132772666Y-87388215D01*
X132738246Y-87561256D01*
X132670729Y-87724257D01*
X132572709Y-87870954D01*
X132447954Y-87995709D01*
X132301257Y-88093729D01*
X132138256Y-88161246D01*
X131965215Y-88195666D01*
X131788785Y-88195666D01*
X131615744Y-88161246D01*
X131452743Y-88093729D01*
X131306046Y-87995709D01*
X131181291Y-87870954D01*
X131083271Y-87724257D01*
X131015754Y-87561256D01*
X130981334Y-87388215D01*
X130981334Y-87211785D01*
X131015754Y-87038744D01*
X131083271Y-86875743D01*
X131181291Y-86729046D01*
X131306046Y-86604291D01*
X131452743Y-86506271D01*
X131615744Y-86438754D01*
X131788785Y-86404334D01*
X131965215Y-86404334D01*
X132138256Y-86438754D01*
G37*
G36*
X163980000Y-86820000D02*
G01*
X162280000Y-86820000D01*
X162280000Y-85120000D01*
X163980000Y-85120000D01*
X163980000Y-86820000D01*
G37*
G36*
X160836742Y-85156601D02*
G01*
X160990687Y-85220367D01*
X161129234Y-85312941D01*
X161247059Y-85430766D01*
X161339633Y-85569313D01*
X161403399Y-85723258D01*
X161435907Y-85886685D01*
X161435907Y-86053315D01*
X161403399Y-86216742D01*
X161339633Y-86370687D01*
X161247059Y-86509234D01*
X161129234Y-86627059D01*
X160990687Y-86719633D01*
X160836742Y-86783399D01*
X160673315Y-86815907D01*
X160506685Y-86815907D01*
X160343258Y-86783399D01*
X160189313Y-86719633D01*
X160050766Y-86627059D01*
X159932941Y-86509234D01*
X159840367Y-86370687D01*
X159776601Y-86216742D01*
X159744093Y-86053315D01*
X159744093Y-85886685D01*
X159776601Y-85723258D01*
X159840367Y-85569313D01*
X159932941Y-85430766D01*
X160050766Y-85312941D01*
X160189313Y-85220367D01*
X160343258Y-85156601D01*
X160506685Y-85124093D01*
X160673315Y-85124093D01*
X160836742Y-85156601D01*
G37*
G36*
X95916742Y-84290601D02*
G01*
X96070687Y-84354367D01*
X96209234Y-84446941D01*
X96327059Y-84564766D01*
X96419633Y-84703313D01*
X96483399Y-84857258D01*
X96515907Y-85020685D01*
X96515907Y-85187315D01*
X96483399Y-85350742D01*
X96419633Y-85504687D01*
X96327059Y-85643234D01*
X96209234Y-85761059D01*
X96070687Y-85853633D01*
X95916742Y-85917399D01*
X95753315Y-85949907D01*
X95586685Y-85949907D01*
X95423258Y-85917399D01*
X95269313Y-85853633D01*
X95130766Y-85761059D01*
X95012941Y-85643234D01*
X94920367Y-85504687D01*
X94856601Y-85350742D01*
X94824093Y-85187315D01*
X94824093Y-85020685D01*
X94856601Y-84857258D01*
X94920367Y-84703313D01*
X95012941Y-84564766D01*
X95130766Y-84446941D01*
X95269313Y-84354367D01*
X95423258Y-84290601D01*
X95586685Y-84258093D01*
X95753315Y-84258093D01*
X95916742Y-84290601D01*
G37*
G36*
X108616742Y-84290601D02*
G01*
X108770687Y-84354367D01*
X108909234Y-84446941D01*
X109027059Y-84564766D01*
X109119633Y-84703313D01*
X109183399Y-84857258D01*
X109215907Y-85020685D01*
X109215907Y-85187315D01*
X109183399Y-85350742D01*
X109119633Y-85504687D01*
X109027059Y-85643234D01*
X108909234Y-85761059D01*
X108770687Y-85853633D01*
X108616742Y-85917399D01*
X108453315Y-85949907D01*
X108286685Y-85949907D01*
X108123258Y-85917399D01*
X107969313Y-85853633D01*
X107830766Y-85761059D01*
X107712941Y-85643234D01*
X107620367Y-85504687D01*
X107556601Y-85350742D01*
X107524093Y-85187315D01*
X107524093Y-85020685D01*
X107556601Y-84857258D01*
X107620367Y-84703313D01*
X107712941Y-84564766D01*
X107830766Y-84446941D01*
X107969313Y-84354367D01*
X108123258Y-84290601D01*
X108286685Y-84258093D01*
X108453315Y-84258093D01*
X108616742Y-84290601D01*
G37*
G36*
X137443228Y-84375448D02*
G01*
X137588117Y-84435463D01*
X137718515Y-84522592D01*
X137829408Y-84633485D01*
X137916537Y-84763883D01*
X137976552Y-84908772D01*
X138007148Y-85062586D01*
X138007148Y-85219414D01*
X137976552Y-85373228D01*
X137916537Y-85518117D01*
X137829408Y-85648515D01*
X137718515Y-85759408D01*
X137588117Y-85846537D01*
X137443228Y-85906552D01*
X137289414Y-85937148D01*
X137132586Y-85937148D01*
X136978772Y-85906552D01*
X136833883Y-85846537D01*
X136703485Y-85759408D01*
X136592592Y-85648515D01*
X136505463Y-85518117D01*
X136445448Y-85373228D01*
X136414852Y-85219414D01*
X136414852Y-85062586D01*
X136445448Y-84908772D01*
X136505463Y-84763883D01*
X136592592Y-84633485D01*
X136703485Y-84522592D01*
X136833883Y-84435463D01*
X136978772Y-84375448D01*
X137132586Y-84344852D01*
X137289414Y-84344852D01*
X137443228Y-84375448D01*
G37*
G36*
X140618228Y-84375448D02*
G01*
X140763117Y-84435463D01*
X140893515Y-84522592D01*
X141004408Y-84633485D01*
X141091537Y-84763883D01*
X141151552Y-84908772D01*
X141182148Y-85062586D01*
X141182148Y-85219414D01*
X141151552Y-85373228D01*
X141091537Y-85518117D01*
X141004408Y-85648515D01*
X140893515Y-85759408D01*
X140763117Y-85846537D01*
X140618228Y-85906552D01*
X140464414Y-85937148D01*
X140307586Y-85937148D01*
X140153772Y-85906552D01*
X140008883Y-85846537D01*
X139878485Y-85759408D01*
X139767592Y-85648515D01*
X139680463Y-85518117D01*
X139620448Y-85373228D01*
X139589852Y-85219414D01*
X139589852Y-85062586D01*
X139620448Y-84908772D01*
X139680463Y-84763883D01*
X139767592Y-84633485D01*
X139878485Y-84522592D01*
X140008883Y-84435463D01*
X140153772Y-84375448D01*
X140307586Y-84344852D01*
X140464414Y-84344852D01*
X140618228Y-84375448D01*
G37*
G36*
X143793228Y-84375448D02*
G01*
X143938117Y-84435463D01*
X144068515Y-84522592D01*
X144179408Y-84633485D01*
X144266537Y-84763883D01*
X144326552Y-84908772D01*
X144357148Y-85062586D01*
X144357148Y-85219414D01*
X144326552Y-85373228D01*
X144266537Y-85518117D01*
X144179408Y-85648515D01*
X144068515Y-85759408D01*
X143938117Y-85846537D01*
X143793228Y-85906552D01*
X143639414Y-85937148D01*
X143482586Y-85937148D01*
X143328772Y-85906552D01*
X143183883Y-85846537D01*
X143053485Y-85759408D01*
X142942592Y-85648515D01*
X142855463Y-85518117D01*
X142795448Y-85373228D01*
X142764852Y-85219414D01*
X142764852Y-85062586D01*
X142795448Y-84908772D01*
X142855463Y-84763883D01*
X142942592Y-84633485D01*
X143053485Y-84522592D01*
X143183883Y-84435463D01*
X143328772Y-84375448D01*
X143482586Y-84344852D01*
X143639414Y-84344852D01*
X143793228Y-84375448D01*
G37*
G36*
X95916742Y-81750601D02*
G01*
X96070687Y-81814367D01*
X96209234Y-81906941D01*
X96327059Y-82024766D01*
X96419633Y-82163313D01*
X96483399Y-82317258D01*
X96515907Y-82480685D01*
X96515907Y-82647315D01*
X96483399Y-82810742D01*
X96419633Y-82964687D01*
X96327059Y-83103234D01*
X96209234Y-83221059D01*
X96070687Y-83313633D01*
X95916742Y-83377399D01*
X95753315Y-83409907D01*
X95586685Y-83409907D01*
X95423258Y-83377399D01*
X95269313Y-83313633D01*
X95130766Y-83221059D01*
X95012941Y-83103234D01*
X94920367Y-82964687D01*
X94856601Y-82810742D01*
X94824093Y-82647315D01*
X94824093Y-82480685D01*
X94856601Y-82317258D01*
X94920367Y-82163313D01*
X95012941Y-82024766D01*
X95130766Y-81906941D01*
X95269313Y-81814367D01*
X95423258Y-81750601D01*
X95586685Y-81718093D01*
X95753315Y-81718093D01*
X95916742Y-81750601D01*
G37*
G36*
X108616742Y-81750601D02*
G01*
X108770687Y-81814367D01*
X108909234Y-81906941D01*
X109027059Y-82024766D01*
X109119633Y-82163313D01*
X109183399Y-82317258D01*
X109215907Y-82480685D01*
X109215907Y-82647315D01*
X109183399Y-82810742D01*
X109119633Y-82964687D01*
X109027059Y-83103234D01*
X108909234Y-83221059D01*
X108770687Y-83313633D01*
X108616742Y-83377399D01*
X108453315Y-83409907D01*
X108286685Y-83409907D01*
X108123258Y-83377399D01*
X107969313Y-83313633D01*
X107830766Y-83221059D01*
X107712941Y-83103234D01*
X107620367Y-82964687D01*
X107556601Y-82810742D01*
X107524093Y-82647315D01*
X107524093Y-82480685D01*
X107556601Y-82317258D01*
X107620367Y-82163313D01*
X107712941Y-82024766D01*
X107830766Y-81906941D01*
X107969313Y-81814367D01*
X108123258Y-81750601D01*
X108286685Y-81718093D01*
X108453315Y-81718093D01*
X108616742Y-81750601D01*
G37*
G36*
X120800000Y-81740000D02*
G01*
X119100000Y-81740000D01*
X119100000Y-80040000D01*
X120800000Y-80040000D01*
X120800000Y-81740000D01*
G37*
G36*
X133500000Y-81740000D02*
G01*
X131800000Y-81740000D01*
X131800000Y-80040000D01*
X133500000Y-80040000D01*
X133500000Y-81740000D01*
G37*
G36*
X146200000Y-81740000D02*
G01*
X144500000Y-81740000D01*
X144500000Y-80040000D01*
X146200000Y-80040000D01*
X146200000Y-81740000D01*
G37*
G36*
X158900000Y-81740000D02*
G01*
X157200000Y-81740000D01*
X157200000Y-80040000D01*
X158900000Y-80040000D01*
X158900000Y-81740000D01*
G37*
G36*
X115116742Y-80076601D02*
G01*
X115270687Y-80140367D01*
X115409234Y-80232941D01*
X115527059Y-80350766D01*
X115619633Y-80489313D01*
X115683399Y-80643258D01*
X115715907Y-80806685D01*
X115715907Y-80973315D01*
X115683399Y-81136742D01*
X115619633Y-81290687D01*
X115527059Y-81429234D01*
X115409234Y-81547059D01*
X115270687Y-81639633D01*
X115116742Y-81703399D01*
X114953315Y-81735907D01*
X114786685Y-81735907D01*
X114623258Y-81703399D01*
X114469313Y-81639633D01*
X114330766Y-81547059D01*
X114212941Y-81429234D01*
X114120367Y-81290687D01*
X114056601Y-81136742D01*
X114024093Y-80973315D01*
X114024093Y-80806685D01*
X114056601Y-80643258D01*
X114120367Y-80489313D01*
X114212941Y-80350766D01*
X114330766Y-80232941D01*
X114469313Y-80140367D01*
X114623258Y-80076601D01*
X114786685Y-80044093D01*
X114953315Y-80044093D01*
X115116742Y-80076601D01*
G37*
G36*
X117656742Y-80076601D02*
G01*
X117810687Y-80140367D01*
X117949234Y-80232941D01*
X118067059Y-80350766D01*
X118159633Y-80489313D01*
X118223399Y-80643258D01*
X118255907Y-80806685D01*
X118255907Y-80973315D01*
X118223399Y-81136742D01*
X118159633Y-81290687D01*
X118067059Y-81429234D01*
X117949234Y-81547059D01*
X117810687Y-81639633D01*
X117656742Y-81703399D01*
X117493315Y-81735907D01*
X117326685Y-81735907D01*
X117163258Y-81703399D01*
X117009313Y-81639633D01*
X116870766Y-81547059D01*
X116752941Y-81429234D01*
X116660367Y-81290687D01*
X116596601Y-81136742D01*
X116564093Y-80973315D01*
X116564093Y-80806685D01*
X116596601Y-80643258D01*
X116660367Y-80489313D01*
X116752941Y-80350766D01*
X116870766Y-80232941D01*
X117009313Y-80140367D01*
X117163258Y-80076601D01*
X117326685Y-80044093D01*
X117493315Y-80044093D01*
X117656742Y-80076601D01*
G37*
G36*
X122736742Y-80076601D02*
G01*
X122890687Y-80140367D01*
X123029234Y-80232941D01*
X123147059Y-80350766D01*
X123239633Y-80489313D01*
X123303399Y-80643258D01*
X123335907Y-80806685D01*
X123335907Y-80973315D01*
X123303399Y-81136742D01*
X123239633Y-81290687D01*
X123147059Y-81429234D01*
X123029234Y-81547059D01*
X122890687Y-81639633D01*
X122736742Y-81703399D01*
X122573315Y-81735907D01*
X122406685Y-81735907D01*
X122243258Y-81703399D01*
X122089313Y-81639633D01*
X121950766Y-81547059D01*
X121832941Y-81429234D01*
X121740367Y-81290687D01*
X121676601Y-81136742D01*
X121644093Y-80973315D01*
X121644093Y-80806685D01*
X121676601Y-80643258D01*
X121740367Y-80489313D01*
X121832941Y-80350766D01*
X121950766Y-80232941D01*
X122089313Y-80140367D01*
X122243258Y-80076601D01*
X122406685Y-80044093D01*
X122573315Y-80044093D01*
X122736742Y-80076601D01*
G37*
G36*
X125276742Y-80076601D02*
G01*
X125430687Y-80140367D01*
X125569234Y-80232941D01*
X125687059Y-80350766D01*
X125779633Y-80489313D01*
X125843399Y-80643258D01*
X125875907Y-80806685D01*
X125875907Y-80973315D01*
X125843399Y-81136742D01*
X125779633Y-81290687D01*
X125687059Y-81429234D01*
X125569234Y-81547059D01*
X125430687Y-81639633D01*
X125276742Y-81703399D01*
X125113315Y-81735907D01*
X124946685Y-81735907D01*
X124783258Y-81703399D01*
X124629313Y-81639633D01*
X124490766Y-81547059D01*
X124372941Y-81429234D01*
X124280367Y-81290687D01*
X124216601Y-81136742D01*
X124184093Y-80973315D01*
X124184093Y-80806685D01*
X124216601Y-80643258D01*
X124280367Y-80489313D01*
X124372941Y-80350766D01*
X124490766Y-80232941D01*
X124629313Y-80140367D01*
X124783258Y-80076601D01*
X124946685Y-80044093D01*
X125113315Y-80044093D01*
X125276742Y-80076601D01*
G37*
G36*
X127816742Y-80076601D02*
G01*
X127970687Y-80140367D01*
X128109234Y-80232941D01*
X128227059Y-80350766D01*
X128319633Y-80489313D01*
X128383399Y-80643258D01*
X128415907Y-80806685D01*
X128415907Y-80973315D01*
X128383399Y-81136742D01*
X128319633Y-81290687D01*
X128227059Y-81429234D01*
X128109234Y-81547059D01*
X127970687Y-81639633D01*
X127816742Y-81703399D01*
X127653315Y-81735907D01*
X127486685Y-81735907D01*
X127323258Y-81703399D01*
X127169313Y-81639633D01*
X127030766Y-81547059D01*
X126912941Y-81429234D01*
X126820367Y-81290687D01*
X126756601Y-81136742D01*
X126724093Y-80973315D01*
X126724093Y-80806685D01*
X126756601Y-80643258D01*
X126820367Y-80489313D01*
X126912941Y-80350766D01*
X127030766Y-80232941D01*
X127169313Y-80140367D01*
X127323258Y-80076601D01*
X127486685Y-80044093D01*
X127653315Y-80044093D01*
X127816742Y-80076601D01*
G37*
G36*
X130356742Y-80076601D02*
G01*
X130510687Y-80140367D01*
X130649234Y-80232941D01*
X130767059Y-80350766D01*
X130859633Y-80489313D01*
X130923399Y-80643258D01*
X130955907Y-80806685D01*
X130955907Y-80973315D01*
X130923399Y-81136742D01*
X130859633Y-81290687D01*
X130767059Y-81429234D01*
X130649234Y-81547059D01*
X130510687Y-81639633D01*
X130356742Y-81703399D01*
X130193315Y-81735907D01*
X130026685Y-81735907D01*
X129863258Y-81703399D01*
X129709313Y-81639633D01*
X129570766Y-81547059D01*
X129452941Y-81429234D01*
X129360367Y-81290687D01*
X129296601Y-81136742D01*
X129264093Y-80973315D01*
X129264093Y-80806685D01*
X129296601Y-80643258D01*
X129360367Y-80489313D01*
X129452941Y-80350766D01*
X129570766Y-80232941D01*
X129709313Y-80140367D01*
X129863258Y-80076601D01*
X130026685Y-80044093D01*
X130193315Y-80044093D01*
X130356742Y-80076601D01*
G37*
G36*
X135436742Y-80076601D02*
G01*
X135590687Y-80140367D01*
X135729234Y-80232941D01*
X135847059Y-80350766D01*
X135939633Y-80489313D01*
X136003399Y-80643258D01*
X136035907Y-80806685D01*
X136035907Y-80973315D01*
X136003399Y-81136742D01*
X135939633Y-81290687D01*
X135847059Y-81429234D01*
X135729234Y-81547059D01*
X135590687Y-81639633D01*
X135436742Y-81703399D01*
X135273315Y-81735907D01*
X135106685Y-81735907D01*
X134943258Y-81703399D01*
X134789313Y-81639633D01*
X134650766Y-81547059D01*
X134532941Y-81429234D01*
X134440367Y-81290687D01*
X134376601Y-81136742D01*
X134344093Y-80973315D01*
X134344093Y-80806685D01*
X134376601Y-80643258D01*
X134440367Y-80489313D01*
X134532941Y-80350766D01*
X134650766Y-80232941D01*
X134789313Y-80140367D01*
X134943258Y-80076601D01*
X135106685Y-80044093D01*
X135273315Y-80044093D01*
X135436742Y-80076601D01*
G37*
G36*
X137976742Y-80076601D02*
G01*
X138130687Y-80140367D01*
X138269234Y-80232941D01*
X138387059Y-80350766D01*
X138479633Y-80489313D01*
X138543399Y-80643258D01*
X138575907Y-80806685D01*
X138575907Y-80973315D01*
X138543399Y-81136742D01*
X138479633Y-81290687D01*
X138387059Y-81429234D01*
X138269234Y-81547059D01*
X138130687Y-81639633D01*
X137976742Y-81703399D01*
X137813315Y-81735907D01*
X137646685Y-81735907D01*
X137483258Y-81703399D01*
X137329313Y-81639633D01*
X137190766Y-81547059D01*
X137072941Y-81429234D01*
X136980367Y-81290687D01*
X136916601Y-81136742D01*
X136884093Y-80973315D01*
X136884093Y-80806685D01*
X136916601Y-80643258D01*
X136980367Y-80489313D01*
X137072941Y-80350766D01*
X137190766Y-80232941D01*
X137329313Y-80140367D01*
X137483258Y-80076601D01*
X137646685Y-80044093D01*
X137813315Y-80044093D01*
X137976742Y-80076601D01*
G37*
G36*
X140516742Y-80076601D02*
G01*
X140670687Y-80140367D01*
X140809234Y-80232941D01*
X140927059Y-80350766D01*
X141019633Y-80489313D01*
X141083399Y-80643258D01*
X141115907Y-80806685D01*
X141115907Y-80973315D01*
X141083399Y-81136742D01*
X141019633Y-81290687D01*
X140927059Y-81429234D01*
X140809234Y-81547059D01*
X140670687Y-81639633D01*
X140516742Y-81703399D01*
X140353315Y-81735907D01*
X140186685Y-81735907D01*
X140023258Y-81703399D01*
X139869313Y-81639633D01*
X139730766Y-81547059D01*
X139612941Y-81429234D01*
X139520367Y-81290687D01*
X139456601Y-81136742D01*
X139424093Y-80973315D01*
X139424093Y-80806685D01*
X139456601Y-80643258D01*
X139520367Y-80489313D01*
X139612941Y-80350766D01*
X139730766Y-80232941D01*
X139869313Y-80140367D01*
X140023258Y-80076601D01*
X140186685Y-80044093D01*
X140353315Y-80044093D01*
X140516742Y-80076601D01*
G37*
G36*
X143056742Y-80076601D02*
G01*
X143210687Y-80140367D01*
X143349234Y-80232941D01*
X143467059Y-80350766D01*
X143559633Y-80489313D01*
X143623399Y-80643258D01*
X143655907Y-80806685D01*
X143655907Y-80973315D01*
X143623399Y-81136742D01*
X143559633Y-81290687D01*
X143467059Y-81429234D01*
X143349234Y-81547059D01*
X143210687Y-81639633D01*
X143056742Y-81703399D01*
X142893315Y-81735907D01*
X142726685Y-81735907D01*
X142563258Y-81703399D01*
X142409313Y-81639633D01*
X142270766Y-81547059D01*
X142152941Y-81429234D01*
X142060367Y-81290687D01*
X141996601Y-81136742D01*
X141964093Y-80973315D01*
X141964093Y-80806685D01*
X141996601Y-80643258D01*
X142060367Y-80489313D01*
X142152941Y-80350766D01*
X142270766Y-80232941D01*
X142409313Y-80140367D01*
X142563258Y-80076601D01*
X142726685Y-80044093D01*
X142893315Y-80044093D01*
X143056742Y-80076601D01*
G37*
G36*
X148136742Y-80076601D02*
G01*
X148290687Y-80140367D01*
X148429234Y-80232941D01*
X148547059Y-80350766D01*
X148639633Y-80489313D01*
X148703399Y-80643258D01*
X148735907Y-80806685D01*
X148735907Y-80973315D01*
X148703399Y-81136742D01*
X148639633Y-81290687D01*
X148547059Y-81429234D01*
X148429234Y-81547059D01*
X148290687Y-81639633D01*
X148136742Y-81703399D01*
X147973315Y-81735907D01*
X147806685Y-81735907D01*
X147643258Y-81703399D01*
X147489313Y-81639633D01*
X147350766Y-81547059D01*
X147232941Y-81429234D01*
X147140367Y-81290687D01*
X147076601Y-81136742D01*
X147044093Y-80973315D01*
X147044093Y-80806685D01*
X147076601Y-80643258D01*
X147140367Y-80489313D01*
X147232941Y-80350766D01*
X147350766Y-80232941D01*
X147489313Y-80140367D01*
X147643258Y-80076601D01*
X147806685Y-80044093D01*
X147973315Y-80044093D01*
X148136742Y-80076601D01*
G37*
G36*
X150676742Y-80076601D02*
G01*
X150830687Y-80140367D01*
X150969234Y-80232941D01*
X151087059Y-80350766D01*
X151179633Y-80489313D01*
X151243399Y-80643258D01*
X151275907Y-80806685D01*
X151275907Y-80973315D01*
X151243399Y-81136742D01*
X151179633Y-81290687D01*
X151087059Y-81429234D01*
X150969234Y-81547059D01*
X150830687Y-81639633D01*
X150676742Y-81703399D01*
X150513315Y-81735907D01*
X150346685Y-81735907D01*
X150183258Y-81703399D01*
X150029313Y-81639633D01*
X149890766Y-81547059D01*
X149772941Y-81429234D01*
X149680367Y-81290687D01*
X149616601Y-81136742D01*
X149584093Y-80973315D01*
X149584093Y-80806685D01*
X149616601Y-80643258D01*
X149680367Y-80489313D01*
X149772941Y-80350766D01*
X149890766Y-80232941D01*
X150029313Y-80140367D01*
X150183258Y-80076601D01*
X150346685Y-80044093D01*
X150513315Y-80044093D01*
X150676742Y-80076601D01*
G37*
G36*
X153216742Y-80076601D02*
G01*
X153370687Y-80140367D01*
X153509234Y-80232941D01*
X153627059Y-80350766D01*
X153719633Y-80489313D01*
X153783399Y-80643258D01*
X153815907Y-80806685D01*
X153815907Y-80973315D01*
X153783399Y-81136742D01*
X153719633Y-81290687D01*
X153627059Y-81429234D01*
X153509234Y-81547059D01*
X153370687Y-81639633D01*
X153216742Y-81703399D01*
X153053315Y-81735907D01*
X152886685Y-81735907D01*
X152723258Y-81703399D01*
X152569313Y-81639633D01*
X152430766Y-81547059D01*
X152312941Y-81429234D01*
X152220367Y-81290687D01*
X152156601Y-81136742D01*
X152124093Y-80973315D01*
X152124093Y-80806685D01*
X152156601Y-80643258D01*
X152220367Y-80489313D01*
X152312941Y-80350766D01*
X152430766Y-80232941D01*
X152569313Y-80140367D01*
X152723258Y-80076601D01*
X152886685Y-80044093D01*
X153053315Y-80044093D01*
X153216742Y-80076601D01*
G37*
G36*
X155756742Y-80076601D02*
G01*
X155910687Y-80140367D01*
X156049234Y-80232941D01*
X156167059Y-80350766D01*
X156259633Y-80489313D01*
X156323399Y-80643258D01*
X156355907Y-80806685D01*
X156355907Y-80973315D01*
X156323399Y-81136742D01*
X156259633Y-81290687D01*
X156167059Y-81429234D01*
X156049234Y-81547059D01*
X155910687Y-81639633D01*
X155756742Y-81703399D01*
X155593315Y-81735907D01*
X155426685Y-81735907D01*
X155263258Y-81703399D01*
X155109313Y-81639633D01*
X154970766Y-81547059D01*
X154852941Y-81429234D01*
X154760367Y-81290687D01*
X154696601Y-81136742D01*
X154664093Y-80973315D01*
X154664093Y-80806685D01*
X154696601Y-80643258D01*
X154760367Y-80489313D01*
X154852941Y-80350766D01*
X154970766Y-80232941D01*
X155109313Y-80140367D01*
X155263258Y-80076601D01*
X155426685Y-80044093D01*
X155593315Y-80044093D01*
X155756742Y-80076601D01*
G37*
G36*
X160836742Y-80076601D02*
G01*
X160990687Y-80140367D01*
X161129234Y-80232941D01*
X161247059Y-80350766D01*
X161339633Y-80489313D01*
X161403399Y-80643258D01*
X161435907Y-80806685D01*
X161435907Y-80973315D01*
X161403399Y-81136742D01*
X161339633Y-81290687D01*
X161247059Y-81429234D01*
X161129234Y-81547059D01*
X160990687Y-81639633D01*
X160836742Y-81703399D01*
X160673315Y-81735907D01*
X160506685Y-81735907D01*
X160343258Y-81703399D01*
X160189313Y-81639633D01*
X160050766Y-81547059D01*
X159932941Y-81429234D01*
X159840367Y-81290687D01*
X159776601Y-81136742D01*
X159744093Y-80973315D01*
X159744093Y-80806685D01*
X159776601Y-80643258D01*
X159840367Y-80489313D01*
X159932941Y-80350766D01*
X160050766Y-80232941D01*
X160189313Y-80140367D01*
X160343258Y-80076601D01*
X160506685Y-80044093D01*
X160673315Y-80044093D01*
X160836742Y-80076601D01*
G37*
G36*
X163376742Y-80076601D02*
G01*
X163530687Y-80140367D01*
X163669234Y-80232941D01*
X163787059Y-80350766D01*
X163879633Y-80489313D01*
X163943399Y-80643258D01*
X163975907Y-80806685D01*
X163975907Y-80973315D01*
X163943399Y-81136742D01*
X163879633Y-81290687D01*
X163787059Y-81429234D01*
X163669234Y-81547059D01*
X163530687Y-81639633D01*
X163376742Y-81703399D01*
X163213315Y-81735907D01*
X163046685Y-81735907D01*
X162883258Y-81703399D01*
X162729313Y-81639633D01*
X162590766Y-81547059D01*
X162472941Y-81429234D01*
X162380367Y-81290687D01*
X162316601Y-81136742D01*
X162284093Y-80973315D01*
X162284093Y-80806685D01*
X162316601Y-80643258D01*
X162380367Y-80489313D01*
X162472941Y-80350766D01*
X162590766Y-80232941D01*
X162729313Y-80140367D01*
X162883258Y-80076601D01*
X163046685Y-80044093D01*
X163213315Y-80044093D01*
X163376742Y-80076601D01*
G37*
G36*
X90966742Y-79916601D02*
G01*
X91120687Y-79980367D01*
X91259234Y-80072941D01*
X91377059Y-80190766D01*
X91469633Y-80329313D01*
X91533399Y-80483258D01*
X91565907Y-80646685D01*
X91565907Y-80813315D01*
X91533399Y-80976742D01*
X91469633Y-81130687D01*
X91377059Y-81269234D01*
X91259234Y-81387059D01*
X91120687Y-81479633D01*
X90966742Y-81543399D01*
X90803315Y-81575907D01*
X90636685Y-81575907D01*
X90473258Y-81543399D01*
X90319313Y-81479633D01*
X90180766Y-81387059D01*
X90062941Y-81269234D01*
X89970367Y-81130687D01*
X89906601Y-80976742D01*
X89874093Y-80813315D01*
X89874093Y-80646685D01*
X89906601Y-80483258D01*
X89970367Y-80329313D01*
X90062941Y-80190766D01*
X90180766Y-80072941D01*
X90319313Y-79980367D01*
X90473258Y-79916601D01*
X90636685Y-79884093D01*
X90803315Y-79884093D01*
X90966742Y-79916601D01*
G37*
G36*
X79105151Y-78287301D02*
G01*
X79306623Y-78352763D01*
X79495373Y-78448936D01*
X79666755Y-78573452D01*
X79816548Y-78723245D01*
X79941064Y-78894627D01*
X80037237Y-79083377D01*
X80102699Y-79284849D01*
X80135838Y-79494080D01*
X80135838Y-79705920D01*
X80102699Y-79915151D01*
X80037237Y-80116623D01*
X79941064Y-80305373D01*
X79816548Y-80476755D01*
X79666755Y-80626548D01*
X79495373Y-80751064D01*
X79306623Y-80847237D01*
X79105151Y-80912699D01*
X78895920Y-80945838D01*
X78684080Y-80945838D01*
X78474849Y-80912699D01*
X78273377Y-80847237D01*
X78084627Y-80751064D01*
X77913245Y-80626548D01*
X77763452Y-80476755D01*
X77638936Y-80305373D01*
X77542763Y-80116623D01*
X77477301Y-79915151D01*
X77444162Y-79705920D01*
X77444162Y-79494080D01*
X77477301Y-79284849D01*
X77542763Y-79083377D01*
X77638936Y-78894627D01*
X77763452Y-78723245D01*
X77913245Y-78573452D01*
X78084627Y-78448936D01*
X78273377Y-78352763D01*
X78474849Y-78287301D01*
X78684080Y-78254162D01*
X78895920Y-78254162D01*
X79105151Y-78287301D01*
G37*
G36*
X95916742Y-79210601D02*
G01*
X96070687Y-79274367D01*
X96209234Y-79366941D01*
X96327059Y-79484766D01*
X96419633Y-79623313D01*
X96483399Y-79777258D01*
X96515907Y-79940685D01*
X96515907Y-80107315D01*
X96483399Y-80270742D01*
X96419633Y-80424687D01*
X96327059Y-80563234D01*
X96209234Y-80681059D01*
X96070687Y-80773633D01*
X95916742Y-80837399D01*
X95753315Y-80869907D01*
X95586685Y-80869907D01*
X95423258Y-80837399D01*
X95269313Y-80773633D01*
X95130766Y-80681059D01*
X95012941Y-80563234D01*
X94920367Y-80424687D01*
X94856601Y-80270742D01*
X94824093Y-80107315D01*
X94824093Y-79940685D01*
X94856601Y-79777258D01*
X94920367Y-79623313D01*
X95012941Y-79484766D01*
X95130766Y-79366941D01*
X95269313Y-79274367D01*
X95423258Y-79210601D01*
X95586685Y-79178093D01*
X95753315Y-79178093D01*
X95916742Y-79210601D01*
G37*
G36*
X108616742Y-79210601D02*
G01*
X108770687Y-79274367D01*
X108909234Y-79366941D01*
X109027059Y-79484766D01*
X109119633Y-79623313D01*
X109183399Y-79777258D01*
X109215907Y-79940685D01*
X109215907Y-80107315D01*
X109183399Y-80270742D01*
X109119633Y-80424687D01*
X109027059Y-80563234D01*
X108909234Y-80681059D01*
X108770687Y-80773633D01*
X108616742Y-80837399D01*
X108453315Y-80869907D01*
X108286685Y-80869907D01*
X108123258Y-80837399D01*
X107969313Y-80773633D01*
X107830766Y-80681059D01*
X107712941Y-80563234D01*
X107620367Y-80424687D01*
X107556601Y-80270742D01*
X107524093Y-80107315D01*
X107524093Y-79940685D01*
X107556601Y-79777258D01*
X107620367Y-79623313D01*
X107712941Y-79484766D01*
X107830766Y-79366941D01*
X107969313Y-79274367D01*
X108123258Y-79210601D01*
X108286685Y-79178093D01*
X108453315Y-79178093D01*
X108616742Y-79210601D01*
G37*
G36*
X90966742Y-77376601D02*
G01*
X91120687Y-77440367D01*
X91259234Y-77532941D01*
X91377059Y-77650766D01*
X91469633Y-77789313D01*
X91533399Y-77943258D01*
X91565907Y-78106685D01*
X91565907Y-78273315D01*
X91533399Y-78436742D01*
X91469633Y-78590687D01*
X91377059Y-78729234D01*
X91259234Y-78847059D01*
X91120687Y-78939633D01*
X90966742Y-79003399D01*
X90803315Y-79035907D01*
X90636685Y-79035907D01*
X90473258Y-79003399D01*
X90319313Y-78939633D01*
X90180766Y-78847059D01*
X90062941Y-78729234D01*
X89970367Y-78590687D01*
X89906601Y-78436742D01*
X89874093Y-78273315D01*
X89874093Y-78106685D01*
X89906601Y-77943258D01*
X89970367Y-77789313D01*
X90062941Y-77650766D01*
X90180766Y-77532941D01*
X90319313Y-77440367D01*
X90473258Y-77376601D01*
X90636685Y-77344093D01*
X90803315Y-77344093D01*
X90966742Y-77376601D01*
G37*
G36*
X95916742Y-76670601D02*
G01*
X96070687Y-76734367D01*
X96209234Y-76826941D01*
X96327059Y-76944766D01*
X96419633Y-77083313D01*
X96483399Y-77237258D01*
X96515907Y-77400685D01*
X96515907Y-77567315D01*
X96483399Y-77730742D01*
X96419633Y-77884687D01*
X96327059Y-78023234D01*
X96209234Y-78141059D01*
X96070687Y-78233633D01*
X95916742Y-78297399D01*
X95753315Y-78329907D01*
X95586685Y-78329907D01*
X95423258Y-78297399D01*
X95269313Y-78233633D01*
X95130766Y-78141059D01*
X95012941Y-78023234D01*
X94920367Y-77884687D01*
X94856601Y-77730742D01*
X94824093Y-77567315D01*
X94824093Y-77400685D01*
X94856601Y-77237258D01*
X94920367Y-77083313D01*
X95012941Y-76944766D01*
X95130766Y-76826941D01*
X95269313Y-76734367D01*
X95423258Y-76670601D01*
X95586685Y-76638093D01*
X95753315Y-76638093D01*
X95916742Y-76670601D01*
G37*
G36*
X108616742Y-76670601D02*
G01*
X108770687Y-76734367D01*
X108909234Y-76826941D01*
X109027059Y-76944766D01*
X109119633Y-77083313D01*
X109183399Y-77237258D01*
X109215907Y-77400685D01*
X109215907Y-77567315D01*
X109183399Y-77730742D01*
X109119633Y-77884687D01*
X109027059Y-78023234D01*
X108909234Y-78141059D01*
X108770687Y-78233633D01*
X108616742Y-78297399D01*
X108453315Y-78329907D01*
X108286685Y-78329907D01*
X108123258Y-78297399D01*
X107969313Y-78233633D01*
X107830766Y-78141059D01*
X107712941Y-78023234D01*
X107620367Y-77884687D01*
X107556601Y-77730742D01*
X107524093Y-77567315D01*
X107524093Y-77400685D01*
X107556601Y-77237258D01*
X107620367Y-77083313D01*
X107712941Y-76944766D01*
X107830766Y-76826941D01*
X107969313Y-76734367D01*
X108123258Y-76670601D01*
X108286685Y-76638093D01*
X108453315Y-76638093D01*
X108616742Y-76670601D01*
G37*
G36*
X74061677Y-74980333D02*
G01*
X74218701Y-75045374D01*
X74360019Y-75139800D01*
X74480200Y-75259981D01*
X74574626Y-75401299D01*
X74639667Y-75558323D01*
X74672825Y-75725019D01*
X74672825Y-75894981D01*
X74639667Y-76061677D01*
X74574626Y-76218701D01*
X74480200Y-76360019D01*
X74360019Y-76480200D01*
X74218701Y-76574626D01*
X74061677Y-76639667D01*
X73894981Y-76672825D01*
X73725019Y-76672825D01*
X73558323Y-76639667D01*
X73401299Y-76574626D01*
X73259981Y-76480200D01*
X73139800Y-76360019D01*
X73045374Y-76218701D01*
X72980333Y-76061677D01*
X72947175Y-75894981D01*
X72947175Y-75725019D01*
X72980333Y-75558323D01*
X73045374Y-75401299D01*
X73139800Y-75259981D01*
X73259981Y-75139800D01*
X73401299Y-75045374D01*
X73558323Y-74980333D01*
X73725019Y-74947175D01*
X73894981Y-74947175D01*
X74061677Y-74980333D01*
G37*
G36*
X90966742Y-74836601D02*
G01*
X91120687Y-74900367D01*
X91259234Y-74992941D01*
X91377059Y-75110766D01*
X91469633Y-75249313D01*
X91533399Y-75403258D01*
X91565907Y-75566685D01*
X91565907Y-75733315D01*
X91533399Y-75896742D01*
X91469633Y-76050687D01*
X91377059Y-76189234D01*
X91259234Y-76307059D01*
X91120687Y-76399633D01*
X90966742Y-76463399D01*
X90803315Y-76495907D01*
X90636685Y-76495907D01*
X90473258Y-76463399D01*
X90319313Y-76399633D01*
X90180766Y-76307059D01*
X90062941Y-76189234D01*
X89970367Y-76050687D01*
X89906601Y-75896742D01*
X89874093Y-75733315D01*
X89874093Y-75566685D01*
X89906601Y-75403258D01*
X89970367Y-75249313D01*
X90062941Y-75110766D01*
X90180766Y-74992941D01*
X90319313Y-74900367D01*
X90473258Y-74836601D01*
X90636685Y-74804093D01*
X90803315Y-74804093D01*
X90966742Y-74836601D01*
G37*
G36*
X95916742Y-74130601D02*
G01*
X96070687Y-74194367D01*
X96209234Y-74286941D01*
X96327059Y-74404766D01*
X96419633Y-74543313D01*
X96483399Y-74697258D01*
X96515907Y-74860685D01*
X96515907Y-75027315D01*
X96483399Y-75190742D01*
X96419633Y-75344687D01*
X96327059Y-75483234D01*
X96209234Y-75601059D01*
X96070687Y-75693633D01*
X95916742Y-75757399D01*
X95753315Y-75789907D01*
X95586685Y-75789907D01*
X95423258Y-75757399D01*
X95269313Y-75693633D01*
X95130766Y-75601059D01*
X95012941Y-75483234D01*
X94920367Y-75344687D01*
X94856601Y-75190742D01*
X94824093Y-75027315D01*
X94824093Y-74860685D01*
X94856601Y-74697258D01*
X94920367Y-74543313D01*
X95012941Y-74404766D01*
X95130766Y-74286941D01*
X95269313Y-74194367D01*
X95423258Y-74130601D01*
X95586685Y-74098093D01*
X95753315Y-74098093D01*
X95916742Y-74130601D01*
G37*
G36*
X108616742Y-74130601D02*
G01*
X108770687Y-74194367D01*
X108909234Y-74286941D01*
X109027059Y-74404766D01*
X109119633Y-74543313D01*
X109183399Y-74697258D01*
X109215907Y-74860685D01*
X109215907Y-75027315D01*
X109183399Y-75190742D01*
X109119633Y-75344687D01*
X109027059Y-75483234D01*
X108909234Y-75601059D01*
X108770687Y-75693633D01*
X108616742Y-75757399D01*
X108453315Y-75789907D01*
X108286685Y-75789907D01*
X108123258Y-75757399D01*
X107969313Y-75693633D01*
X107830766Y-75601059D01*
X107712941Y-75483234D01*
X107620367Y-75344687D01*
X107556601Y-75190742D01*
X107524093Y-75027315D01*
X107524093Y-74860685D01*
X107556601Y-74697258D01*
X107620367Y-74543313D01*
X107712941Y-74404766D01*
X107830766Y-74286941D01*
X107969313Y-74194367D01*
X108123258Y-74130601D01*
X108286685Y-74098093D01*
X108453315Y-74098093D01*
X108616742Y-74130601D01*
G37*
G36*
X74061677Y-72440333D02*
G01*
X74218701Y-72505374D01*
X74360019Y-72599800D01*
X74480200Y-72719981D01*
X74574626Y-72861299D01*
X74639667Y-73018323D01*
X74672825Y-73185019D01*
X74672825Y-73354981D01*
X74639667Y-73521677D01*
X74574626Y-73678701D01*
X74480200Y-73820019D01*
X74360019Y-73940200D01*
X74218701Y-74034626D01*
X74061677Y-74099667D01*
X73894981Y-74132825D01*
X73725019Y-74132825D01*
X73558323Y-74099667D01*
X73401299Y-74034626D01*
X73259981Y-73940200D01*
X73139800Y-73820019D01*
X73045374Y-73678701D01*
X72980333Y-73521677D01*
X72947175Y-73354981D01*
X72947175Y-73185019D01*
X72980333Y-73018323D01*
X73045374Y-72861299D01*
X73139800Y-72719981D01*
X73259981Y-72599800D01*
X73401299Y-72505374D01*
X73558323Y-72440333D01*
X73725019Y-72407175D01*
X73894981Y-72407175D01*
X74061677Y-72440333D01*
G37*
G36*
X90966742Y-72296601D02*
G01*
X91120687Y-72360367D01*
X91259234Y-72452941D01*
X91377059Y-72570766D01*
X91469633Y-72709313D01*
X91533399Y-72863258D01*
X91565907Y-73026685D01*
X91565907Y-73193315D01*
X91533399Y-73356742D01*
X91469633Y-73510687D01*
X91377059Y-73649234D01*
X91259234Y-73767059D01*
X91120687Y-73859633D01*
X90966742Y-73923399D01*
X90803315Y-73955907D01*
X90636685Y-73955907D01*
X90473258Y-73923399D01*
X90319313Y-73859633D01*
X90180766Y-73767059D01*
X90062941Y-73649234D01*
X89970367Y-73510687D01*
X89906601Y-73356742D01*
X89874093Y-73193315D01*
X89874093Y-73026685D01*
X89906601Y-72863258D01*
X89970367Y-72709313D01*
X90062941Y-72570766D01*
X90180766Y-72452941D01*
X90319313Y-72360367D01*
X90473258Y-72296601D01*
X90636685Y-72264093D01*
X90803315Y-72264093D01*
X90966742Y-72296601D01*
G37*
G36*
X74061677Y-69900333D02*
G01*
X74218701Y-69965374D01*
X74360019Y-70059800D01*
X74480200Y-70179981D01*
X74574626Y-70321299D01*
X74639667Y-70478323D01*
X74672825Y-70645019D01*
X74672825Y-70814981D01*
X74639667Y-70981677D01*
X74574626Y-71138701D01*
X74480200Y-71280019D01*
X74360019Y-71400200D01*
X74218701Y-71494626D01*
X74061677Y-71559667D01*
X73894981Y-71592825D01*
X73725019Y-71592825D01*
X73558323Y-71559667D01*
X73401299Y-71494626D01*
X73259981Y-71400200D01*
X73139800Y-71280019D01*
X73045374Y-71138701D01*
X72980333Y-70981677D01*
X72947175Y-70814981D01*
X72947175Y-70645019D01*
X72980333Y-70478323D01*
X73045374Y-70321299D01*
X73139800Y-70179981D01*
X73259981Y-70059800D01*
X73401299Y-69965374D01*
X73558323Y-69900333D01*
X73725019Y-69867175D01*
X73894981Y-69867175D01*
X74061677Y-69900333D01*
G37*
G36*
X90966742Y-69756601D02*
G01*
X91120687Y-69820367D01*
X91259234Y-69912941D01*
X91377059Y-70030766D01*
X91469633Y-70169313D01*
X91533399Y-70323258D01*
X91565907Y-70486685D01*
X91565907Y-70653315D01*
X91533399Y-70816742D01*
X91469633Y-70970687D01*
X91377059Y-71109234D01*
X91259234Y-71227059D01*
X91120687Y-71319633D01*
X90966742Y-71383399D01*
X90803315Y-71415907D01*
X90636685Y-71415907D01*
X90473258Y-71383399D01*
X90319313Y-71319633D01*
X90180766Y-71227059D01*
X90062941Y-71109234D01*
X89970367Y-70970687D01*
X89906601Y-70816742D01*
X89874093Y-70653315D01*
X89874093Y-70486685D01*
X89906601Y-70323258D01*
X89970367Y-70169313D01*
X90062941Y-70030766D01*
X90180766Y-69912941D01*
X90319313Y-69820367D01*
X90473258Y-69756601D01*
X90636685Y-69724093D01*
X90803315Y-69724093D01*
X90966742Y-69756601D01*
G37*
G36*
X95916742Y-68267601D02*
G01*
X96070687Y-68331367D01*
X96209234Y-68423941D01*
X96327059Y-68541766D01*
X96419633Y-68680313D01*
X96483399Y-68834258D01*
X96515907Y-68997685D01*
X96515907Y-69164315D01*
X96483399Y-69327742D01*
X96419633Y-69481687D01*
X96327059Y-69620234D01*
X96209234Y-69738059D01*
X96070687Y-69830633D01*
X95916742Y-69894399D01*
X95753315Y-69926907D01*
X95586685Y-69926907D01*
X95423258Y-69894399D01*
X95269313Y-69830633D01*
X95130766Y-69738059D01*
X95012941Y-69620234D01*
X94920367Y-69481687D01*
X94856601Y-69327742D01*
X94824093Y-69164315D01*
X94824093Y-68997685D01*
X94856601Y-68834258D01*
X94920367Y-68680313D01*
X95012941Y-68541766D01*
X95130766Y-68423941D01*
X95269313Y-68331367D01*
X95423258Y-68267601D01*
X95586685Y-68235093D01*
X95753315Y-68235093D01*
X95916742Y-68267601D01*
G37*
G36*
X108616742Y-68267601D02*
G01*
X108770687Y-68331367D01*
X108909234Y-68423941D01*
X109027059Y-68541766D01*
X109119633Y-68680313D01*
X109183399Y-68834258D01*
X109215907Y-68997685D01*
X109215907Y-69164315D01*
X109183399Y-69327742D01*
X109119633Y-69481687D01*
X109027059Y-69620234D01*
X108909234Y-69738059D01*
X108770687Y-69830633D01*
X108616742Y-69894399D01*
X108453315Y-69926907D01*
X108286685Y-69926907D01*
X108123258Y-69894399D01*
X107969313Y-69830633D01*
X107830766Y-69738059D01*
X107712941Y-69620234D01*
X107620367Y-69481687D01*
X107556601Y-69327742D01*
X107524093Y-69164315D01*
X107524093Y-68997685D01*
X107556601Y-68834258D01*
X107620367Y-68680313D01*
X107712941Y-68541766D01*
X107830766Y-68423941D01*
X107969313Y-68331367D01*
X108123258Y-68267601D01*
X108286685Y-68235093D01*
X108453315Y-68235093D01*
X108616742Y-68267601D01*
G37*
G36*
X74061677Y-67360333D02*
G01*
X74218701Y-67425374D01*
X74360019Y-67519800D01*
X74480200Y-67639981D01*
X74574626Y-67781299D01*
X74639667Y-67938323D01*
X74672825Y-68105019D01*
X74672825Y-68274981D01*
X74639667Y-68441677D01*
X74574626Y-68598701D01*
X74480200Y-68740019D01*
X74360019Y-68860200D01*
X74218701Y-68954626D01*
X74061677Y-69019667D01*
X73894981Y-69052825D01*
X73725019Y-69052825D01*
X73558323Y-69019667D01*
X73401299Y-68954626D01*
X73259981Y-68860200D01*
X73139800Y-68740019D01*
X73045374Y-68598701D01*
X72980333Y-68441677D01*
X72947175Y-68274981D01*
X72947175Y-68105019D01*
X72980333Y-67938323D01*
X73045374Y-67781299D01*
X73139800Y-67639981D01*
X73259981Y-67519800D01*
X73401299Y-67425374D01*
X73558323Y-67360333D01*
X73725019Y-67327175D01*
X73894981Y-67327175D01*
X74061677Y-67360333D01*
G37*
G36*
X90966742Y-67216601D02*
G01*
X91120687Y-67280367D01*
X91259234Y-67372941D01*
X91377059Y-67490766D01*
X91469633Y-67629313D01*
X91533399Y-67783258D01*
X91565907Y-67946685D01*
X91565907Y-68113315D01*
X91533399Y-68276742D01*
X91469633Y-68430687D01*
X91377059Y-68569234D01*
X91259234Y-68687059D01*
X91120687Y-68779633D01*
X90966742Y-68843399D01*
X90803315Y-68875907D01*
X90636685Y-68875907D01*
X90473258Y-68843399D01*
X90319313Y-68779633D01*
X90180766Y-68687059D01*
X90062941Y-68569234D01*
X89970367Y-68430687D01*
X89906601Y-68276742D01*
X89874093Y-68113315D01*
X89874093Y-67946685D01*
X89906601Y-67783258D01*
X89970367Y-67629313D01*
X90062941Y-67490766D01*
X90180766Y-67372941D01*
X90319313Y-67280367D01*
X90473258Y-67216601D01*
X90636685Y-67184093D01*
X90803315Y-67184093D01*
X90966742Y-67216601D01*
G37*
G36*
X96520000Y-67391000D02*
G01*
X94820000Y-67391000D01*
X94820000Y-65691000D01*
X96520000Y-65691000D01*
X96520000Y-67391000D01*
G37*
G36*
X109220000Y-67391000D02*
G01*
X107520000Y-67391000D01*
X107520000Y-65691000D01*
X109220000Y-65691000D01*
X109220000Y-67391000D01*
G37*
G36*
X90966742Y-64676601D02*
G01*
X91120687Y-64740367D01*
X91259234Y-64832941D01*
X91377059Y-64950766D01*
X91469633Y-65089313D01*
X91533399Y-65243258D01*
X91565907Y-65406685D01*
X91565907Y-65573315D01*
X91533399Y-65736742D01*
X91469633Y-65890687D01*
X91377059Y-66029234D01*
X91259234Y-66147059D01*
X91120687Y-66239633D01*
X90966742Y-66303399D01*
X90803315Y-66335907D01*
X90636685Y-66335907D01*
X90473258Y-66303399D01*
X90319313Y-66239633D01*
X90180766Y-66147059D01*
X90062941Y-66029234D01*
X89970367Y-65890687D01*
X89906601Y-65736742D01*
X89874093Y-65573315D01*
X89874093Y-65406685D01*
X89906601Y-65243258D01*
X89970367Y-65089313D01*
X90062941Y-64950766D01*
X90180766Y-64832941D01*
X90319313Y-64740367D01*
X90473258Y-64676601D01*
X90636685Y-64644093D01*
X90803315Y-64644093D01*
X90966742Y-64676601D01*
G37*
G36*
X79105151Y-62987301D02*
G01*
X79306623Y-63052763D01*
X79495373Y-63148936D01*
X79666755Y-63273452D01*
X79816548Y-63423245D01*
X79941064Y-63594627D01*
X80037237Y-63783377D01*
X80102699Y-63984849D01*
X80135838Y-64194080D01*
X80135838Y-64405920D01*
X80102699Y-64615151D01*
X80037237Y-64816623D01*
X79941064Y-65005373D01*
X79816548Y-65176755D01*
X79666755Y-65326548D01*
X79495373Y-65451064D01*
X79306623Y-65547237D01*
X79105151Y-65612699D01*
X78895920Y-65645838D01*
X78684080Y-65645838D01*
X78474849Y-65612699D01*
X78273377Y-65547237D01*
X78084627Y-65451064D01*
X77913245Y-65326548D01*
X77763452Y-65176755D01*
X77638936Y-65005373D01*
X77542763Y-64816623D01*
X77477301Y-64615151D01*
X77444162Y-64405920D01*
X77444162Y-64194080D01*
X77477301Y-63984849D01*
X77542763Y-63783377D01*
X77638936Y-63594627D01*
X77763452Y-63423245D01*
X77913245Y-63273452D01*
X78084627Y-63148936D01*
X78273377Y-63052763D01*
X78474849Y-62987301D01*
X78684080Y-62954162D01*
X78895920Y-62954162D01*
X79105151Y-62987301D01*
G37*
G36*
X95916742Y-63187601D02*
G01*
X96070687Y-63251367D01*
X96209234Y-63343941D01*
X96327059Y-63461766D01*
X96419633Y-63600313D01*
X96483399Y-63754258D01*
X96515907Y-63917685D01*
X96515907Y-64084315D01*
X96483399Y-64247742D01*
X96419633Y-64401687D01*
X96327059Y-64540234D01*
X96209234Y-64658059D01*
X96070687Y-64750633D01*
X95916742Y-64814399D01*
X95753315Y-64846907D01*
X95586685Y-64846907D01*
X95423258Y-64814399D01*
X95269313Y-64750633D01*
X95130766Y-64658059D01*
X95012941Y-64540234D01*
X94920367Y-64401687D01*
X94856601Y-64247742D01*
X94824093Y-64084315D01*
X94824093Y-63917685D01*
X94856601Y-63754258D01*
X94920367Y-63600313D01*
X95012941Y-63461766D01*
X95130766Y-63343941D01*
X95269313Y-63251367D01*
X95423258Y-63187601D01*
X95586685Y-63155093D01*
X95753315Y-63155093D01*
X95916742Y-63187601D01*
G37*
G36*
X108616742Y-63187601D02*
G01*
X108770687Y-63251367D01*
X108909234Y-63343941D01*
X109027059Y-63461766D01*
X109119633Y-63600313D01*
X109183399Y-63754258D01*
X109215907Y-63917685D01*
X109215907Y-64084315D01*
X109183399Y-64247742D01*
X109119633Y-64401687D01*
X109027059Y-64540234D01*
X108909234Y-64658059D01*
X108770687Y-64750633D01*
X108616742Y-64814399D01*
X108453315Y-64846907D01*
X108286685Y-64846907D01*
X108123258Y-64814399D01*
X107969313Y-64750633D01*
X107830766Y-64658059D01*
X107712941Y-64540234D01*
X107620367Y-64401687D01*
X107556601Y-64247742D01*
X107524093Y-64084315D01*
X107524093Y-63917685D01*
X107556601Y-63754258D01*
X107620367Y-63600313D01*
X107712941Y-63461766D01*
X107830766Y-63343941D01*
X107969313Y-63251367D01*
X108123258Y-63187601D01*
X108286685Y-63155093D01*
X108453315Y-63155093D01*
X108616742Y-63187601D01*
G37*
G36*
X120800000Y-63960000D02*
G01*
X119100000Y-63960000D01*
X119100000Y-62260000D01*
X120800000Y-62260000D01*
X120800000Y-63960000D01*
G37*
G36*
X133500000Y-63960000D02*
G01*
X131800000Y-63960000D01*
X131800000Y-62260000D01*
X133500000Y-62260000D01*
X133500000Y-63960000D01*
G37*
G36*
X146200000Y-63960000D02*
G01*
X144500000Y-63960000D01*
X144500000Y-62260000D01*
X146200000Y-62260000D01*
X146200000Y-63960000D01*
G37*
G36*
X158900000Y-63960000D02*
G01*
X157200000Y-63960000D01*
X157200000Y-62260000D01*
X158900000Y-62260000D01*
X158900000Y-63960000D01*
G37*
G36*
X115116742Y-62296601D02*
G01*
X115270687Y-62360367D01*
X115409234Y-62452941D01*
X115527059Y-62570766D01*
X115619633Y-62709313D01*
X115683399Y-62863258D01*
X115715907Y-63026685D01*
X115715907Y-63193315D01*
X115683399Y-63356742D01*
X115619633Y-63510687D01*
X115527059Y-63649234D01*
X115409234Y-63767059D01*
X115270687Y-63859633D01*
X115116742Y-63923399D01*
X114953315Y-63955907D01*
X114786685Y-63955907D01*
X114623258Y-63923399D01*
X114469313Y-63859633D01*
X114330766Y-63767059D01*
X114212941Y-63649234D01*
X114120367Y-63510687D01*
X114056601Y-63356742D01*
X114024093Y-63193315D01*
X114024093Y-63026685D01*
X114056601Y-62863258D01*
X114120367Y-62709313D01*
X114212941Y-62570766D01*
X114330766Y-62452941D01*
X114469313Y-62360367D01*
X114623258Y-62296601D01*
X114786685Y-62264093D01*
X114953315Y-62264093D01*
X115116742Y-62296601D01*
G37*
G36*
X117656742Y-62296601D02*
G01*
X117810687Y-62360367D01*
X117949234Y-62452941D01*
X118067059Y-62570766D01*
X118159633Y-62709313D01*
X118223399Y-62863258D01*
X118255907Y-63026685D01*
X118255907Y-63193315D01*
X118223399Y-63356742D01*
X118159633Y-63510687D01*
X118067059Y-63649234D01*
X117949234Y-63767059D01*
X117810687Y-63859633D01*
X117656742Y-63923399D01*
X117493315Y-63955907D01*
X117326685Y-63955907D01*
X117163258Y-63923399D01*
X117009313Y-63859633D01*
X116870766Y-63767059D01*
X116752941Y-63649234D01*
X116660367Y-63510687D01*
X116596601Y-63356742D01*
X116564093Y-63193315D01*
X116564093Y-63026685D01*
X116596601Y-62863258D01*
X116660367Y-62709313D01*
X116752941Y-62570766D01*
X116870766Y-62452941D01*
X117009313Y-62360367D01*
X117163258Y-62296601D01*
X117326685Y-62264093D01*
X117493315Y-62264093D01*
X117656742Y-62296601D01*
G37*
G36*
X122736742Y-62296601D02*
G01*
X122890687Y-62360367D01*
X123029234Y-62452941D01*
X123147059Y-62570766D01*
X123239633Y-62709313D01*
X123303399Y-62863258D01*
X123335907Y-63026685D01*
X123335907Y-63193315D01*
X123303399Y-63356742D01*
X123239633Y-63510687D01*
X123147059Y-63649234D01*
X123029234Y-63767059D01*
X122890687Y-63859633D01*
X122736742Y-63923399D01*
X122573315Y-63955907D01*
X122406685Y-63955907D01*
X122243258Y-63923399D01*
X122089313Y-63859633D01*
X121950766Y-63767059D01*
X121832941Y-63649234D01*
X121740367Y-63510687D01*
X121676601Y-63356742D01*
X121644093Y-63193315D01*
X121644093Y-63026685D01*
X121676601Y-62863258D01*
X121740367Y-62709313D01*
X121832941Y-62570766D01*
X121950766Y-62452941D01*
X122089313Y-62360367D01*
X122243258Y-62296601D01*
X122406685Y-62264093D01*
X122573315Y-62264093D01*
X122736742Y-62296601D01*
G37*
G36*
X125276742Y-62296601D02*
G01*
X125430687Y-62360367D01*
X125569234Y-62452941D01*
X125687059Y-62570766D01*
X125779633Y-62709313D01*
X125843399Y-62863258D01*
X125875907Y-63026685D01*
X125875907Y-63193315D01*
X125843399Y-63356742D01*
X125779633Y-63510687D01*
X125687059Y-63649234D01*
X125569234Y-63767059D01*
X125430687Y-63859633D01*
X125276742Y-63923399D01*
X125113315Y-63955907D01*
X124946685Y-63955907D01*
X124783258Y-63923399D01*
X124629313Y-63859633D01*
X124490766Y-63767059D01*
X124372941Y-63649234D01*
X124280367Y-63510687D01*
X124216601Y-63356742D01*
X124184093Y-63193315D01*
X124184093Y-63026685D01*
X124216601Y-62863258D01*
X124280367Y-62709313D01*
X124372941Y-62570766D01*
X124490766Y-62452941D01*
X124629313Y-62360367D01*
X124783258Y-62296601D01*
X124946685Y-62264093D01*
X125113315Y-62264093D01*
X125276742Y-62296601D01*
G37*
G36*
X127816742Y-62296601D02*
G01*
X127970687Y-62360367D01*
X128109234Y-62452941D01*
X128227059Y-62570766D01*
X128319633Y-62709313D01*
X128383399Y-62863258D01*
X128415907Y-63026685D01*
X128415907Y-63193315D01*
X128383399Y-63356742D01*
X128319633Y-63510687D01*
X128227059Y-63649234D01*
X128109234Y-63767059D01*
X127970687Y-63859633D01*
X127816742Y-63923399D01*
X127653315Y-63955907D01*
X127486685Y-63955907D01*
X127323258Y-63923399D01*
X127169313Y-63859633D01*
X127030766Y-63767059D01*
X126912941Y-63649234D01*
X126820367Y-63510687D01*
X126756601Y-63356742D01*
X126724093Y-63193315D01*
X126724093Y-63026685D01*
X126756601Y-62863258D01*
X126820367Y-62709313D01*
X126912941Y-62570766D01*
X127030766Y-62452941D01*
X127169313Y-62360367D01*
X127323258Y-62296601D01*
X127486685Y-62264093D01*
X127653315Y-62264093D01*
X127816742Y-62296601D01*
G37*
G36*
X130356742Y-62296601D02*
G01*
X130510687Y-62360367D01*
X130649234Y-62452941D01*
X130767059Y-62570766D01*
X130859633Y-62709313D01*
X130923399Y-62863258D01*
X130955907Y-63026685D01*
X130955907Y-63193315D01*
X130923399Y-63356742D01*
X130859633Y-63510687D01*
X130767059Y-63649234D01*
X130649234Y-63767059D01*
X130510687Y-63859633D01*
X130356742Y-63923399D01*
X130193315Y-63955907D01*
X130026685Y-63955907D01*
X129863258Y-63923399D01*
X129709313Y-63859633D01*
X129570766Y-63767059D01*
X129452941Y-63649234D01*
X129360367Y-63510687D01*
X129296601Y-63356742D01*
X129264093Y-63193315D01*
X129264093Y-63026685D01*
X129296601Y-62863258D01*
X129360367Y-62709313D01*
X129452941Y-62570766D01*
X129570766Y-62452941D01*
X129709313Y-62360367D01*
X129863258Y-62296601D01*
X130026685Y-62264093D01*
X130193315Y-62264093D01*
X130356742Y-62296601D01*
G37*
G36*
X135436742Y-62296601D02*
G01*
X135590687Y-62360367D01*
X135729234Y-62452941D01*
X135847059Y-62570766D01*
X135939633Y-62709313D01*
X136003399Y-62863258D01*
X136035907Y-63026685D01*
X136035907Y-63193315D01*
X136003399Y-63356742D01*
X135939633Y-63510687D01*
X135847059Y-63649234D01*
X135729234Y-63767059D01*
X135590687Y-63859633D01*
X135436742Y-63923399D01*
X135273315Y-63955907D01*
X135106685Y-63955907D01*
X134943258Y-63923399D01*
X134789313Y-63859633D01*
X134650766Y-63767059D01*
X134532941Y-63649234D01*
X134440367Y-63510687D01*
X134376601Y-63356742D01*
X134344093Y-63193315D01*
X134344093Y-63026685D01*
X134376601Y-62863258D01*
X134440367Y-62709313D01*
X134532941Y-62570766D01*
X134650766Y-62452941D01*
X134789313Y-62360367D01*
X134943258Y-62296601D01*
X135106685Y-62264093D01*
X135273315Y-62264093D01*
X135436742Y-62296601D01*
G37*
G36*
X137976742Y-62296601D02*
G01*
X138130687Y-62360367D01*
X138269234Y-62452941D01*
X138387059Y-62570766D01*
X138479633Y-62709313D01*
X138543399Y-62863258D01*
X138575907Y-63026685D01*
X138575907Y-63193315D01*
X138543399Y-63356742D01*
X138479633Y-63510687D01*
X138387059Y-63649234D01*
X138269234Y-63767059D01*
X138130687Y-63859633D01*
X137976742Y-63923399D01*
X137813315Y-63955907D01*
X137646685Y-63955907D01*
X137483258Y-63923399D01*
X137329313Y-63859633D01*
X137190766Y-63767059D01*
X137072941Y-63649234D01*
X136980367Y-63510687D01*
X136916601Y-63356742D01*
X136884093Y-63193315D01*
X136884093Y-63026685D01*
X136916601Y-62863258D01*
X136980367Y-62709313D01*
X137072941Y-62570766D01*
X137190766Y-62452941D01*
X137329313Y-62360367D01*
X137483258Y-62296601D01*
X137646685Y-62264093D01*
X137813315Y-62264093D01*
X137976742Y-62296601D01*
G37*
G36*
X140516742Y-62296601D02*
G01*
X140670687Y-62360367D01*
X140809234Y-62452941D01*
X140927059Y-62570766D01*
X141019633Y-62709313D01*
X141083399Y-62863258D01*
X141115907Y-63026685D01*
X141115907Y-63193315D01*
X141083399Y-63356742D01*
X141019633Y-63510687D01*
X140927059Y-63649234D01*
X140809234Y-63767059D01*
X140670687Y-63859633D01*
X140516742Y-63923399D01*
X140353315Y-63955907D01*
X140186685Y-63955907D01*
X140023258Y-63923399D01*
X139869313Y-63859633D01*
X139730766Y-63767059D01*
X139612941Y-63649234D01*
X139520367Y-63510687D01*
X139456601Y-63356742D01*
X139424093Y-63193315D01*
X139424093Y-63026685D01*
X139456601Y-62863258D01*
X139520367Y-62709313D01*
X139612941Y-62570766D01*
X139730766Y-62452941D01*
X139869313Y-62360367D01*
X140023258Y-62296601D01*
X140186685Y-62264093D01*
X140353315Y-62264093D01*
X140516742Y-62296601D01*
G37*
G36*
X143056742Y-62296601D02*
G01*
X143210687Y-62360367D01*
X143349234Y-62452941D01*
X143467059Y-62570766D01*
X143559633Y-62709313D01*
X143623399Y-62863258D01*
X143655907Y-63026685D01*
X143655907Y-63193315D01*
X143623399Y-63356742D01*
X143559633Y-63510687D01*
X143467059Y-63649234D01*
X143349234Y-63767059D01*
X143210687Y-63859633D01*
X143056742Y-63923399D01*
X142893315Y-63955907D01*
X142726685Y-63955907D01*
X142563258Y-63923399D01*
X142409313Y-63859633D01*
X142270766Y-63767059D01*
X142152941Y-63649234D01*
X142060367Y-63510687D01*
X141996601Y-63356742D01*
X141964093Y-63193315D01*
X141964093Y-63026685D01*
X141996601Y-62863258D01*
X142060367Y-62709313D01*
X142152941Y-62570766D01*
X142270766Y-62452941D01*
X142409313Y-62360367D01*
X142563258Y-62296601D01*
X142726685Y-62264093D01*
X142893315Y-62264093D01*
X143056742Y-62296601D01*
G37*
G36*
X148136742Y-62296601D02*
G01*
X148290687Y-62360367D01*
X148429234Y-62452941D01*
X148547059Y-62570766D01*
X148639633Y-62709313D01*
X148703399Y-62863258D01*
X148735907Y-63026685D01*
X148735907Y-63193315D01*
X148703399Y-63356742D01*
X148639633Y-63510687D01*
X148547059Y-63649234D01*
X148429234Y-63767059D01*
X148290687Y-63859633D01*
X148136742Y-63923399D01*
X147973315Y-63955907D01*
X147806685Y-63955907D01*
X147643258Y-63923399D01*
X147489313Y-63859633D01*
X147350766Y-63767059D01*
X147232941Y-63649234D01*
X147140367Y-63510687D01*
X147076601Y-63356742D01*
X147044093Y-63193315D01*
X147044093Y-63026685D01*
X147076601Y-62863258D01*
X147140367Y-62709313D01*
X147232941Y-62570766D01*
X147350766Y-62452941D01*
X147489313Y-62360367D01*
X147643258Y-62296601D01*
X147806685Y-62264093D01*
X147973315Y-62264093D01*
X148136742Y-62296601D01*
G37*
G36*
X150676742Y-62296601D02*
G01*
X150830687Y-62360367D01*
X150969234Y-62452941D01*
X151087059Y-62570766D01*
X151179633Y-62709313D01*
X151243399Y-62863258D01*
X151275907Y-63026685D01*
X151275907Y-63193315D01*
X151243399Y-63356742D01*
X151179633Y-63510687D01*
X151087059Y-63649234D01*
X150969234Y-63767059D01*
X150830687Y-63859633D01*
X150676742Y-63923399D01*
X150513315Y-63955907D01*
X150346685Y-63955907D01*
X150183258Y-63923399D01*
X150029313Y-63859633D01*
X149890766Y-63767059D01*
X149772941Y-63649234D01*
X149680367Y-63510687D01*
X149616601Y-63356742D01*
X149584093Y-63193315D01*
X149584093Y-63026685D01*
X149616601Y-62863258D01*
X149680367Y-62709313D01*
X149772941Y-62570766D01*
X149890766Y-62452941D01*
X150029313Y-62360367D01*
X150183258Y-62296601D01*
X150346685Y-62264093D01*
X150513315Y-62264093D01*
X150676742Y-62296601D01*
G37*
G36*
X153216742Y-62296601D02*
G01*
X153370687Y-62360367D01*
X153509234Y-62452941D01*
X153627059Y-62570766D01*
X153719633Y-62709313D01*
X153783399Y-62863258D01*
X153815907Y-63026685D01*
X153815907Y-63193315D01*
X153783399Y-63356742D01*
X153719633Y-63510687D01*
X153627059Y-63649234D01*
X153509234Y-63767059D01*
X153370687Y-63859633D01*
X153216742Y-63923399D01*
X153053315Y-63955907D01*
X152886685Y-63955907D01*
X152723258Y-63923399D01*
X152569313Y-63859633D01*
X152430766Y-63767059D01*
X152312941Y-63649234D01*
X152220367Y-63510687D01*
X152156601Y-63356742D01*
X152124093Y-63193315D01*
X152124093Y-63026685D01*
X152156601Y-62863258D01*
X152220367Y-62709313D01*
X152312941Y-62570766D01*
X152430766Y-62452941D01*
X152569313Y-62360367D01*
X152723258Y-62296601D01*
X152886685Y-62264093D01*
X153053315Y-62264093D01*
X153216742Y-62296601D01*
G37*
G36*
X155756742Y-62296601D02*
G01*
X155910687Y-62360367D01*
X156049234Y-62452941D01*
X156167059Y-62570766D01*
X156259633Y-62709313D01*
X156323399Y-62863258D01*
X156355907Y-63026685D01*
X156355907Y-63193315D01*
X156323399Y-63356742D01*
X156259633Y-63510687D01*
X156167059Y-63649234D01*
X156049234Y-63767059D01*
X155910687Y-63859633D01*
X155756742Y-63923399D01*
X155593315Y-63955907D01*
X155426685Y-63955907D01*
X155263258Y-63923399D01*
X155109313Y-63859633D01*
X154970766Y-63767059D01*
X154852941Y-63649234D01*
X154760367Y-63510687D01*
X154696601Y-63356742D01*
X154664093Y-63193315D01*
X154664093Y-63026685D01*
X154696601Y-62863258D01*
X154760367Y-62709313D01*
X154852941Y-62570766D01*
X154970766Y-62452941D01*
X155109313Y-62360367D01*
X155263258Y-62296601D01*
X155426685Y-62264093D01*
X155593315Y-62264093D01*
X155756742Y-62296601D01*
G37*
G36*
X160836742Y-62296601D02*
G01*
X160990687Y-62360367D01*
X161129234Y-62452941D01*
X161247059Y-62570766D01*
X161339633Y-62709313D01*
X161403399Y-62863258D01*
X161435907Y-63026685D01*
X161435907Y-63193315D01*
X161403399Y-63356742D01*
X161339633Y-63510687D01*
X161247059Y-63649234D01*
X161129234Y-63767059D01*
X160990687Y-63859633D01*
X160836742Y-63923399D01*
X160673315Y-63955907D01*
X160506685Y-63955907D01*
X160343258Y-63923399D01*
X160189313Y-63859633D01*
X160050766Y-63767059D01*
X159932941Y-63649234D01*
X159840367Y-63510687D01*
X159776601Y-63356742D01*
X159744093Y-63193315D01*
X159744093Y-63026685D01*
X159776601Y-62863258D01*
X159840367Y-62709313D01*
X159932941Y-62570766D01*
X160050766Y-62452941D01*
X160189313Y-62360367D01*
X160343258Y-62296601D01*
X160506685Y-62264093D01*
X160673315Y-62264093D01*
X160836742Y-62296601D01*
G37*
G36*
X163806537Y-62325224D02*
G01*
X163871421Y-62368579D01*
X163914776Y-62433463D01*
X163930000Y-62510000D01*
X163930000Y-63710000D01*
X163914776Y-63786537D01*
X163871421Y-63851421D01*
X163806537Y-63894776D01*
X163730000Y-63910000D01*
X162530000Y-63910000D01*
X162453463Y-63894776D01*
X162388579Y-63851421D01*
X162345224Y-63786537D01*
X162330000Y-63710000D01*
X162330000Y-62510000D01*
X162345224Y-62433463D01*
X162388579Y-62368579D01*
X162453463Y-62325224D01*
X162530000Y-62310000D01*
X163730000Y-62310000D01*
X163806537Y-62325224D01*
G37*
G36*
X90966742Y-62136601D02*
G01*
X91120687Y-62200367D01*
X91259234Y-62292941D01*
X91377059Y-62410766D01*
X91469633Y-62549313D01*
X91533399Y-62703258D01*
X91565907Y-62866685D01*
X91565907Y-63033315D01*
X91533399Y-63196742D01*
X91469633Y-63350687D01*
X91377059Y-63489234D01*
X91259234Y-63607059D01*
X91120687Y-63699633D01*
X90966742Y-63763399D01*
X90803315Y-63795907D01*
X90636685Y-63795907D01*
X90473258Y-63763399D01*
X90319313Y-63699633D01*
X90180766Y-63607059D01*
X90062941Y-63489234D01*
X89970367Y-63350687D01*
X89906601Y-63196742D01*
X89874093Y-63033315D01*
X89874093Y-62866685D01*
X89906601Y-62703258D01*
X89970367Y-62549313D01*
X90062941Y-62410766D01*
X90180766Y-62292941D01*
X90319313Y-62200367D01*
X90473258Y-62136601D01*
X90636685Y-62104093D01*
X90803315Y-62104093D01*
X90966742Y-62136601D01*
G37*
G36*
X95916742Y-60647601D02*
G01*
X96070687Y-60711367D01*
X96209234Y-60803941D01*
X96327059Y-60921766D01*
X96419633Y-61060313D01*
X96483399Y-61214258D01*
X96515907Y-61377685D01*
X96515907Y-61544315D01*
X96483399Y-61707742D01*
X96419633Y-61861687D01*
X96327059Y-62000234D01*
X96209234Y-62118059D01*
X96070687Y-62210633D01*
X95916742Y-62274399D01*
X95753315Y-62306907D01*
X95586685Y-62306907D01*
X95423258Y-62274399D01*
X95269313Y-62210633D01*
X95130766Y-62118059D01*
X95012941Y-62000234D01*
X94920367Y-61861687D01*
X94856601Y-61707742D01*
X94824093Y-61544315D01*
X94824093Y-61377685D01*
X94856601Y-61214258D01*
X94920367Y-61060313D01*
X95012941Y-60921766D01*
X95130766Y-60803941D01*
X95269313Y-60711367D01*
X95423258Y-60647601D01*
X95586685Y-60615093D01*
X95753315Y-60615093D01*
X95916742Y-60647601D01*
G37*
G36*
X108616742Y-60647601D02*
G01*
X108770687Y-60711367D01*
X108909234Y-60803941D01*
X109027059Y-60921766D01*
X109119633Y-61060313D01*
X109183399Y-61214258D01*
X109215907Y-61377685D01*
X109215907Y-61544315D01*
X109183399Y-61707742D01*
X109119633Y-61861687D01*
X109027059Y-62000234D01*
X108909234Y-62118059D01*
X108770687Y-62210633D01*
X108616742Y-62274399D01*
X108453315Y-62306907D01*
X108286685Y-62306907D01*
X108123258Y-62274399D01*
X107969313Y-62210633D01*
X107830766Y-62118059D01*
X107712941Y-62000234D01*
X107620367Y-61861687D01*
X107556601Y-61707742D01*
X107524093Y-61544315D01*
X107524093Y-61377685D01*
X107556601Y-61214258D01*
X107620367Y-61060313D01*
X107712941Y-60921766D01*
X107830766Y-60803941D01*
X107969313Y-60711367D01*
X108123258Y-60647601D01*
X108286685Y-60615093D01*
X108453315Y-60615093D01*
X108616742Y-60647601D01*
G37*
G36*
X95916742Y-58107601D02*
G01*
X96070687Y-58171367D01*
X96209234Y-58263941D01*
X96327059Y-58381766D01*
X96419633Y-58520313D01*
X96483399Y-58674258D01*
X96515907Y-58837685D01*
X96515907Y-59004315D01*
X96483399Y-59167742D01*
X96419633Y-59321687D01*
X96327059Y-59460234D01*
X96209234Y-59578059D01*
X96070687Y-59670633D01*
X95916742Y-59734399D01*
X95753315Y-59766907D01*
X95586685Y-59766907D01*
X95423258Y-59734399D01*
X95269313Y-59670633D01*
X95130766Y-59578059D01*
X95012941Y-59460234D01*
X94920367Y-59321687D01*
X94856601Y-59167742D01*
X94824093Y-59004315D01*
X94824093Y-58837685D01*
X94856601Y-58674258D01*
X94920367Y-58520313D01*
X95012941Y-58381766D01*
X95130766Y-58263941D01*
X95269313Y-58171367D01*
X95423258Y-58107601D01*
X95586685Y-58075093D01*
X95753315Y-58075093D01*
X95916742Y-58107601D01*
G37*
G36*
X108616742Y-58107601D02*
G01*
X108770687Y-58171367D01*
X108909234Y-58263941D01*
X109027059Y-58381766D01*
X109119633Y-58520313D01*
X109183399Y-58674258D01*
X109215907Y-58837685D01*
X109215907Y-59004315D01*
X109183399Y-59167742D01*
X109119633Y-59321687D01*
X109027059Y-59460234D01*
X108909234Y-59578059D01*
X108770687Y-59670633D01*
X108616742Y-59734399D01*
X108453315Y-59766907D01*
X108286685Y-59766907D01*
X108123258Y-59734399D01*
X107969313Y-59670633D01*
X107830766Y-59578059D01*
X107712941Y-59460234D01*
X107620367Y-59321687D01*
X107556601Y-59167742D01*
X107524093Y-59004315D01*
X107524093Y-58837685D01*
X107556601Y-58674258D01*
X107620367Y-58520313D01*
X107712941Y-58381766D01*
X107830766Y-58263941D01*
X107969313Y-58171367D01*
X108123258Y-58107601D01*
X108286685Y-58075093D01*
X108453315Y-58075093D01*
X108616742Y-58107601D01*
G37*
G36*
X130342228Y-57934048D02*
G01*
X130487117Y-57994063D01*
X130617515Y-58081192D01*
X130728408Y-58192085D01*
X130815537Y-58322483D01*
X130875552Y-58467372D01*
X130906148Y-58621186D01*
X130906148Y-58778014D01*
X130875552Y-58931828D01*
X130815537Y-59076717D01*
X130728408Y-59207115D01*
X130617515Y-59318008D01*
X130487117Y-59405137D01*
X130342228Y-59465152D01*
X130188414Y-59495748D01*
X130031586Y-59495748D01*
X129877772Y-59465152D01*
X129732883Y-59405137D01*
X129602485Y-59318008D01*
X129491592Y-59207115D01*
X129404463Y-59076717D01*
X129344448Y-58931828D01*
X129313852Y-58778014D01*
X129313852Y-58621186D01*
X129344448Y-58467372D01*
X129404463Y-58322483D01*
X129491592Y-58192085D01*
X129602485Y-58081192D01*
X129732883Y-57994063D01*
X129877772Y-57934048D01*
X130031586Y-57903452D01*
X130188414Y-57903452D01*
X130342228Y-57934048D01*
G37*
G36*
X135342228Y-57934048D02*
G01*
X135487117Y-57994063D01*
X135617515Y-58081192D01*
X135728408Y-58192085D01*
X135815537Y-58322483D01*
X135875552Y-58467372D01*
X135906148Y-58621186D01*
X135906148Y-58778014D01*
X135875552Y-58931828D01*
X135815537Y-59076717D01*
X135728408Y-59207115D01*
X135617515Y-59318008D01*
X135487117Y-59405137D01*
X135342228Y-59465152D01*
X135188414Y-59495748D01*
X135031586Y-59495748D01*
X134877772Y-59465152D01*
X134732883Y-59405137D01*
X134602485Y-59318008D01*
X134491592Y-59207115D01*
X134404463Y-59076717D01*
X134344448Y-58931828D01*
X134313852Y-58778014D01*
X134313852Y-58621186D01*
X134344448Y-58467372D01*
X134404463Y-58322483D01*
X134491592Y-58192085D01*
X134602485Y-58081192D01*
X134732883Y-57994063D01*
X134877772Y-57934048D01*
X135031586Y-57903452D01*
X135188414Y-57903452D01*
X135342228Y-57934048D01*
G37*
G36*
X95916742Y-55567601D02*
G01*
X96070687Y-55631367D01*
X96209234Y-55723941D01*
X96327059Y-55841766D01*
X96419633Y-55980313D01*
X96483399Y-56134258D01*
X96515907Y-56297685D01*
X96515907Y-56464315D01*
X96483399Y-56627742D01*
X96419633Y-56781687D01*
X96327059Y-56920234D01*
X96209234Y-57038059D01*
X96070687Y-57130633D01*
X95916742Y-57194399D01*
X95753315Y-57226907D01*
X95586685Y-57226907D01*
X95423258Y-57194399D01*
X95269313Y-57130633D01*
X95130766Y-57038059D01*
X95012941Y-56920234D01*
X94920367Y-56781687D01*
X94856601Y-56627742D01*
X94824093Y-56464315D01*
X94824093Y-56297685D01*
X94856601Y-56134258D01*
X94920367Y-55980313D01*
X95012941Y-55841766D01*
X95130766Y-55723941D01*
X95269313Y-55631367D01*
X95423258Y-55567601D01*
X95586685Y-55535093D01*
X95753315Y-55535093D01*
X95916742Y-55567601D01*
G37*
G36*
X108616742Y-55567601D02*
G01*
X108770687Y-55631367D01*
X108909234Y-55723941D01*
X109027059Y-55841766D01*
X109119633Y-55980313D01*
X109183399Y-56134258D01*
X109215907Y-56297685D01*
X109215907Y-56464315D01*
X109183399Y-56627742D01*
X109119633Y-56781687D01*
X109027059Y-56920234D01*
X108909234Y-57038059D01*
X108770687Y-57130633D01*
X108616742Y-57194399D01*
X108453315Y-57226907D01*
X108286685Y-57226907D01*
X108123258Y-57194399D01*
X107969313Y-57130633D01*
X107830766Y-57038059D01*
X107712941Y-56920234D01*
X107620367Y-56781687D01*
X107556601Y-56627742D01*
X107524093Y-56464315D01*
X107524093Y-56297685D01*
X107556601Y-56134258D01*
X107620367Y-55980313D01*
X107712941Y-55841766D01*
X107830766Y-55723941D01*
X107969313Y-55631367D01*
X108123258Y-55567601D01*
X108286685Y-55535093D01*
X108453315Y-55535093D01*
X108616742Y-55567601D01*
G37*
G36*
X141120000Y-54691000D02*
G01*
X139420000Y-54691000D01*
X139420000Y-52991000D01*
X141120000Y-52991000D01*
X141120000Y-54691000D01*
G37*
G36*
X95916742Y-53027601D02*
G01*
X96070687Y-53091367D01*
X96209234Y-53183941D01*
X96327059Y-53301766D01*
X96419633Y-53440313D01*
X96483399Y-53594258D01*
X96515907Y-53757685D01*
X96515907Y-53924315D01*
X96483399Y-54087742D01*
X96419633Y-54241687D01*
X96327059Y-54380234D01*
X96209234Y-54498059D01*
X96070687Y-54590633D01*
X95916742Y-54654399D01*
X95753315Y-54686907D01*
X95586685Y-54686907D01*
X95423258Y-54654399D01*
X95269313Y-54590633D01*
X95130766Y-54498059D01*
X95012941Y-54380234D01*
X94920367Y-54241687D01*
X94856601Y-54087742D01*
X94824093Y-53924315D01*
X94824093Y-53757685D01*
X94856601Y-53594258D01*
X94920367Y-53440313D01*
X95012941Y-53301766D01*
X95130766Y-53183941D01*
X95269313Y-53091367D01*
X95423258Y-53027601D01*
X95586685Y-52995093D01*
X95753315Y-52995093D01*
X95916742Y-53027601D01*
G37*
G36*
X108616742Y-53027601D02*
G01*
X108770687Y-53091367D01*
X108909234Y-53183941D01*
X109027059Y-53301766D01*
X109119633Y-53440313D01*
X109183399Y-53594258D01*
X109215907Y-53757685D01*
X109215907Y-53924315D01*
X109183399Y-54087742D01*
X109119633Y-54241687D01*
X109027059Y-54380234D01*
X108909234Y-54498059D01*
X108770687Y-54590633D01*
X108616742Y-54654399D01*
X108453315Y-54686907D01*
X108286685Y-54686907D01*
X108123258Y-54654399D01*
X107969313Y-54590633D01*
X107830766Y-54498059D01*
X107712941Y-54380234D01*
X107620367Y-54241687D01*
X107556601Y-54087742D01*
X107524093Y-53924315D01*
X107524093Y-53757685D01*
X107556601Y-53594258D01*
X107620367Y-53440313D01*
X107712941Y-53301766D01*
X107830766Y-53183941D01*
X107969313Y-53091367D01*
X108123258Y-53027601D01*
X108286685Y-52995093D01*
X108453315Y-52995093D01*
X108616742Y-53027601D01*
G37*
G36*
X143056742Y-53027601D02*
G01*
X143210687Y-53091367D01*
X143349234Y-53183941D01*
X143467059Y-53301766D01*
X143559633Y-53440313D01*
X143623399Y-53594258D01*
X143655907Y-53757685D01*
X143655907Y-53924315D01*
X143623399Y-54087742D01*
X143559633Y-54241687D01*
X143467059Y-54380234D01*
X143349234Y-54498059D01*
X143210687Y-54590633D01*
X143056742Y-54654399D01*
X142893315Y-54686907D01*
X142726685Y-54686907D01*
X142563258Y-54654399D01*
X142409313Y-54590633D01*
X142270766Y-54498059D01*
X142152941Y-54380234D01*
X142060367Y-54241687D01*
X141996601Y-54087742D01*
X141964093Y-53924315D01*
X141964093Y-53757685D01*
X141996601Y-53594258D01*
X142060367Y-53440313D01*
X142152941Y-53301766D01*
X142270766Y-53183941D01*
X142409313Y-53091367D01*
X142563258Y-53027601D01*
X142726685Y-52995093D01*
X142893315Y-52995093D01*
X143056742Y-53027601D01*
G37*
G36*
X145596742Y-53027601D02*
G01*
X145750687Y-53091367D01*
X145889234Y-53183941D01*
X146007059Y-53301766D01*
X146099633Y-53440313D01*
X146163399Y-53594258D01*
X146195907Y-53757685D01*
X146195907Y-53924315D01*
X146163399Y-54087742D01*
X146099633Y-54241687D01*
X146007059Y-54380234D01*
X145889234Y-54498059D01*
X145750687Y-54590633D01*
X145596742Y-54654399D01*
X145433315Y-54686907D01*
X145266685Y-54686907D01*
X145103258Y-54654399D01*
X144949313Y-54590633D01*
X144810766Y-54498059D01*
X144692941Y-54380234D01*
X144600367Y-54241687D01*
X144536601Y-54087742D01*
X144504093Y-53924315D01*
X144504093Y-53757685D01*
X144536601Y-53594258D01*
X144600367Y-53440313D01*
X144692941Y-53301766D01*
X144810766Y-53183941D01*
X144949313Y-53091367D01*
X145103258Y-53027601D01*
X145266685Y-52995093D01*
X145433315Y-52995093D01*
X145596742Y-53027601D01*
G37*
G36*
X148136742Y-53027601D02*
G01*
X148290687Y-53091367D01*
X148429234Y-53183941D01*
X148547059Y-53301766D01*
X148639633Y-53440313D01*
X148703399Y-53594258D01*
X148735907Y-53757685D01*
X148735907Y-53924315D01*
X148703399Y-54087742D01*
X148639633Y-54241687D01*
X148547059Y-54380234D01*
X148429234Y-54498059D01*
X148290687Y-54590633D01*
X148136742Y-54654399D01*
X147973315Y-54686907D01*
X147806685Y-54686907D01*
X147643258Y-54654399D01*
X147489313Y-54590633D01*
X147350766Y-54498059D01*
X147232941Y-54380234D01*
X147140367Y-54241687D01*
X147076601Y-54087742D01*
X147044093Y-53924315D01*
X147044093Y-53757685D01*
X147076601Y-53594258D01*
X147140367Y-53440313D01*
X147232941Y-53301766D01*
X147350766Y-53183941D01*
X147489313Y-53091367D01*
X147643258Y-53027601D01*
X147806685Y-52995093D01*
X147973315Y-52995093D01*
X148136742Y-53027601D01*
G37*
G36*
X150676742Y-53027601D02*
G01*
X150830687Y-53091367D01*
X150969234Y-53183941D01*
X151087059Y-53301766D01*
X151179633Y-53440313D01*
X151243399Y-53594258D01*
X151275907Y-53757685D01*
X151275907Y-53924315D01*
X151243399Y-54087742D01*
X151179633Y-54241687D01*
X151087059Y-54380234D01*
X150969234Y-54498059D01*
X150830687Y-54590633D01*
X150676742Y-54654399D01*
X150513315Y-54686907D01*
X150346685Y-54686907D01*
X150183258Y-54654399D01*
X150029313Y-54590633D01*
X149890766Y-54498059D01*
X149772941Y-54380234D01*
X149680367Y-54241687D01*
X149616601Y-54087742D01*
X149584093Y-53924315D01*
X149584093Y-53757685D01*
X149616601Y-53594258D01*
X149680367Y-53440313D01*
X149772941Y-53301766D01*
X149890766Y-53183941D01*
X150029313Y-53091367D01*
X150183258Y-53027601D01*
X150346685Y-52995093D01*
X150513315Y-52995093D01*
X150676742Y-53027601D01*
G37*
G36*
X153216742Y-53027601D02*
G01*
X153370687Y-53091367D01*
X153509234Y-53183941D01*
X153627059Y-53301766D01*
X153719633Y-53440313D01*
X153783399Y-53594258D01*
X153815907Y-53757685D01*
X153815907Y-53924315D01*
X153783399Y-54087742D01*
X153719633Y-54241687D01*
X153627059Y-54380234D01*
X153509234Y-54498059D01*
X153370687Y-54590633D01*
X153216742Y-54654399D01*
X153053315Y-54686907D01*
X152886685Y-54686907D01*
X152723258Y-54654399D01*
X152569313Y-54590633D01*
X152430766Y-54498059D01*
X152312941Y-54380234D01*
X152220367Y-54241687D01*
X152156601Y-54087742D01*
X152124093Y-53924315D01*
X152124093Y-53757685D01*
X152156601Y-53594258D01*
X152220367Y-53440313D01*
X152312941Y-53301766D01*
X152430766Y-53183941D01*
X152569313Y-53091367D01*
X152723258Y-53027601D01*
X152886685Y-52995093D01*
X153053315Y-52995093D01*
X153216742Y-53027601D01*
G37*
G36*
X155756742Y-53027601D02*
G01*
X155910687Y-53091367D01*
X156049234Y-53183941D01*
X156167059Y-53301766D01*
X156259633Y-53440313D01*
X156323399Y-53594258D01*
X156355907Y-53757685D01*
X156355907Y-53924315D01*
X156323399Y-54087742D01*
X156259633Y-54241687D01*
X156167059Y-54380234D01*
X156049234Y-54498059D01*
X155910687Y-54590633D01*
X155756742Y-54654399D01*
X155593315Y-54686907D01*
X155426685Y-54686907D01*
X155263258Y-54654399D01*
X155109313Y-54590633D01*
X154970766Y-54498059D01*
X154852941Y-54380234D01*
X154760367Y-54241687D01*
X154696601Y-54087742D01*
X154664093Y-53924315D01*
X154664093Y-53757685D01*
X154696601Y-53594258D01*
X154760367Y-53440313D01*
X154852941Y-53301766D01*
X154970766Y-53183941D01*
X155109313Y-53091367D01*
X155263258Y-53027601D01*
X155426685Y-52995093D01*
X155593315Y-52995093D01*
X155756742Y-53027601D01*
G37*
G36*
X158296742Y-53027601D02*
G01*
X158450687Y-53091367D01*
X158589234Y-53183941D01*
X158707059Y-53301766D01*
X158799633Y-53440313D01*
X158863399Y-53594258D01*
X158895907Y-53757685D01*
X158895907Y-53924315D01*
X158863399Y-54087742D01*
X158799633Y-54241687D01*
X158707059Y-54380234D01*
X158589234Y-54498059D01*
X158450687Y-54590633D01*
X158296742Y-54654399D01*
X158133315Y-54686907D01*
X157966685Y-54686907D01*
X157803258Y-54654399D01*
X157649313Y-54590633D01*
X157510766Y-54498059D01*
X157392941Y-54380234D01*
X157300367Y-54241687D01*
X157236601Y-54087742D01*
X157204093Y-53924315D01*
X157204093Y-53757685D01*
X157236601Y-53594258D01*
X157300367Y-53440313D01*
X157392941Y-53301766D01*
X157510766Y-53183941D01*
X157649313Y-53091367D01*
X157803258Y-53027601D01*
X157966685Y-52995093D01*
X158133315Y-52995093D01*
X158296742Y-53027601D01*
G37*
G36*
X160836742Y-53027601D02*
G01*
X160990687Y-53091367D01*
X161129234Y-53183941D01*
X161247059Y-53301766D01*
X161339633Y-53440313D01*
X161403399Y-53594258D01*
X161435907Y-53757685D01*
X161435907Y-53924315D01*
X161403399Y-54087742D01*
X161339633Y-54241687D01*
X161247059Y-54380234D01*
X161129234Y-54498059D01*
X160990687Y-54590633D01*
X160836742Y-54654399D01*
X160673315Y-54686907D01*
X160506685Y-54686907D01*
X160343258Y-54654399D01*
X160189313Y-54590633D01*
X160050766Y-54498059D01*
X159932941Y-54380234D01*
X159840367Y-54241687D01*
X159776601Y-54087742D01*
X159744093Y-53924315D01*
X159744093Y-53757685D01*
X159776601Y-53594258D01*
X159840367Y-53440313D01*
X159932941Y-53301766D01*
X160050766Y-53183941D01*
X160189313Y-53091367D01*
X160343258Y-53027601D01*
X160506685Y-52995093D01*
X160673315Y-52995093D01*
X160836742Y-53027601D01*
G37*
G36*
X163376742Y-53027601D02*
G01*
X163530687Y-53091367D01*
X163669234Y-53183941D01*
X163787059Y-53301766D01*
X163879633Y-53440313D01*
X163943399Y-53594258D01*
X163975907Y-53757685D01*
X163975907Y-53924315D01*
X163943399Y-54087742D01*
X163879633Y-54241687D01*
X163787059Y-54380234D01*
X163669234Y-54498059D01*
X163530687Y-54590633D01*
X163376742Y-54654399D01*
X163213315Y-54686907D01*
X163046685Y-54686907D01*
X162883258Y-54654399D01*
X162729313Y-54590633D01*
X162590766Y-54498059D01*
X162472941Y-54380234D01*
X162380367Y-54241687D01*
X162316601Y-54087742D01*
X162284093Y-53924315D01*
X162284093Y-53757685D01*
X162316601Y-53594258D01*
X162380367Y-53440313D01*
X162472941Y-53301766D01*
X162590766Y-53183941D01*
X162729313Y-53091367D01*
X162883258Y-53027601D01*
X163046685Y-52995093D01*
X163213315Y-52995093D01*
X163376742Y-53027601D01*
G37*
G36*
X109220000Y-49620000D02*
G01*
X107520000Y-49620000D01*
X107520000Y-47920000D01*
X109220000Y-47920000D01*
X109220000Y-49620000D01*
G37*
G36*
X111156742Y-47956601D02*
G01*
X111310687Y-48020367D01*
X111449234Y-48112941D01*
X111567059Y-48230766D01*
X111659633Y-48369313D01*
X111723399Y-48523258D01*
X111755907Y-48686685D01*
X111755907Y-48853315D01*
X111723399Y-49016742D01*
X111659633Y-49170687D01*
X111567059Y-49309234D01*
X111449234Y-49427059D01*
X111310687Y-49519633D01*
X111156742Y-49583399D01*
X110993315Y-49615907D01*
X110826685Y-49615907D01*
X110663258Y-49583399D01*
X110509313Y-49519633D01*
X110370766Y-49427059D01*
X110252941Y-49309234D01*
X110160367Y-49170687D01*
X110096601Y-49016742D01*
X110064093Y-48853315D01*
X110064093Y-48686685D01*
X110096601Y-48523258D01*
X110160367Y-48369313D01*
X110252941Y-48230766D01*
X110370766Y-48112941D01*
X110509313Y-48020367D01*
X110663258Y-47956601D01*
X110826685Y-47924093D01*
X110993315Y-47924093D01*
X111156742Y-47956601D01*
G37*
G36*
X113696742Y-47956601D02*
G01*
X113850687Y-48020367D01*
X113989234Y-48112941D01*
X114107059Y-48230766D01*
X114199633Y-48369313D01*
X114263399Y-48523258D01*
X114295907Y-48686685D01*
X114295907Y-48853315D01*
X114263399Y-49016742D01*
X114199633Y-49170687D01*
X114107059Y-49309234D01*
X113989234Y-49427059D01*
X113850687Y-49519633D01*
X113696742Y-49583399D01*
X113533315Y-49615907D01*
X113366685Y-49615907D01*
X113203258Y-49583399D01*
X113049313Y-49519633D01*
X112910766Y-49427059D01*
X112792941Y-49309234D01*
X112700367Y-49170687D01*
X112636601Y-49016742D01*
X112604093Y-48853315D01*
X112604093Y-48686685D01*
X112636601Y-48523258D01*
X112700367Y-48369313D01*
X112792941Y-48230766D01*
X112910766Y-48112941D01*
X113049313Y-48020367D01*
X113203258Y-47956601D01*
X113366685Y-47924093D01*
X113533315Y-47924093D01*
X113696742Y-47956601D01*
G37*
G36*
X116236742Y-47956601D02*
G01*
X116390687Y-48020367D01*
X116529234Y-48112941D01*
X116647059Y-48230766D01*
X116739633Y-48369313D01*
X116803399Y-48523258D01*
X116835907Y-48686685D01*
X116835907Y-48853315D01*
X116803399Y-49016742D01*
X116739633Y-49170687D01*
X116647059Y-49309234D01*
X116529234Y-49427059D01*
X116390687Y-49519633D01*
X116236742Y-49583399D01*
X116073315Y-49615907D01*
X115906685Y-49615907D01*
X115743258Y-49583399D01*
X115589313Y-49519633D01*
X115450766Y-49427059D01*
X115332941Y-49309234D01*
X115240367Y-49170687D01*
X115176601Y-49016742D01*
X115144093Y-48853315D01*
X115144093Y-48686685D01*
X115176601Y-48523258D01*
X115240367Y-48369313D01*
X115332941Y-48230766D01*
X115450766Y-48112941D01*
X115589313Y-48020367D01*
X115743258Y-47956601D01*
X115906685Y-47924093D01*
X116073315Y-47924093D01*
X116236742Y-47956601D01*
G37*
G36*
X118776742Y-47956601D02*
G01*
X118930687Y-48020367D01*
X119069234Y-48112941D01*
X119187059Y-48230766D01*
X119279633Y-48369313D01*
X119343399Y-48523258D01*
X119375907Y-48686685D01*
X119375907Y-48853315D01*
X119343399Y-49016742D01*
X119279633Y-49170687D01*
X119187059Y-49309234D01*
X119069234Y-49427059D01*
X118930687Y-49519633D01*
X118776742Y-49583399D01*
X118613315Y-49615907D01*
X118446685Y-49615907D01*
X118283258Y-49583399D01*
X118129313Y-49519633D01*
X117990766Y-49427059D01*
X117872941Y-49309234D01*
X117780367Y-49170687D01*
X117716601Y-49016742D01*
X117684093Y-48853315D01*
X117684093Y-48686685D01*
X117716601Y-48523258D01*
X117780367Y-48369313D01*
X117872941Y-48230766D01*
X117990766Y-48112941D01*
X118129313Y-48020367D01*
X118283258Y-47956601D01*
X118446685Y-47924093D01*
X118613315Y-47924093D01*
X118776742Y-47956601D01*
G37*
G36*
X121316742Y-47956601D02*
G01*
X121470687Y-48020367D01*
X121609234Y-48112941D01*
X121727059Y-48230766D01*
X121819633Y-48369313D01*
X121883399Y-48523258D01*
X121915907Y-48686685D01*
X121915907Y-48853315D01*
X121883399Y-49016742D01*
X121819633Y-49170687D01*
X121727059Y-49309234D01*
X121609234Y-49427059D01*
X121470687Y-49519633D01*
X121316742Y-49583399D01*
X121153315Y-49615907D01*
X120986685Y-49615907D01*
X120823258Y-49583399D01*
X120669313Y-49519633D01*
X120530766Y-49427059D01*
X120412941Y-49309234D01*
X120320367Y-49170687D01*
X120256601Y-49016742D01*
X120224093Y-48853315D01*
X120224093Y-48686685D01*
X120256601Y-48523258D01*
X120320367Y-48369313D01*
X120412941Y-48230766D01*
X120530766Y-48112941D01*
X120669313Y-48020367D01*
X120823258Y-47956601D01*
X120986685Y-47924093D01*
X121153315Y-47924093D01*
X121316742Y-47956601D01*
G37*
G36*
X123856742Y-47956601D02*
G01*
X124010687Y-48020367D01*
X124149234Y-48112941D01*
X124267059Y-48230766D01*
X124359633Y-48369313D01*
X124423399Y-48523258D01*
X124455907Y-48686685D01*
X124455907Y-48853315D01*
X124423399Y-49016742D01*
X124359633Y-49170687D01*
X124267059Y-49309234D01*
X124149234Y-49427059D01*
X124010687Y-49519633D01*
X123856742Y-49583399D01*
X123693315Y-49615907D01*
X123526685Y-49615907D01*
X123363258Y-49583399D01*
X123209313Y-49519633D01*
X123070766Y-49427059D01*
X122952941Y-49309234D01*
X122860367Y-49170687D01*
X122796601Y-49016742D01*
X122764093Y-48853315D01*
X122764093Y-48686685D01*
X122796601Y-48523258D01*
X122860367Y-48369313D01*
X122952941Y-48230766D01*
X123070766Y-48112941D01*
X123209313Y-48020367D01*
X123363258Y-47956601D01*
X123526685Y-47924093D01*
X123693315Y-47924093D01*
X123856742Y-47956601D01*
G37*
G36*
X126396742Y-47956601D02*
G01*
X126550687Y-48020367D01*
X126689234Y-48112941D01*
X126807059Y-48230766D01*
X126899633Y-48369313D01*
X126963399Y-48523258D01*
X126995907Y-48686685D01*
X126995907Y-48853315D01*
X126963399Y-49016742D01*
X126899633Y-49170687D01*
X126807059Y-49309234D01*
X126689234Y-49427059D01*
X126550687Y-49519633D01*
X126396742Y-49583399D01*
X126233315Y-49615907D01*
X126066685Y-49615907D01*
X125903258Y-49583399D01*
X125749313Y-49519633D01*
X125610766Y-49427059D01*
X125492941Y-49309234D01*
X125400367Y-49170687D01*
X125336601Y-49016742D01*
X125304093Y-48853315D01*
X125304093Y-48686685D01*
X125336601Y-48523258D01*
X125400367Y-48369313D01*
X125492941Y-48230766D01*
X125610766Y-48112941D01*
X125749313Y-48020367D01*
X125903258Y-47956601D01*
X126066685Y-47924093D01*
X126233315Y-47924093D01*
X126396742Y-47956601D01*
G37*
G36*
X128936742Y-47956601D02*
G01*
X129090687Y-48020367D01*
X129229234Y-48112941D01*
X129347059Y-48230766D01*
X129439633Y-48369313D01*
X129503399Y-48523258D01*
X129535907Y-48686685D01*
X129535907Y-48853315D01*
X129503399Y-49016742D01*
X129439633Y-49170687D01*
X129347059Y-49309234D01*
X129229234Y-49427059D01*
X129090687Y-49519633D01*
X128936742Y-49583399D01*
X128773315Y-49615907D01*
X128606685Y-49615907D01*
X128443258Y-49583399D01*
X128289313Y-49519633D01*
X128150766Y-49427059D01*
X128032941Y-49309234D01*
X127940367Y-49170687D01*
X127876601Y-49016742D01*
X127844093Y-48853315D01*
X127844093Y-48686685D01*
X127876601Y-48523258D01*
X127940367Y-48369313D01*
X128032941Y-48230766D01*
X128150766Y-48112941D01*
X128289313Y-48020367D01*
X128443258Y-47956601D01*
X128606685Y-47924093D01*
X128773315Y-47924093D01*
X128936742Y-47956601D01*
G37*
G36*
X131476742Y-47956601D02*
G01*
X131630687Y-48020367D01*
X131769234Y-48112941D01*
X131887059Y-48230766D01*
X131979633Y-48369313D01*
X132043399Y-48523258D01*
X132075907Y-48686685D01*
X132075907Y-48853315D01*
X132043399Y-49016742D01*
X131979633Y-49170687D01*
X131887059Y-49309234D01*
X131769234Y-49427059D01*
X131630687Y-49519633D01*
X131476742Y-49583399D01*
X131313315Y-49615907D01*
X131146685Y-49615907D01*
X130983258Y-49583399D01*
X130829313Y-49519633D01*
X130690766Y-49427059D01*
X130572941Y-49309234D01*
X130480367Y-49170687D01*
X130416601Y-49016742D01*
X130384093Y-48853315D01*
X130384093Y-48686685D01*
X130416601Y-48523258D01*
X130480367Y-48369313D01*
X130572941Y-48230766D01*
X130690766Y-48112941D01*
X130829313Y-48020367D01*
X130983258Y-47956601D01*
X131146685Y-47924093D01*
X131313315Y-47924093D01*
X131476742Y-47956601D01*
G37*
G36*
X134016742Y-47956601D02*
G01*
X134170687Y-48020367D01*
X134309234Y-48112941D01*
X134427059Y-48230766D01*
X134519633Y-48369313D01*
X134583399Y-48523258D01*
X134615907Y-48686685D01*
X134615907Y-48853315D01*
X134583399Y-49016742D01*
X134519633Y-49170687D01*
X134427059Y-49309234D01*
X134309234Y-49427059D01*
X134170687Y-49519633D01*
X134016742Y-49583399D01*
X133853315Y-49615907D01*
X133686685Y-49615907D01*
X133523258Y-49583399D01*
X133369313Y-49519633D01*
X133230766Y-49427059D01*
X133112941Y-49309234D01*
X133020367Y-49170687D01*
X132956601Y-49016742D01*
X132924093Y-48853315D01*
X132924093Y-48686685D01*
X132956601Y-48523258D01*
X133020367Y-48369313D01*
X133112941Y-48230766D01*
X133230766Y-48112941D01*
X133369313Y-48020367D01*
X133523258Y-47956601D01*
X133686685Y-47924093D01*
X133853315Y-47924093D01*
X134016742Y-47956601D01*
G37*
G36*
X136556742Y-47956601D02*
G01*
X136710687Y-48020367D01*
X136849234Y-48112941D01*
X136967059Y-48230766D01*
X137059633Y-48369313D01*
X137123399Y-48523258D01*
X137155907Y-48686685D01*
X137155907Y-48853315D01*
X137123399Y-49016742D01*
X137059633Y-49170687D01*
X136967059Y-49309234D01*
X136849234Y-49427059D01*
X136710687Y-49519633D01*
X136556742Y-49583399D01*
X136393315Y-49615907D01*
X136226685Y-49615907D01*
X136063258Y-49583399D01*
X135909313Y-49519633D01*
X135770766Y-49427059D01*
X135652941Y-49309234D01*
X135560367Y-49170687D01*
X135496601Y-49016742D01*
X135464093Y-48853315D01*
X135464093Y-48686685D01*
X135496601Y-48523258D01*
X135560367Y-48369313D01*
X135652941Y-48230766D01*
X135770766Y-48112941D01*
X135909313Y-48020367D01*
X136063258Y-47956601D01*
X136226685Y-47924093D01*
X136393315Y-47924093D01*
X136556742Y-47956601D01*
G37*
G36*
X139096742Y-47956601D02*
G01*
X139250687Y-48020367D01*
X139389234Y-48112941D01*
X139507059Y-48230766D01*
X139599633Y-48369313D01*
X139663399Y-48523258D01*
X139695907Y-48686685D01*
X139695907Y-48853315D01*
X139663399Y-49016742D01*
X139599633Y-49170687D01*
X139507059Y-49309234D01*
X139389234Y-49427059D01*
X139250687Y-49519633D01*
X139096742Y-49583399D01*
X138933315Y-49615907D01*
X138766685Y-49615907D01*
X138603258Y-49583399D01*
X138449313Y-49519633D01*
X138310766Y-49427059D01*
X138192941Y-49309234D01*
X138100367Y-49170687D01*
X138036601Y-49016742D01*
X138004093Y-48853315D01*
X138004093Y-48686685D01*
X138036601Y-48523258D01*
X138100367Y-48369313D01*
X138192941Y-48230766D01*
X138310766Y-48112941D01*
X138449313Y-48020367D01*
X138603258Y-47956601D01*
X138766685Y-47924093D01*
X138933315Y-47924093D01*
X139096742Y-47956601D01*
G37*
G36*
X141636742Y-47956601D02*
G01*
X141790687Y-48020367D01*
X141929234Y-48112941D01*
X142047059Y-48230766D01*
X142139633Y-48369313D01*
X142203399Y-48523258D01*
X142235907Y-48686685D01*
X142235907Y-48853315D01*
X142203399Y-49016742D01*
X142139633Y-49170687D01*
X142047059Y-49309234D01*
X141929234Y-49427059D01*
X141790687Y-49519633D01*
X141636742Y-49583399D01*
X141473315Y-49615907D01*
X141306685Y-49615907D01*
X141143258Y-49583399D01*
X140989313Y-49519633D01*
X140850766Y-49427059D01*
X140732941Y-49309234D01*
X140640367Y-49170687D01*
X140576601Y-49016742D01*
X140544093Y-48853315D01*
X140544093Y-48686685D01*
X140576601Y-48523258D01*
X140640367Y-48369313D01*
X140732941Y-48230766D01*
X140850766Y-48112941D01*
X140989313Y-48020367D01*
X141143258Y-47956601D01*
X141306685Y-47924093D01*
X141473315Y-47924093D01*
X141636742Y-47956601D01*
G37*
G36*
X144176742Y-47956601D02*
G01*
X144330687Y-48020367D01*
X144469234Y-48112941D01*
X144587059Y-48230766D01*
X144679633Y-48369313D01*
X144743399Y-48523258D01*
X144775907Y-48686685D01*
X144775907Y-48853315D01*
X144743399Y-49016742D01*
X144679633Y-49170687D01*
X144587059Y-49309234D01*
X144469234Y-49427059D01*
X144330687Y-49519633D01*
X144176742Y-49583399D01*
X144013315Y-49615907D01*
X143846685Y-49615907D01*
X143683258Y-49583399D01*
X143529313Y-49519633D01*
X143390766Y-49427059D01*
X143272941Y-49309234D01*
X143180367Y-49170687D01*
X143116601Y-49016742D01*
X143084093Y-48853315D01*
X143084093Y-48686685D01*
X143116601Y-48523258D01*
X143180367Y-48369313D01*
X143272941Y-48230766D01*
X143390766Y-48112941D01*
X143529313Y-48020367D01*
X143683258Y-47956601D01*
X143846685Y-47924093D01*
X144013315Y-47924093D01*
X144176742Y-47956601D01*
G37*
G36*
X146716742Y-47956601D02*
G01*
X146870687Y-48020367D01*
X147009234Y-48112941D01*
X147127059Y-48230766D01*
X147219633Y-48369313D01*
X147283399Y-48523258D01*
X147315907Y-48686685D01*
X147315907Y-48853315D01*
X147283399Y-49016742D01*
X147219633Y-49170687D01*
X147127059Y-49309234D01*
X147009234Y-49427059D01*
X146870687Y-49519633D01*
X146716742Y-49583399D01*
X146553315Y-49615907D01*
X146386685Y-49615907D01*
X146223258Y-49583399D01*
X146069313Y-49519633D01*
X145930766Y-49427059D01*
X145812941Y-49309234D01*
X145720367Y-49170687D01*
X145656601Y-49016742D01*
X145624093Y-48853315D01*
X145624093Y-48686685D01*
X145656601Y-48523258D01*
X145720367Y-48369313D01*
X145812941Y-48230766D01*
X145930766Y-48112941D01*
X146069313Y-48020367D01*
X146223258Y-47956601D01*
X146386685Y-47924093D01*
X146553315Y-47924093D01*
X146716742Y-47956601D01*
G37*
G36*
X149256742Y-47956601D02*
G01*
X149410687Y-48020367D01*
X149549234Y-48112941D01*
X149667059Y-48230766D01*
X149759633Y-48369313D01*
X149823399Y-48523258D01*
X149855907Y-48686685D01*
X149855907Y-48853315D01*
X149823399Y-49016742D01*
X149759633Y-49170687D01*
X149667059Y-49309234D01*
X149549234Y-49427059D01*
X149410687Y-49519633D01*
X149256742Y-49583399D01*
X149093315Y-49615907D01*
X148926685Y-49615907D01*
X148763258Y-49583399D01*
X148609313Y-49519633D01*
X148470766Y-49427059D01*
X148352941Y-49309234D01*
X148260367Y-49170687D01*
X148196601Y-49016742D01*
X148164093Y-48853315D01*
X148164093Y-48686685D01*
X148196601Y-48523258D01*
X148260367Y-48369313D01*
X148352941Y-48230766D01*
X148470766Y-48112941D01*
X148609313Y-48020367D01*
X148763258Y-47956601D01*
X148926685Y-47924093D01*
X149093315Y-47924093D01*
X149256742Y-47956601D01*
G37*
G36*
X151796742Y-47956601D02*
G01*
X151950687Y-48020367D01*
X152089234Y-48112941D01*
X152207059Y-48230766D01*
X152299633Y-48369313D01*
X152363399Y-48523258D01*
X152395907Y-48686685D01*
X152395907Y-48853315D01*
X152363399Y-49016742D01*
X152299633Y-49170687D01*
X152207059Y-49309234D01*
X152089234Y-49427059D01*
X151950687Y-49519633D01*
X151796742Y-49583399D01*
X151633315Y-49615907D01*
X151466685Y-49615907D01*
X151303258Y-49583399D01*
X151149313Y-49519633D01*
X151010766Y-49427059D01*
X150892941Y-49309234D01*
X150800367Y-49170687D01*
X150736601Y-49016742D01*
X150704093Y-48853315D01*
X150704093Y-48686685D01*
X150736601Y-48523258D01*
X150800367Y-48369313D01*
X150892941Y-48230766D01*
X151010766Y-48112941D01*
X151149313Y-48020367D01*
X151303258Y-47956601D01*
X151466685Y-47924093D01*
X151633315Y-47924093D01*
X151796742Y-47956601D01*
G37*
G36*
X154336742Y-47956601D02*
G01*
X154490687Y-48020367D01*
X154629234Y-48112941D01*
X154747059Y-48230766D01*
X154839633Y-48369313D01*
X154903399Y-48523258D01*
X154935907Y-48686685D01*
X154935907Y-48853315D01*
X154903399Y-49016742D01*
X154839633Y-49170687D01*
X154747059Y-49309234D01*
X154629234Y-49427059D01*
X154490687Y-49519633D01*
X154336742Y-49583399D01*
X154173315Y-49615907D01*
X154006685Y-49615907D01*
X153843258Y-49583399D01*
X153689313Y-49519633D01*
X153550766Y-49427059D01*
X153432941Y-49309234D01*
X153340367Y-49170687D01*
X153276601Y-49016742D01*
X153244093Y-48853315D01*
X153244093Y-48686685D01*
X153276601Y-48523258D01*
X153340367Y-48369313D01*
X153432941Y-48230766D01*
X153550766Y-48112941D01*
X153689313Y-48020367D01*
X153843258Y-47956601D01*
X154006685Y-47924093D01*
X154173315Y-47924093D01*
X154336742Y-47956601D01*
G37*
G36*
X156876742Y-47956601D02*
G01*
X157030687Y-48020367D01*
X157169234Y-48112941D01*
X157287059Y-48230766D01*
X157379633Y-48369313D01*
X157443399Y-48523258D01*
X157475907Y-48686685D01*
X157475907Y-48853315D01*
X157443399Y-49016742D01*
X157379633Y-49170687D01*
X157287059Y-49309234D01*
X157169234Y-49427059D01*
X157030687Y-49519633D01*
X156876742Y-49583399D01*
X156713315Y-49615907D01*
X156546685Y-49615907D01*
X156383258Y-49583399D01*
X156229313Y-49519633D01*
X156090766Y-49427059D01*
X155972941Y-49309234D01*
X155880367Y-49170687D01*
X155816601Y-49016742D01*
X155784093Y-48853315D01*
X155784093Y-48686685D01*
X155816601Y-48523258D01*
X155880367Y-48369313D01*
X155972941Y-48230766D01*
X156090766Y-48112941D01*
X156229313Y-48020367D01*
X156383258Y-47956601D01*
X156546685Y-47924093D01*
X156713315Y-47924093D01*
X156876742Y-47956601D01*
G37*
G36*
X103815151Y-46187301D02*
G01*
X104016623Y-46252763D01*
X104205373Y-46348936D01*
X104376755Y-46473452D01*
X104526548Y-46623245D01*
X104651064Y-46794627D01*
X104747237Y-46983377D01*
X104812699Y-47184849D01*
X104845838Y-47394080D01*
X104845838Y-47605920D01*
X104812699Y-47815151D01*
X104747237Y-48016623D01*
X104651064Y-48205373D01*
X104526548Y-48376755D01*
X104376755Y-48526548D01*
X104205373Y-48651064D01*
X104016623Y-48747237D01*
X103815151Y-48812699D01*
X103605920Y-48845838D01*
X103394080Y-48845838D01*
X103184849Y-48812699D01*
X102983377Y-48747237D01*
X102794627Y-48651064D01*
X102623245Y-48526548D01*
X102473452Y-48376755D01*
X102348936Y-48205373D01*
X102252763Y-48016623D01*
X102187301Y-47815151D01*
X102154162Y-47605920D01*
X102154162Y-47394080D01*
X102187301Y-47184849D01*
X102252763Y-46983377D01*
X102348936Y-46794627D01*
X102473452Y-46623245D01*
X102623245Y-46473452D01*
X102794627Y-46348936D01*
X102983377Y-46252763D01*
X103184849Y-46187301D01*
X103394080Y-46154162D01*
X103605920Y-46154162D01*
X103815151Y-46187301D01*
G37*
G36*
X161815151Y-46187301D02*
G01*
X162016623Y-46252763D01*
X162205373Y-46348936D01*
X162376755Y-46473452D01*
X162526548Y-46623245D01*
X162651064Y-46794627D01*
X162747237Y-46983377D01*
X162812699Y-47184849D01*
X162845838Y-47394080D01*
X162845838Y-47605920D01*
X162812699Y-47815151D01*
X162747237Y-48016623D01*
X162651064Y-48205373D01*
X162526548Y-48376755D01*
X162376755Y-48526548D01*
X162205373Y-48651064D01*
X162016623Y-48747237D01*
X161815151Y-48812699D01*
X161605920Y-48845838D01*
X161394080Y-48845838D01*
X161184849Y-48812699D01*
X160983377Y-48747237D01*
X160794627Y-48651064D01*
X160623245Y-48526548D01*
X160473452Y-48376755D01*
X160348936Y-48205373D01*
X160252763Y-48016623D01*
X160187301Y-47815151D01*
X160154162Y-47605920D01*
X160154162Y-47394080D01*
X160187301Y-47184849D01*
X160252763Y-46983377D01*
X160348936Y-46794627D01*
X160473452Y-46623245D01*
X160623245Y-46473452D01*
X160794627Y-46348936D01*
X160983377Y-46252763D01*
X161184849Y-46187301D01*
X161394080Y-46154162D01*
X161605920Y-46154162D01*
X161815151Y-46187301D01*
G37*
G36*
X108616742Y-45416601D02*
G01*
X108770687Y-45480367D01*
X108909234Y-45572941D01*
X109027059Y-45690766D01*
X109119633Y-45829313D01*
X109183399Y-45983258D01*
X109215907Y-46146685D01*
X109215907Y-46313315D01*
X109183399Y-46476742D01*
X109119633Y-46630687D01*
X109027059Y-46769234D01*
X108909234Y-46887059D01*
X108770687Y-46979633D01*
X108616742Y-47043399D01*
X108453315Y-47075907D01*
X108286685Y-47075907D01*
X108123258Y-47043399D01*
X107969313Y-46979633D01*
X107830766Y-46887059D01*
X107712941Y-46769234D01*
X107620367Y-46630687D01*
X107556601Y-46476742D01*
X107524093Y-46313315D01*
X107524093Y-46146685D01*
X107556601Y-45983258D01*
X107620367Y-45829313D01*
X107712941Y-45690766D01*
X107830766Y-45572941D01*
X107969313Y-45480367D01*
X108123258Y-45416601D01*
X108286685Y-45384093D01*
X108453315Y-45384093D01*
X108616742Y-45416601D01*
G37*
G36*
X111156742Y-45416601D02*
G01*
X111310687Y-45480367D01*
X111449234Y-45572941D01*
X111567059Y-45690766D01*
X111659633Y-45829313D01*
X111723399Y-45983258D01*
X111755907Y-46146685D01*
X111755907Y-46313315D01*
X111723399Y-46476742D01*
X111659633Y-46630687D01*
X111567059Y-46769234D01*
X111449234Y-46887059D01*
X111310687Y-46979633D01*
X111156742Y-47043399D01*
X110993315Y-47075907D01*
X110826685Y-47075907D01*
X110663258Y-47043399D01*
X110509313Y-46979633D01*
X110370766Y-46887059D01*
X110252941Y-46769234D01*
X110160367Y-46630687D01*
X110096601Y-46476742D01*
X110064093Y-46313315D01*
X110064093Y-46146685D01*
X110096601Y-45983258D01*
X110160367Y-45829313D01*
X110252941Y-45690766D01*
X110370766Y-45572941D01*
X110509313Y-45480367D01*
X110663258Y-45416601D01*
X110826685Y-45384093D01*
X110993315Y-45384093D01*
X111156742Y-45416601D01*
G37*
G36*
X113696742Y-45416601D02*
G01*
X113850687Y-45480367D01*
X113989234Y-45572941D01*
X114107059Y-45690766D01*
X114199633Y-45829313D01*
X114263399Y-45983258D01*
X114295907Y-46146685D01*
X114295907Y-46313315D01*
X114263399Y-46476742D01*
X114199633Y-46630687D01*
X114107059Y-46769234D01*
X113989234Y-46887059D01*
X113850687Y-46979633D01*
X113696742Y-47043399D01*
X113533315Y-47075907D01*
X113366685Y-47075907D01*
X113203258Y-47043399D01*
X113049313Y-46979633D01*
X112910766Y-46887059D01*
X112792941Y-46769234D01*
X112700367Y-46630687D01*
X112636601Y-46476742D01*
X112604093Y-46313315D01*
X112604093Y-46146685D01*
X112636601Y-45983258D01*
X112700367Y-45829313D01*
X112792941Y-45690766D01*
X112910766Y-45572941D01*
X113049313Y-45480367D01*
X113203258Y-45416601D01*
X113366685Y-45384093D01*
X113533315Y-45384093D01*
X113696742Y-45416601D01*
G37*
G36*
X116236742Y-45416601D02*
G01*
X116390687Y-45480367D01*
X116529234Y-45572941D01*
X116647059Y-45690766D01*
X116739633Y-45829313D01*
X116803399Y-45983258D01*
X116835907Y-46146685D01*
X116835907Y-46313315D01*
X116803399Y-46476742D01*
X116739633Y-46630687D01*
X116647059Y-46769234D01*
X116529234Y-46887059D01*
X116390687Y-46979633D01*
X116236742Y-47043399D01*
X116073315Y-47075907D01*
X115906685Y-47075907D01*
X115743258Y-47043399D01*
X115589313Y-46979633D01*
X115450766Y-46887059D01*
X115332941Y-46769234D01*
X115240367Y-46630687D01*
X115176601Y-46476742D01*
X115144093Y-46313315D01*
X115144093Y-46146685D01*
X115176601Y-45983258D01*
X115240367Y-45829313D01*
X115332941Y-45690766D01*
X115450766Y-45572941D01*
X115589313Y-45480367D01*
X115743258Y-45416601D01*
X115906685Y-45384093D01*
X116073315Y-45384093D01*
X116236742Y-45416601D01*
G37*
G36*
X118776742Y-45416601D02*
G01*
X118930687Y-45480367D01*
X119069234Y-45572941D01*
X119187059Y-45690766D01*
X119279633Y-45829313D01*
X119343399Y-45983258D01*
X119375907Y-46146685D01*
X119375907Y-46313315D01*
X119343399Y-46476742D01*
X119279633Y-46630687D01*
X119187059Y-46769234D01*
X119069234Y-46887059D01*
X118930687Y-46979633D01*
X118776742Y-47043399D01*
X118613315Y-47075907D01*
X118446685Y-47075907D01*
X118283258Y-47043399D01*
X118129313Y-46979633D01*
X117990766Y-46887059D01*
X117872941Y-46769234D01*
X117780367Y-46630687D01*
X117716601Y-46476742D01*
X117684093Y-46313315D01*
X117684093Y-46146685D01*
X117716601Y-45983258D01*
X117780367Y-45829313D01*
X117872941Y-45690766D01*
X117990766Y-45572941D01*
X118129313Y-45480367D01*
X118283258Y-45416601D01*
X118446685Y-45384093D01*
X118613315Y-45384093D01*
X118776742Y-45416601D01*
G37*
G36*
X121316742Y-45416601D02*
G01*
X121470687Y-45480367D01*
X121609234Y-45572941D01*
X121727059Y-45690766D01*
X121819633Y-45829313D01*
X121883399Y-45983258D01*
X121915907Y-46146685D01*
X121915907Y-46313315D01*
X121883399Y-46476742D01*
X121819633Y-46630687D01*
X121727059Y-46769234D01*
X121609234Y-46887059D01*
X121470687Y-46979633D01*
X121316742Y-47043399D01*
X121153315Y-47075907D01*
X120986685Y-47075907D01*
X120823258Y-47043399D01*
X120669313Y-46979633D01*
X120530766Y-46887059D01*
X120412941Y-46769234D01*
X120320367Y-46630687D01*
X120256601Y-46476742D01*
X120224093Y-46313315D01*
X120224093Y-46146685D01*
X120256601Y-45983258D01*
X120320367Y-45829313D01*
X120412941Y-45690766D01*
X120530766Y-45572941D01*
X120669313Y-45480367D01*
X120823258Y-45416601D01*
X120986685Y-45384093D01*
X121153315Y-45384093D01*
X121316742Y-45416601D01*
G37*
G36*
X123856742Y-45416601D02*
G01*
X124010687Y-45480367D01*
X124149234Y-45572941D01*
X124267059Y-45690766D01*
X124359633Y-45829313D01*
X124423399Y-45983258D01*
X124455907Y-46146685D01*
X124455907Y-46313315D01*
X124423399Y-46476742D01*
X124359633Y-46630687D01*
X124267059Y-46769234D01*
X124149234Y-46887059D01*
X124010687Y-46979633D01*
X123856742Y-47043399D01*
X123693315Y-47075907D01*
X123526685Y-47075907D01*
X123363258Y-47043399D01*
X123209313Y-46979633D01*
X123070766Y-46887059D01*
X122952941Y-46769234D01*
X122860367Y-46630687D01*
X122796601Y-46476742D01*
X122764093Y-46313315D01*
X122764093Y-46146685D01*
X122796601Y-45983258D01*
X122860367Y-45829313D01*
X122952941Y-45690766D01*
X123070766Y-45572941D01*
X123209313Y-45480367D01*
X123363258Y-45416601D01*
X123526685Y-45384093D01*
X123693315Y-45384093D01*
X123856742Y-45416601D01*
G37*
G36*
X126396742Y-45416601D02*
G01*
X126550687Y-45480367D01*
X126689234Y-45572941D01*
X126807059Y-45690766D01*
X126899633Y-45829313D01*
X126963399Y-45983258D01*
X126995907Y-46146685D01*
X126995907Y-46313315D01*
X126963399Y-46476742D01*
X126899633Y-46630687D01*
X126807059Y-46769234D01*
X126689234Y-46887059D01*
X126550687Y-46979633D01*
X126396742Y-47043399D01*
X126233315Y-47075907D01*
X126066685Y-47075907D01*
X125903258Y-47043399D01*
X125749313Y-46979633D01*
X125610766Y-46887059D01*
X125492941Y-46769234D01*
X125400367Y-46630687D01*
X125336601Y-46476742D01*
X125304093Y-46313315D01*
X125304093Y-46146685D01*
X125336601Y-45983258D01*
X125400367Y-45829313D01*
X125492941Y-45690766D01*
X125610766Y-45572941D01*
X125749313Y-45480367D01*
X125903258Y-45416601D01*
X126066685Y-45384093D01*
X126233315Y-45384093D01*
X126396742Y-45416601D01*
G37*
G36*
X128936742Y-45416601D02*
G01*
X129090687Y-45480367D01*
X129229234Y-45572941D01*
X129347059Y-45690766D01*
X129439633Y-45829313D01*
X129503399Y-45983258D01*
X129535907Y-46146685D01*
X129535907Y-46313315D01*
X129503399Y-46476742D01*
X129439633Y-46630687D01*
X129347059Y-46769234D01*
X129229234Y-46887059D01*
X129090687Y-46979633D01*
X128936742Y-47043399D01*
X128773315Y-47075907D01*
X128606685Y-47075907D01*
X128443258Y-47043399D01*
X128289313Y-46979633D01*
X128150766Y-46887059D01*
X128032941Y-46769234D01*
X127940367Y-46630687D01*
X127876601Y-46476742D01*
X127844093Y-46313315D01*
X127844093Y-46146685D01*
X127876601Y-45983258D01*
X127940367Y-45829313D01*
X128032941Y-45690766D01*
X128150766Y-45572941D01*
X128289313Y-45480367D01*
X128443258Y-45416601D01*
X128606685Y-45384093D01*
X128773315Y-45384093D01*
X128936742Y-45416601D01*
G37*
G36*
X131476742Y-45416601D02*
G01*
X131630687Y-45480367D01*
X131769234Y-45572941D01*
X131887059Y-45690766D01*
X131979633Y-45829313D01*
X132043399Y-45983258D01*
X132075907Y-46146685D01*
X132075907Y-46313315D01*
X132043399Y-46476742D01*
X131979633Y-46630687D01*
X131887059Y-46769234D01*
X131769234Y-46887059D01*
X131630687Y-46979633D01*
X131476742Y-47043399D01*
X131313315Y-47075907D01*
X131146685Y-47075907D01*
X130983258Y-47043399D01*
X130829313Y-46979633D01*
X130690766Y-46887059D01*
X130572941Y-46769234D01*
X130480367Y-46630687D01*
X130416601Y-46476742D01*
X130384093Y-46313315D01*
X130384093Y-46146685D01*
X130416601Y-45983258D01*
X130480367Y-45829313D01*
X130572941Y-45690766D01*
X130690766Y-45572941D01*
X130829313Y-45480367D01*
X130983258Y-45416601D01*
X131146685Y-45384093D01*
X131313315Y-45384093D01*
X131476742Y-45416601D01*
G37*
G36*
X134016742Y-45416601D02*
G01*
X134170687Y-45480367D01*
X134309234Y-45572941D01*
X134427059Y-45690766D01*
X134519633Y-45829313D01*
X134583399Y-45983258D01*
X134615907Y-46146685D01*
X134615907Y-46313315D01*
X134583399Y-46476742D01*
X134519633Y-46630687D01*
X134427059Y-46769234D01*
X134309234Y-46887059D01*
X134170687Y-46979633D01*
X134016742Y-47043399D01*
X133853315Y-47075907D01*
X133686685Y-47075907D01*
X133523258Y-47043399D01*
X133369313Y-46979633D01*
X133230766Y-46887059D01*
X133112941Y-46769234D01*
X133020367Y-46630687D01*
X132956601Y-46476742D01*
X132924093Y-46313315D01*
X132924093Y-46146685D01*
X132956601Y-45983258D01*
X133020367Y-45829313D01*
X133112941Y-45690766D01*
X133230766Y-45572941D01*
X133369313Y-45480367D01*
X133523258Y-45416601D01*
X133686685Y-45384093D01*
X133853315Y-45384093D01*
X134016742Y-45416601D01*
G37*
G36*
X136556742Y-45416601D02*
G01*
X136710687Y-45480367D01*
X136849234Y-45572941D01*
X136967059Y-45690766D01*
X137059633Y-45829313D01*
X137123399Y-45983258D01*
X137155907Y-46146685D01*
X137155907Y-46313315D01*
X137123399Y-46476742D01*
X137059633Y-46630687D01*
X136967059Y-46769234D01*
X136849234Y-46887059D01*
X136710687Y-46979633D01*
X136556742Y-47043399D01*
X136393315Y-47075907D01*
X136226685Y-47075907D01*
X136063258Y-47043399D01*
X135909313Y-46979633D01*
X135770766Y-46887059D01*
X135652941Y-46769234D01*
X135560367Y-46630687D01*
X135496601Y-46476742D01*
X135464093Y-46313315D01*
X135464093Y-46146685D01*
X135496601Y-45983258D01*
X135560367Y-45829313D01*
X135652941Y-45690766D01*
X135770766Y-45572941D01*
X135909313Y-45480367D01*
X136063258Y-45416601D01*
X136226685Y-45384093D01*
X136393315Y-45384093D01*
X136556742Y-45416601D01*
G37*
G36*
X139096742Y-45416601D02*
G01*
X139250687Y-45480367D01*
X139389234Y-45572941D01*
X139507059Y-45690766D01*
X139599633Y-45829313D01*
X139663399Y-45983258D01*
X139695907Y-46146685D01*
X139695907Y-46313315D01*
X139663399Y-46476742D01*
X139599633Y-46630687D01*
X139507059Y-46769234D01*
X139389234Y-46887059D01*
X139250687Y-46979633D01*
X139096742Y-47043399D01*
X138933315Y-47075907D01*
X138766685Y-47075907D01*
X138603258Y-47043399D01*
X138449313Y-46979633D01*
X138310766Y-46887059D01*
X138192941Y-46769234D01*
X138100367Y-46630687D01*
X138036601Y-46476742D01*
X138004093Y-46313315D01*
X138004093Y-46146685D01*
X138036601Y-45983258D01*
X138100367Y-45829313D01*
X138192941Y-45690766D01*
X138310766Y-45572941D01*
X138449313Y-45480367D01*
X138603258Y-45416601D01*
X138766685Y-45384093D01*
X138933315Y-45384093D01*
X139096742Y-45416601D01*
G37*
G36*
X141636742Y-45416601D02*
G01*
X141790687Y-45480367D01*
X141929234Y-45572941D01*
X142047059Y-45690766D01*
X142139633Y-45829313D01*
X142203399Y-45983258D01*
X142235907Y-46146685D01*
X142235907Y-46313315D01*
X142203399Y-46476742D01*
X142139633Y-46630687D01*
X142047059Y-46769234D01*
X141929234Y-46887059D01*
X141790687Y-46979633D01*
X141636742Y-47043399D01*
X141473315Y-47075907D01*
X141306685Y-47075907D01*
X141143258Y-47043399D01*
X140989313Y-46979633D01*
X140850766Y-46887059D01*
X140732941Y-46769234D01*
X140640367Y-46630687D01*
X140576601Y-46476742D01*
X140544093Y-46313315D01*
X140544093Y-46146685D01*
X140576601Y-45983258D01*
X140640367Y-45829313D01*
X140732941Y-45690766D01*
X140850766Y-45572941D01*
X140989313Y-45480367D01*
X141143258Y-45416601D01*
X141306685Y-45384093D01*
X141473315Y-45384093D01*
X141636742Y-45416601D01*
G37*
G36*
X144176742Y-45416601D02*
G01*
X144330687Y-45480367D01*
X144469234Y-45572941D01*
X144587059Y-45690766D01*
X144679633Y-45829313D01*
X144743399Y-45983258D01*
X144775907Y-46146685D01*
X144775907Y-46313315D01*
X144743399Y-46476742D01*
X144679633Y-46630687D01*
X144587059Y-46769234D01*
X144469234Y-46887059D01*
X144330687Y-46979633D01*
X144176742Y-47043399D01*
X144013315Y-47075907D01*
X143846685Y-47075907D01*
X143683258Y-47043399D01*
X143529313Y-46979633D01*
X143390766Y-46887059D01*
X143272941Y-46769234D01*
X143180367Y-46630687D01*
X143116601Y-46476742D01*
X143084093Y-46313315D01*
X143084093Y-46146685D01*
X143116601Y-45983258D01*
X143180367Y-45829313D01*
X143272941Y-45690766D01*
X143390766Y-45572941D01*
X143529313Y-45480367D01*
X143683258Y-45416601D01*
X143846685Y-45384093D01*
X144013315Y-45384093D01*
X144176742Y-45416601D01*
G37*
G36*
X146716742Y-45416601D02*
G01*
X146870687Y-45480367D01*
X147009234Y-45572941D01*
X147127059Y-45690766D01*
X147219633Y-45829313D01*
X147283399Y-45983258D01*
X147315907Y-46146685D01*
X147315907Y-46313315D01*
X147283399Y-46476742D01*
X147219633Y-46630687D01*
X147127059Y-46769234D01*
X147009234Y-46887059D01*
X146870687Y-46979633D01*
X146716742Y-47043399D01*
X146553315Y-47075907D01*
X146386685Y-47075907D01*
X146223258Y-47043399D01*
X146069313Y-46979633D01*
X145930766Y-46887059D01*
X145812941Y-46769234D01*
X145720367Y-46630687D01*
X145656601Y-46476742D01*
X145624093Y-46313315D01*
X145624093Y-46146685D01*
X145656601Y-45983258D01*
X145720367Y-45829313D01*
X145812941Y-45690766D01*
X145930766Y-45572941D01*
X146069313Y-45480367D01*
X146223258Y-45416601D01*
X146386685Y-45384093D01*
X146553315Y-45384093D01*
X146716742Y-45416601D01*
G37*
G36*
X149256742Y-45416601D02*
G01*
X149410687Y-45480367D01*
X149549234Y-45572941D01*
X149667059Y-45690766D01*
X149759633Y-45829313D01*
X149823399Y-45983258D01*
X149855907Y-46146685D01*
X149855907Y-46313315D01*
X149823399Y-46476742D01*
X149759633Y-46630687D01*
X149667059Y-46769234D01*
X149549234Y-46887059D01*
X149410687Y-46979633D01*
X149256742Y-47043399D01*
X149093315Y-47075907D01*
X148926685Y-47075907D01*
X148763258Y-47043399D01*
X148609313Y-46979633D01*
X148470766Y-46887059D01*
X148352941Y-46769234D01*
X148260367Y-46630687D01*
X148196601Y-46476742D01*
X148164093Y-46313315D01*
X148164093Y-46146685D01*
X148196601Y-45983258D01*
X148260367Y-45829313D01*
X148352941Y-45690766D01*
X148470766Y-45572941D01*
X148609313Y-45480367D01*
X148763258Y-45416601D01*
X148926685Y-45384093D01*
X149093315Y-45384093D01*
X149256742Y-45416601D01*
G37*
G36*
X151796742Y-45416601D02*
G01*
X151950687Y-45480367D01*
X152089234Y-45572941D01*
X152207059Y-45690766D01*
X152299633Y-45829313D01*
X152363399Y-45983258D01*
X152395907Y-46146685D01*
X152395907Y-46313315D01*
X152363399Y-46476742D01*
X152299633Y-46630687D01*
X152207059Y-46769234D01*
X152089234Y-46887059D01*
X151950687Y-46979633D01*
X151796742Y-47043399D01*
X151633315Y-47075907D01*
X151466685Y-47075907D01*
X151303258Y-47043399D01*
X151149313Y-46979633D01*
X151010766Y-46887059D01*
X150892941Y-46769234D01*
X150800367Y-46630687D01*
X150736601Y-46476742D01*
X150704093Y-46313315D01*
X150704093Y-46146685D01*
X150736601Y-45983258D01*
X150800367Y-45829313D01*
X150892941Y-45690766D01*
X151010766Y-45572941D01*
X151149313Y-45480367D01*
X151303258Y-45416601D01*
X151466685Y-45384093D01*
X151633315Y-45384093D01*
X151796742Y-45416601D01*
G37*
G36*
X154336742Y-45416601D02*
G01*
X154490687Y-45480367D01*
X154629234Y-45572941D01*
X154747059Y-45690766D01*
X154839633Y-45829313D01*
X154903399Y-45983258D01*
X154935907Y-46146685D01*
X154935907Y-46313315D01*
X154903399Y-46476742D01*
X154839633Y-46630687D01*
X154747059Y-46769234D01*
X154629234Y-46887059D01*
X154490687Y-46979633D01*
X154336742Y-47043399D01*
X154173315Y-47075907D01*
X154006685Y-47075907D01*
X153843258Y-47043399D01*
X153689313Y-46979633D01*
X153550766Y-46887059D01*
X153432941Y-46769234D01*
X153340367Y-46630687D01*
X153276601Y-46476742D01*
X153244093Y-46313315D01*
X153244093Y-46146685D01*
X153276601Y-45983258D01*
X153340367Y-45829313D01*
X153432941Y-45690766D01*
X153550766Y-45572941D01*
X153689313Y-45480367D01*
X153843258Y-45416601D01*
X154006685Y-45384093D01*
X154173315Y-45384093D01*
X154336742Y-45416601D01*
G37*
G36*
X156876742Y-45416601D02*
G01*
X157030687Y-45480367D01*
X157169234Y-45572941D01*
X157287059Y-45690766D01*
X157379633Y-45829313D01*
X157443399Y-45983258D01*
X157475907Y-46146685D01*
X157475907Y-46313315D01*
X157443399Y-46476742D01*
X157379633Y-46630687D01*
X157287059Y-46769234D01*
X157169234Y-46887059D01*
X157030687Y-46979633D01*
X156876742Y-47043399D01*
X156713315Y-47075907D01*
X156546685Y-47075907D01*
X156383258Y-47043399D01*
X156229313Y-46979633D01*
X156090766Y-46887059D01*
X155972941Y-46769234D01*
X155880367Y-46630687D01*
X155816601Y-46476742D01*
X155784093Y-46313315D01*
X155784093Y-46146685D01*
X155816601Y-45983258D01*
X155880367Y-45829313D01*
X155972941Y-45690766D01*
X156090766Y-45572941D01*
X156229313Y-45480367D01*
X156383258Y-45416601D01*
X156546685Y-45384093D01*
X156713315Y-45384093D01*
X156876742Y-45416601D01*
G37*
G36*
X83820000Y-47071000D02*
G01*
X82120000Y-47071000D01*
X82120000Y-45371000D01*
X83820000Y-45371000D01*
X83820000Y-47071000D01*
G37*
G36*
X85756742Y-45407601D02*
G01*
X85910687Y-45471367D01*
X86049234Y-45563941D01*
X86167059Y-45681766D01*
X86259633Y-45820313D01*
X86323399Y-45974258D01*
X86355907Y-46137685D01*
X86355907Y-46304315D01*
X86323399Y-46467742D01*
X86259633Y-46621687D01*
X86167059Y-46760234D01*
X86049234Y-46878059D01*
X85910687Y-46970633D01*
X85756742Y-47034399D01*
X85593315Y-47066907D01*
X85426685Y-47066907D01*
X85263258Y-47034399D01*
X85109313Y-46970633D01*
X84970766Y-46878059D01*
X84852941Y-46760234D01*
X84760367Y-46621687D01*
X84696601Y-46467742D01*
X84664093Y-46304315D01*
X84664093Y-46137685D01*
X84696601Y-45974258D01*
X84760367Y-45820313D01*
X84852941Y-45681766D01*
X84970766Y-45563941D01*
X85109313Y-45471367D01*
X85263258Y-45407601D01*
X85426685Y-45375093D01*
X85593315Y-45375093D01*
X85756742Y-45407601D01*
G37*
G36*
X88296742Y-45407601D02*
G01*
X88450687Y-45471367D01*
X88589234Y-45563941D01*
X88707059Y-45681766D01*
X88799633Y-45820313D01*
X88863399Y-45974258D01*
X88895907Y-46137685D01*
X88895907Y-46304315D01*
X88863399Y-46467742D01*
X88799633Y-46621687D01*
X88707059Y-46760234D01*
X88589234Y-46878059D01*
X88450687Y-46970633D01*
X88296742Y-47034399D01*
X88133315Y-47066907D01*
X87966685Y-47066907D01*
X87803258Y-47034399D01*
X87649313Y-46970633D01*
X87510766Y-46878059D01*
X87392941Y-46760234D01*
X87300367Y-46621687D01*
X87236601Y-46467742D01*
X87204093Y-46304315D01*
X87204093Y-46137685D01*
X87236601Y-45974258D01*
X87300367Y-45820313D01*
X87392941Y-45681766D01*
X87510766Y-45563941D01*
X87649313Y-45471367D01*
X87803258Y-45407601D01*
X87966685Y-45375093D01*
X88133315Y-45375093D01*
X88296742Y-45407601D01*
G37*
G36*
X90836742Y-45407601D02*
G01*
X90990687Y-45471367D01*
X91129234Y-45563941D01*
X91247059Y-45681766D01*
X91339633Y-45820313D01*
X91403399Y-45974258D01*
X91435907Y-46137685D01*
X91435907Y-46304315D01*
X91403399Y-46467742D01*
X91339633Y-46621687D01*
X91247059Y-46760234D01*
X91129234Y-46878059D01*
X90990687Y-46970633D01*
X90836742Y-47034399D01*
X90673315Y-47066907D01*
X90506685Y-47066907D01*
X90343258Y-47034399D01*
X90189313Y-46970633D01*
X90050766Y-46878059D01*
X89932941Y-46760234D01*
X89840367Y-46621687D01*
X89776601Y-46467742D01*
X89744093Y-46304315D01*
X89744093Y-46137685D01*
X89776601Y-45974258D01*
X89840367Y-45820313D01*
X89932941Y-45681766D01*
X90050766Y-45563941D01*
X90189313Y-45471367D01*
X90343258Y-45407601D01*
X90506685Y-45375093D01*
X90673315Y-45375093D01*
X90836742Y-45407601D01*
G37*
G36*
X93376742Y-45407601D02*
G01*
X93530687Y-45471367D01*
X93669234Y-45563941D01*
X93787059Y-45681766D01*
X93879633Y-45820313D01*
X93943399Y-45974258D01*
X93975907Y-46137685D01*
X93975907Y-46304315D01*
X93943399Y-46467742D01*
X93879633Y-46621687D01*
X93787059Y-46760234D01*
X93669234Y-46878059D01*
X93530687Y-46970633D01*
X93376742Y-47034399D01*
X93213315Y-47066907D01*
X93046685Y-47066907D01*
X92883258Y-47034399D01*
X92729313Y-46970633D01*
X92590766Y-46878059D01*
X92472941Y-46760234D01*
X92380367Y-46621687D01*
X92316601Y-46467742D01*
X92284093Y-46304315D01*
X92284093Y-46137685D01*
X92316601Y-45974258D01*
X92380367Y-45820313D01*
X92472941Y-45681766D01*
X92590766Y-45563941D01*
X92729313Y-45471367D01*
X92883258Y-45407601D01*
X93046685Y-45375093D01*
X93213315Y-45375093D01*
X93376742Y-45407601D01*
G37*
G36*
X95916742Y-45407601D02*
G01*
X96070687Y-45471367D01*
X96209234Y-45563941D01*
X96327059Y-45681766D01*
X96419633Y-45820313D01*
X96483399Y-45974258D01*
X96515907Y-46137685D01*
X96515907Y-46304315D01*
X96483399Y-46467742D01*
X96419633Y-46621687D01*
X96327059Y-46760234D01*
X96209234Y-46878059D01*
X96070687Y-46970633D01*
X95916742Y-47034399D01*
X95753315Y-47066907D01*
X95586685Y-47066907D01*
X95423258Y-47034399D01*
X95269313Y-46970633D01*
X95130766Y-46878059D01*
X95012941Y-46760234D01*
X94920367Y-46621687D01*
X94856601Y-46467742D01*
X94824093Y-46304315D01*
X94824093Y-46137685D01*
X94856601Y-45974258D01*
X94920367Y-45820313D01*
X95012941Y-45681766D01*
X95130766Y-45563941D01*
X95269313Y-45471367D01*
X95423258Y-45407601D01*
X95586685Y-45375093D01*
X95753315Y-45375093D01*
X95916742Y-45407601D01*
G37*
M02*
